<svg width="341" height="404" viewBox="0 0 341 404" fill="none" xmlns="http://www.w3.org/2000/svg">
<path d="M165.265 154.224H93.4286V117.408C93.4286 107.979 89.8367 102.591 83.551 102.591C76.8163 102.591 73.2245 107.979 73.2245 117.408V140.755C73.2245 156.469 75.9184 160.959 110.49 179.367L123.959 185.653C156.286 202.265 165.714 222.918 165.714 274.102V280.387C165.714 322.591 145.959 350.428 111.388 359.857L115.429 403.408H51.2245L54.8163 360.306C19.7959 351.326 0.938776 323.938 0.938776 280.387V249.408H72.7755V285.775C72.7755 295.653 76.8163 301.04 83.551 301.04C90.2857 301.04 93.8776 295.653 93.8776 286.224V261.979C93.8776 245.816 91.1837 241.775 59.3061 225.163L43.5918 217.53C11.2653 200.918 1.38776 178.02 1.38776 127.285V122.795C1.38776 79.2444 20.2449 52.3057 54.8163 43.3261L51.2245 0.224017H115.429L111.388 43.775C145.959 53.2036 165.265 81.0404 165.265 122.795V154.224ZM339.771 154.224H267.934V117.408C267.934 107.979 264.342 102.591 258.057 102.591C251.322 102.591 247.73 107.979 247.73 117.408V140.755C247.73 156.469 250.424 160.959 284.996 179.367L298.465 185.653C330.791 202.265 340.22 222.918 340.22 274.102V280.387C340.22 322.591 320.465 350.428 285.894 359.857L289.934 403.408H225.73L229.322 360.306C194.302 351.326 175.445 323.938 175.445 280.387V249.408H247.281V285.775C247.281 295.653 251.322 301.04 258.057 301.04C264.791 301.04 268.383 295.653 268.383 286.224V261.979C268.383 245.816 265.689 241.775 233.812 225.163L218.098 217.53C185.771 200.918 175.894 178.02 175.894 127.285V122.795C175.894 79.2444 194.751 52.3057 229.322 43.3261L225.73 0.224017H289.934L285.894 43.775C320.465 53.2036 339.771 81.0404 339.771 122.795V154.224Z" fill="#FFC2DF"/>
</svg>
