<svg width="343" height="158" viewBox="0 0 343 158" fill="none" xmlns="http://www.w3.org/2000/svg">
<path d="M16.0059 126.203L53.7201 88.0395L0.740544 79.0599L16.9038 29.2232L65.3936 53.4681L57.312 0.0395279H109.843L101.761 53.4681L149.802 29.2232L165.965 79.0599L112.985 88.0395L150.7 126.203L108.047 157.182L83.3528 109.591L58.6589 157.182L16.0059 126.203ZM192.704 126.203L230.418 88.0395L177.439 79.0599L193.602 29.2232L242.092 53.4681L234.01 0.0395279H286.541L278.459 53.4681L326.5 29.2232L342.663 79.0599L289.683 88.0395L327.398 126.203L284.745 157.182L260.051 109.591L235.357 157.182L192.704 126.203Z" fill="#FFC2DF"/>
</svg>
