<svg width="937" height="542" viewBox="0 0 937 542" fill="none" xmlns="http://www.w3.org/2000/svg">
<path d="M42.9826 17.84H30.3694V88.6204H13.2254V17.84H0.734745V2.90022H42.9826V17.84ZM89.4399 3.02268V88.7429H72.1734V52.2506H63.3564V88.7429H46.2124V3.02268H63.3564V37.3108H72.1734V3.02268H89.4399ZM110.591 17.84V36.3311H124.428V51.2709H110.591V73.8031H125.041V88.7429H93.4465V2.90022H124.673V17.84H110.591Z" fill="#C1FF5C"/>
<path d="M163.429 101.457C190.068 101.457 208.925 108.042 220 121.212C231.075 134.382 233.469 153.539 227.184 178.682L226.735 180.927C224.041 192.6 220.15 202.777 215.061 211.457C210.272 220.137 204.884 227.62 198.898 233.906C193.211 239.893 187.225 244.532 180.939 247.825C174.653 250.818 168.816 252.464 163.429 252.763L162.082 257.702C167.469 258.001 172.707 259.947 177.796 263.539C182.884 266.831 187.075 271.77 190.367 278.355C193.66 284.94 195.755 292.872 196.653 302.151C197.85 311.131 197.102 321.308 194.408 332.682L193.061 338.069C186.776 362.614 174.204 381.77 155.347 395.539C136.49 409.008 113.293 415.743 85.7551 415.743H5.83674L83.9592 101.457H163.429ZM125.265 224.029H132C136.789 224.029 140.231 222.981 142.327 220.886C144.422 218.491 146.218 214.45 147.714 208.763L155.347 178.682C156.844 172.995 156.993 169.103 155.796 167.008C154.898 164.614 152.204 163.416 147.714 163.416H140.082L125.265 224.029ZM92.9388 353.335H100.571C105.66 353.335 109.252 352.287 111.347 350.192C113.742 347.797 115.687 343.607 117.184 337.62L126.163 301.253C127.66 295.566 127.81 291.675 126.612 289.58C125.415 287.484 122.272 286.437 117.184 286.437H109.551L92.9388 353.335ZM340.576 101.008C367.215 101.008 386.072 108.042 397.147 122.11C408.222 135.879 410.167 156.981 402.984 185.416L401.637 191.253C398.644 203.226 394.603 213.852 389.514 223.131C384.426 232.11 378.739 239.743 372.453 246.029C366.467 252.314 360.331 257.103 354.045 260.396C348.059 263.688 342.372 265.484 336.984 265.784L335.637 270.722C340.725 271.022 345.514 273.117 350.004 277.008C354.494 280.6 358.086 285.688 360.78 292.273C363.773 298.859 365.569 306.94 366.167 316.518C366.766 325.797 365.569 336.273 362.576 347.947L361.678 351.539C358.385 364.41 355.691 375.933 353.596 386.11C351.8 396.287 350.603 406.165 350.004 415.743H278.167C278.766 406.165 279.963 396.137 281.759 385.661C283.855 374.886 286.548 363.362 289.841 351.09L298.82 314.722C300.317 309.035 300.467 305.144 299.269 303.049C298.072 300.654 295.229 299.457 290.739 299.457H283.106L253.923 415.743H182.086L260.657 101.008H340.576ZM298.372 237.049H306.004C311.093 237.049 314.684 235.702 316.78 233.008C319.174 230.015 320.97 226.124 322.167 221.335L332.943 178.682C334.44 173.294 334.589 169.403 333.392 167.008C332.195 164.614 329.351 163.416 324.861 163.416H316.78L298.372 237.049ZM567.717 101.008L516.085 415.743H444.248L458.615 344.355H442.003L420.901 415.743H349.064L455.472 101.008H567.717ZM470.738 281.947L482.411 225.376H477.472L460.411 281.947H470.738ZM771.491 101.457L693.368 415.743H615.246L630.062 227.62H626.021L595.042 415.743H523.205L601.777 101.457H679.45L665.981 290.927H670.021L699.654 101.457H771.491ZM863.237 101.457C889.577 101.457 908.285 108.042 919.359 121.212C930.734 134.083 933.128 153.688 926.543 180.029L887.482 337.171C880.897 363.512 868.625 383.267 850.666 396.437C833.006 409.308 811.006 415.743 784.666 415.743H703.849L782.421 101.457H863.237ZM791.849 353.335H799.931C804.121 353.335 807.264 352.287 809.359 350.192C811.754 347.797 813.7 343.906 815.196 338.518L855.155 178.682C856.652 172.995 856.802 169.103 855.604 167.008C854.407 164.913 851.713 163.865 847.523 163.865H838.992L791.849 353.335Z" fill="#C1FF5C"/>
<path d="M17.7563 430.653L20.3279 486.984H21.5525L25.961 430.653H37.2271L41.6355 486.984H42.8601L45.4317 430.653H62.5758L54.4936 516.373H35.2677L31.9614 474.37H30.8593L27.5529 516.373H8.32711L0.612287 430.653H17.7563ZM64.1447 451.716C64.1447 444.123 66.1041 438.531 70.0227 434.939C74.023 431.265 79.3703 429.429 86.0646 429.429C92.9222 429.429 98.3512 431.306 102.351 435.062C106.433 438.735 108.474 444.287 108.474 451.716V495.188C108.474 502.699 106.433 508.332 102.351 512.087C98.3512 515.761 92.9222 517.598 86.0646 517.598C79.3703 517.598 74.023 515.761 70.0227 512.087C66.1041 508.414 64.1447 502.781 64.1447 495.188V451.716ZM81.2888 496.413C81.2888 498.78 81.7786 500.454 82.7583 501.434C83.8196 502.332 85.0033 502.781 86.3095 502.781C87.6974 502.781 88.8811 502.332 89.8608 501.434C90.8405 500.454 91.3303 498.78 91.3303 496.413V450.614C91.3303 448.246 90.8405 446.613 89.8608 445.715C88.8811 444.817 87.6974 444.368 86.3095 444.368C85.0033 444.368 83.8196 444.817 82.7583 445.715C81.7786 446.613 81.2888 448.246 81.2888 450.614V496.413ZM133.646 430.653C140.83 430.653 146.341 432.572 150.178 436.409C154.096 440.164 156.056 445.879 156.056 453.553V454.165C156.056 457.594 155.688 460.614 154.954 463.227C154.219 465.839 153.239 468.043 152.015 469.84C150.79 471.554 149.402 472.901 147.851 473.881C146.382 474.86 144.912 475.432 143.443 475.595V476.82C144.912 476.983 146.382 477.595 147.851 478.656C149.402 479.636 150.79 481.024 152.015 482.82C153.239 484.616 154.219 486.779 154.954 489.31C155.688 491.841 156.056 494.658 156.056 497.76V498.984C156.056 502.658 156.097 505.883 156.178 508.659C156.341 511.434 156.709 514.006 157.28 516.373H140.136C139.565 513.761 139.197 511.026 139.034 508.169C138.953 505.311 138.912 502.209 138.912 498.862V490.045C138.912 485.8 137.116 483.677 133.524 483.677H129.605V516.496H112.461V430.653H133.646ZM129.605 468.737H133.524C137.116 468.737 138.912 466.533 138.912 462.125V452.083C138.912 447.756 137.116 445.593 133.524 445.593H129.605V468.737ZM177.44 466.166H179.154L185.889 430.653H204.136L193.237 473.513L205.115 516.373H186.992L179.154 480.983H177.44V516.373H160.296V430.653H177.44V466.166ZM233.038 461.023V450.614C233.038 446.45 231.406 444.368 228.14 444.368C224.956 444.368 223.364 446.45 223.364 450.614V456.369C223.364 457.675 223.487 458.818 223.732 459.798C223.977 460.696 224.466 461.553 225.201 462.37C225.936 463.186 226.997 464.043 228.385 464.941C229.855 465.758 231.773 466.737 234.141 467.88L238.304 469.717C240.59 470.778 242.508 471.962 244.06 473.268C245.611 474.575 246.835 476.166 247.733 478.044C248.713 479.84 249.407 481.963 249.815 484.412C250.223 486.861 250.427 489.759 250.427 493.106V495.066C250.427 502.25 248.468 507.801 244.549 511.72C240.631 515.639 235.079 517.598 227.895 517.598C220.793 517.598 215.364 515.679 211.608 511.842C207.853 508.005 205.975 502.413 205.975 495.066V486.004H223.119V496.413C223.119 500.576 224.793 502.658 228.14 502.658C231.487 502.658 233.161 500.617 233.161 496.535V490.29C233.161 488.984 233.038 487.882 232.794 486.984C232.549 486.086 232.059 485.228 231.324 484.412C230.671 483.596 229.65 482.779 228.263 481.963C226.956 481.146 225.201 480.208 222.997 479.146L218.344 477.065C216.058 476.003 214.139 474.819 212.588 473.513C211.037 472.125 209.772 470.493 208.792 468.615C207.894 466.737 207.241 464.574 206.833 462.125C206.424 459.594 206.22 456.655 206.22 453.308V451.838C206.22 444.572 208.098 439.021 211.853 435.184C215.609 431.347 220.956 429.429 227.895 429.429C234.998 429.429 240.468 431.388 244.305 435.307C248.223 439.144 250.182 444.654 250.182 451.838V461.023H233.038ZM297.641 430.653V516.373H280.375V479.881H271.558V516.373H254.414V430.653H271.558V464.941H280.375V430.653H297.641ZM301.526 451.716C301.526 444.123 303.485 438.531 307.404 434.939C311.404 431.265 316.751 429.429 323.445 429.429C330.303 429.429 335.732 431.306 339.732 435.062C343.814 438.735 345.855 444.287 345.855 451.716V495.188C345.855 502.699 343.814 508.332 339.732 512.087C335.732 515.761 330.303 517.598 323.445 517.598C316.751 517.598 311.404 515.761 307.404 512.087C303.485 508.414 301.526 502.781 301.526 495.188V451.716ZM318.67 496.413C318.67 498.78 319.159 500.454 320.139 501.434C321.2 502.332 322.384 502.781 323.69 502.781C325.078 502.781 326.262 502.332 327.242 501.434C328.221 500.454 328.711 498.78 328.711 496.413V450.614C328.711 448.246 328.221 446.613 327.242 445.715C326.262 444.817 325.078 444.368 323.69 444.368C322.384 444.368 321.2 444.817 320.139 445.715C319.159 446.613 318.67 448.246 318.67 450.614V496.413ZM371.027 430.653C378.293 430.653 383.844 433.061 387.681 437.878C391.518 442.695 393.437 450.206 393.437 460.41V460.655C393.437 465.88 392.947 470.289 391.967 473.881C391.069 477.473 389.681 480.371 387.804 482.575C386.008 484.779 383.681 486.371 380.823 487.351C378.048 488.331 374.741 488.82 370.904 488.82H366.986V516.373H349.842V430.653H371.027ZM366.986 474.003H370.904C372.864 474.003 374.252 473.472 375.068 472.411C375.884 471.268 376.293 469.431 376.293 466.901V453.063C376.293 450.369 375.884 448.45 375.068 447.307C374.252 446.164 372.864 445.593 370.904 445.593H366.986V474.003Z" fill="#C1FF5C"/>
</svg>
