<svg width="945" height="542" viewBox="0 0 945 542" fill="none" xmlns="http://www.w3.org/2000/svg">
<g filter="url(#filter0_d_690_91)">
<path d="M46.6898 17.6948H34.0767V88.4752H16.9327V17.6948H4.44202V2.75499H46.6898V17.6948ZM93.1471 2.87745V88.5977H75.8806V52.1053H67.0637V88.5977H49.9196V2.87745H67.0637V37.1655H75.8806V2.87745H93.1471ZM114.298 17.6948V36.1859H128.136V51.1257H114.298V73.6578H128.748V88.5977H97.1538V2.75499H128.38V17.6948H114.298Z" fill="white"/>
<path d="M167.136 101.312C193.775 101.312 212.632 107.897 223.707 121.067C234.782 134.237 237.177 153.394 230.891 178.536L230.442 180.781C227.748 192.455 223.857 202.632 218.769 211.312C213.979 219.992 208.592 227.475 202.605 233.761C196.918 239.747 190.932 244.387 184.646 247.679C178.36 250.672 172.524 252.319 167.136 252.618L165.789 257.557C171.177 257.856 176.415 259.802 181.503 263.394C186.592 266.686 190.782 271.625 194.075 278.21C197.367 284.795 199.462 292.727 200.36 302.006C201.558 310.985 200.809 321.162 198.115 332.536L196.769 337.924C190.483 362.468 177.911 381.625 159.054 395.394C140.197 408.863 117 415.598 89.4624 415.598H9.54401L87.6665 101.312H167.136ZM128.973 223.883H135.707C140.496 223.883 143.939 222.836 146.034 220.74C148.129 218.346 149.925 214.305 151.422 208.618L159.054 178.536C160.551 172.849 160.7 168.958 159.503 166.863C158.605 164.468 155.911 163.271 151.422 163.271H143.789L128.973 223.883ZM96.6461 353.189H104.279C109.367 353.189 112.959 352.142 115.054 350.047C117.449 347.652 119.394 343.462 120.891 337.475L129.871 301.108C131.367 295.421 131.517 291.53 130.32 289.434C129.122 287.339 125.979 286.292 120.891 286.292H113.258L96.6461 353.189Z" fill="#DCC2FF"/>
<path d="M344.283 100.863C370.922 100.863 389.779 107.897 400.854 121.965C411.929 135.734 413.875 156.836 406.691 185.271L405.344 191.108C402.351 203.081 398.31 213.706 393.222 222.985C388.133 231.965 382.446 239.598 376.16 245.883C370.174 252.169 364.038 256.958 357.752 260.251C351.766 263.543 346.079 265.339 340.691 265.638L339.344 270.577C344.433 270.877 349.222 272.972 353.711 276.863C358.201 280.455 361.793 285.543 364.487 292.128C367.48 298.713 369.276 306.795 369.875 316.373C370.473 325.652 369.276 336.128 366.283 347.802L365.385 351.394C362.092 364.264 359.399 375.788 357.303 385.965C355.507 396.142 354.31 406.019 353.711 415.598H281.875C282.473 406.019 283.671 395.992 285.467 385.516C287.562 374.741 290.256 363.217 293.548 350.945L302.528 314.577C304.024 308.89 304.174 304.999 302.977 302.904C301.779 300.509 298.936 299.312 294.446 299.312H286.813L257.63 415.598H185.793L264.364 100.863H344.283ZM302.079 236.904H309.711C314.8 236.904 318.392 235.557 320.487 232.863C322.882 229.87 324.677 225.979 325.875 221.189L336.65 178.536C338.147 173.149 338.296 169.258 337.099 166.863C335.902 164.468 333.058 163.271 328.569 163.271H320.487L302.079 236.904Z" fill="#FFC2DF"/>
<path d="M571.424 100.863L519.792 415.598H447.955L462.322 344.21H445.71L424.608 415.598H352.771L459.18 100.863H571.424ZM474.445 281.802L486.118 225.23H481.18L464.118 281.802H474.445Z" fill="#E8FFC2"/>
<path d="M775.198 101.312L697.076 415.598H618.953L633.77 227.475H629.729L598.749 415.598H526.912L605.484 101.312H683.157L669.688 290.781H673.729L703.361 101.312H775.198Z" fill="#FFC5C2"/>
<path d="M866.944 101.312C893.284 101.312 911.992 107.897 923.067 121.067C934.441 133.938 936.835 153.543 930.25 179.883L891.189 337.026C884.604 363.366 872.332 383.121 854.373 396.292C836.713 409.162 814.713 415.598 788.373 415.598H707.556L786.128 101.312H866.944ZM795.556 353.189H803.638C807.829 353.189 810.971 352.142 813.067 350.047C815.461 347.652 817.407 343.761 818.903 338.373L858.863 178.536C860.359 172.849 860.509 168.958 859.312 166.863C858.114 164.768 855.42 163.72 851.23 163.72H842.699L795.556 353.189Z" fill="#DFFFD6"/>
<path d="M21.4636 430.508L24.0352 486.838H25.2598L29.6683 430.508H40.9343L45.3428 486.838H46.5674L49.139 430.508H66.283L58.2008 516.228H38.975L35.6687 474.225H34.5665L31.2602 516.228H12.0344L4.31956 430.508H21.4636ZM67.852 451.571C67.852 443.978 69.8113 438.386 73.73 434.794C77.7302 431.12 83.0776 429.283 89.7719 429.283C96.6295 429.283 102.058 431.161 106.059 434.916C110.141 438.59 112.182 444.142 112.182 451.571V495.043C112.182 502.554 110.141 508.187 106.059 511.942C102.058 515.616 96.6295 517.453 89.7719 517.453C83.0776 517.453 77.7302 515.616 73.73 511.942C69.8113 508.268 67.852 502.635 67.852 495.043V451.571ZM84.9961 496.268C84.9961 498.635 85.4859 500.309 86.4655 501.288C87.5268 502.186 88.7106 502.635 90.0168 502.635C91.4047 502.635 92.5884 502.186 93.5681 501.288C94.5477 500.309 95.0376 498.635 95.0376 496.268V450.469C95.0376 448.101 94.5477 446.468 93.5681 445.57C92.5884 444.672 91.4047 444.223 90.0168 444.223C88.7106 444.223 87.5268 444.672 86.4655 445.57C85.4859 446.468 84.9961 448.101 84.9961 450.469V496.268ZM137.353 430.508C144.537 430.508 150.048 432.426 153.885 436.263C157.804 440.019 159.763 445.733 159.763 453.407V454.02C159.763 457.449 159.396 460.469 158.661 463.082C157.926 465.694 156.946 467.898 155.722 469.694C154.497 471.409 153.11 472.756 151.558 473.735C150.089 474.715 148.619 475.287 147.15 475.45V476.674C148.619 476.838 150.089 477.45 151.558 478.511C153.11 479.491 154.497 480.879 155.722 482.675C156.946 484.471 157.926 486.634 158.661 489.165C159.396 491.696 159.763 494.512 159.763 497.615V498.839C159.763 502.513 159.804 505.738 159.885 508.513C160.049 511.289 160.416 513.861 160.988 516.228H143.844C143.272 513.616 142.905 510.881 142.741 508.024C142.66 505.166 142.619 502.064 142.619 498.717V489.9C142.619 485.655 140.823 483.532 137.231 483.532H133.312V516.351H116.168V430.508H137.353ZM133.312 468.592H137.231C140.823 468.592 142.619 466.388 142.619 461.98V451.938C142.619 447.611 140.823 445.448 137.231 445.448H133.312V468.592ZM181.147 466.021H182.862L189.597 430.508H207.843L196.944 473.368L208.823 516.228H190.699L182.862 480.838H181.147V516.228H164.003V430.508H181.147V466.021ZM236.746 460.877V450.469C236.746 446.305 235.113 444.223 231.847 444.223C228.664 444.223 227.072 446.305 227.072 450.469V456.224C227.072 457.53 227.194 458.673 227.439 459.653C227.684 460.551 228.174 461.408 228.908 462.224C229.643 463.041 230.704 463.898 232.092 464.796C233.562 465.612 235.48 466.592 237.848 467.735L242.011 469.572C244.297 470.633 246.216 471.817 247.767 473.123C249.318 474.429 250.543 476.021 251.441 477.899C252.42 479.695 253.114 481.818 253.522 484.267C253.931 486.716 254.135 489.614 254.135 492.961V494.921C254.135 502.105 252.175 507.656 248.257 511.575C244.338 515.493 238.787 517.453 231.602 517.453C224.5 517.453 219.071 515.534 215.316 511.697C211.56 507.86 209.683 502.268 209.683 494.921V485.859H226.827V496.268C226.827 500.431 228.5 502.513 231.847 502.513C235.195 502.513 236.868 500.472 236.868 496.39V490.145C236.868 488.839 236.746 487.736 236.501 486.838C236.256 485.94 235.766 485.083 235.031 484.267C234.378 483.45 233.358 482.634 231.97 481.818C230.664 481.001 228.908 480.062 226.704 479.001L222.051 476.919C219.765 475.858 217.846 474.674 216.295 473.368C214.744 471.98 213.479 470.347 212.499 468.47C211.601 466.592 210.948 464.429 210.54 461.98C210.132 459.449 209.928 456.51 209.928 453.163V451.693C209.928 444.427 211.805 438.876 215.561 435.039C219.316 431.202 224.663 429.283 231.602 429.283C238.705 429.283 244.175 431.243 248.012 435.161C251.93 438.998 253.89 444.509 253.89 451.693V460.877H236.746ZM301.349 430.508V516.228H284.082V479.736H275.265V516.228H258.121V430.508H275.265V464.796H284.082V430.508H301.349ZM305.233 451.571C305.233 443.978 307.192 438.386 311.111 434.794C315.111 431.12 320.458 429.283 327.153 429.283C334.01 429.283 339.439 431.161 343.44 434.916C347.522 438.59 349.562 444.142 349.562 451.571V495.043C349.562 502.554 347.522 508.187 343.44 511.942C339.439 515.616 334.01 517.453 327.153 517.453C320.458 517.453 315.111 515.616 311.111 511.942C307.192 508.268 305.233 502.635 305.233 495.043V451.571ZM322.377 496.268C322.377 498.635 322.867 500.309 323.846 501.288C324.908 502.186 326.091 502.635 327.398 502.635C328.786 502.635 329.969 502.186 330.949 501.288C331.929 500.309 332.418 498.635 332.418 496.268V450.469C332.418 448.101 331.929 446.468 330.949 445.57C329.969 444.672 328.786 444.223 327.398 444.223C326.091 444.223 324.908 444.672 323.846 445.57C322.867 446.468 322.377 448.101 322.377 450.469V496.268ZM374.734 430.508C382 430.508 387.551 432.916 391.388 437.733C395.225 442.55 397.144 450.06 397.144 460.265V460.51C397.144 465.735 396.654 470.143 395.674 473.735C394.776 477.328 393.389 480.226 391.511 482.43C389.715 484.634 387.388 486.226 384.531 487.206C381.755 488.185 378.449 488.675 374.612 488.675H370.693V516.228H353.549V430.508H374.734ZM370.693 473.858H374.612C376.571 473.858 377.959 473.327 378.775 472.266C379.592 471.123 380 469.286 380 466.755V452.918C380 450.224 379.592 448.305 378.775 447.162C377.959 446.019 376.571 445.448 374.612 445.448H370.693V473.858Z" fill="white"/>
</g>
<defs>
<filter id="filter0_d_690_91" x="-0.292725" y="0.597656" width="944.421" height="548.63" filterUnits="userSpaceOnUse" color-interpolation-filters="sRGB">
<feFlood flood-opacity="0" result="BackgroundImageFix"/>
<feColorMatrix in="SourceAlpha" type="matrix" values="0 0 0 0 0 0 0 0 0 0 0 0 0 0 0 0 0 0 127 0" result="hardAlpha"/>
<feOffset dy="4"/>
<feGaussianBlur stdDeviation="2"/>
<feComposite in2="hardAlpha" operator="out"/>
<feColorMatrix type="matrix" values="0 0 0 0 0 0 0 0 0 0 0 0 0 0 0 0 0 0 0.25 0"/>
<feBlend mode="normal" in2="BackgroundImageFix" result="effect1_dropShadow_690_91"/>
<feBlend mode="normal" in="SourceGraphic" in2="effect1_dropShadow_690_91" result="shape"/>
</filter>
</defs>
</svg>
