<svg width="937" height="542" viewBox="0 0 937 542" fill="none" xmlns="http://www.w3.org/2000/svg">
<g filter="url(#filter0_d_690_91)">
<path d="M47.2702 17.6948H34.657V88.4752H17.513V17.6948H5.02234V2.75499H47.2702V17.6948ZM93.7274 2.87745V88.5977H76.4609V52.1053H67.644V88.5977H50.5V2.87745H67.644V37.1655H76.4609V2.87745H93.7274ZM114.878 17.6948V36.1859H128.716V51.1257H114.878V73.6578H129.328V88.5977H97.7341V2.75499H128.961V17.6948H114.878Z" fill="white"/>
<path d="M89.5937 101.312C116.533 101.312 137.335 108.047 152.002 121.516C166.669 134.686 174.002 153.693 174.002 178.536V180.781C174.002 192.455 172.505 202.781 169.512 211.761C166.818 220.74 163.226 228.223 158.737 234.21C154.247 240.196 149.308 244.686 143.92 247.679C138.533 250.672 133.294 252.169 128.206 252.169V257.557C132.995 257.557 138.233 259.353 143.92 262.945C149.907 266.237 155.444 271.176 160.533 277.761C165.621 284.346 169.811 292.278 173.104 301.557C176.696 310.536 178.492 320.863 178.492 332.536V338.373C178.492 362.618 170.56 381.625 154.696 395.394C139.131 408.863 117.43 415.598 89.5937 415.598H6.98148V101.312H89.5937ZM87.7978 219.843H88.6958C91.0903 219.843 92.4373 219.543 92.7366 218.945C93.0359 218.047 93.1856 215.951 93.1856 212.659V178.536C93.1856 175.244 93.0359 173.298 92.7366 172.7C92.4373 171.802 91.0903 171.353 88.6958 171.353H87.7978V219.843ZM87.7978 345.557H88.6958C91.0903 345.557 92.4373 345.258 92.7366 344.659C93.0359 343.761 93.1856 341.666 93.1856 338.373V297.067C93.1856 293.775 93.0359 291.829 92.7366 291.23C92.4373 290.332 91.0903 289.883 88.6958 289.883H87.7978V345.557ZM265.415 101.312C292.354 101.312 313.156 108.196 327.823 121.965C342.49 135.434 349.823 156.536 349.823 185.271V187.516C349.823 200.686 348.326 212.21 345.333 222.087C342.34 231.666 338.599 239.747 334.109 246.332C329.619 252.917 324.68 257.856 319.292 261.149C313.905 264.142 308.816 265.638 304.027 265.638V271.026C308.816 271.026 313.905 272.822 319.292 276.414C324.68 280.006 329.619 285.094 334.109 291.679C338.599 298.264 342.34 306.346 345.333 315.924C348.326 325.502 349.823 336.278 349.823 348.251V351.843C349.823 363.815 349.973 375.04 350.272 385.516C350.871 395.992 352.218 406.019 354.313 415.598H273.496C271.401 405.72 270.054 395.543 269.456 385.067C269.156 374.591 269.007 363.217 269.007 350.945V310.536C269.007 307.244 268.857 305.298 268.558 304.7C268.258 303.802 266.911 303.353 264.517 303.353H263.619V415.598H182.803V101.312H265.415ZM263.619 233.312H264.517C266.911 233.312 268.258 233.013 268.558 232.414C268.857 231.516 269.007 229.421 269.007 226.128V178.087C269.007 175.094 268.857 173.298 268.558 172.7C268.258 171.802 266.911 171.353 264.517 171.353H263.619V233.312ZM496.65 101.312L516.405 415.598H435.589V350.945H430.201V415.598H349.385L370.936 101.312H496.65ZM435.589 280.904V242.292H430.201V280.904H435.589ZM694.618 101.312V415.598H607.965L587.312 244.985H582.822L601.231 415.598H520.414V101.312H607.067L629.516 273.72H634.006L613.802 101.312H694.618ZM782.794 101.312C809.732 101.312 830.535 107.897 845.202 121.067C859.869 133.938 867.202 153.543 867.202 179.883V337.026C867.202 363.666 859.869 383.421 845.202 396.292C830.535 409.162 809.732 415.598 782.794 415.598H700.181V101.312H782.794ZM781.447 345.557H782.345C784.44 345.557 785.637 345.258 785.937 344.659C786.236 343.761 786.386 341.666 786.386 338.373V178.536C786.386 175.244 786.236 173.298 785.937 172.7C785.637 171.802 784.44 171.353 782.345 171.353H781.447V345.557Z" fill="white"/>
<path d="M22.0439 430.508L24.6155 486.838H25.8401L30.2486 430.508H41.5147L45.9231 486.838H47.1477L49.7193 430.508H66.8634L58.7812 516.228H39.5553L36.249 474.225H35.1469L31.8405 516.228H12.6147L4.89988 430.508H22.0439ZM68.4323 451.571C68.4323 443.978 70.3917 438.386 74.3103 434.794C78.3106 431.12 83.6579 429.283 90.3522 429.283C97.2098 429.283 102.639 431.161 106.639 434.916C110.721 438.59 112.762 444.142 112.762 451.571V495.043C112.762 502.554 110.721 508.187 106.639 511.942C102.639 515.616 97.2098 517.453 90.3522 517.453C83.6579 517.453 78.3106 515.616 74.3103 511.942C70.3917 508.268 68.4323 502.635 68.4323 495.043V451.571ZM85.5764 496.268C85.5764 498.635 86.0662 500.309 87.0459 501.288C88.1072 502.186 89.2909 502.635 90.5971 502.635C91.985 502.635 93.1687 502.186 94.1484 501.288C95.1281 500.309 95.6179 498.635 95.6179 496.268V450.469C95.6179 448.101 95.1281 446.468 94.1484 445.57C93.1687 444.672 91.985 444.223 90.5971 444.223C89.2909 444.223 88.1072 444.672 87.0459 445.57C86.0662 446.468 85.5764 448.101 85.5764 450.469V496.268ZM137.934 430.508C145.118 430.508 150.628 432.426 154.465 436.263C158.384 440.019 160.343 445.733 160.343 453.407V454.02C160.343 457.449 159.976 460.469 159.241 463.082C158.506 465.694 157.527 467.898 156.302 469.694C155.078 471.409 153.69 472.756 152.139 473.735C150.669 474.715 149.2 475.287 147.73 475.45V476.674C149.2 476.838 150.669 477.45 152.139 478.511C153.69 479.491 155.078 480.879 156.302 482.675C157.527 484.471 158.506 486.634 159.241 489.165C159.976 491.696 160.343 494.512 160.343 497.615V498.839C160.343 502.513 160.384 505.738 160.466 508.513C160.629 511.289 160.996 513.861 161.568 516.228H144.424C143.852 513.616 143.485 510.881 143.322 508.024C143.24 505.166 143.199 502.064 143.199 498.717V489.9C143.199 485.655 141.403 483.532 137.811 483.532H133.893V516.351H116.748V430.508H137.934ZM133.893 468.592H137.811C141.403 468.592 143.199 466.388 143.199 461.98V451.938C143.199 447.611 141.403 445.448 137.811 445.448H133.893V468.592ZM181.727 466.021H183.442L190.177 430.508H208.423L197.524 473.368L209.403 516.228H191.279L183.442 480.838H181.727V516.228H164.583V430.508H181.727V466.021ZM237.326 460.877V450.469C237.326 446.305 235.693 444.223 232.428 444.223C229.244 444.223 227.652 446.305 227.652 450.469V456.224C227.652 457.53 227.774 458.673 228.019 459.653C228.264 460.551 228.754 461.408 229.489 462.224C230.223 463.041 231.285 463.898 232.673 464.796C234.142 465.612 236.061 466.592 238.428 467.735L242.592 469.572C244.878 470.633 246.796 471.817 248.347 473.123C249.898 474.429 251.123 476.021 252.021 477.899C253.001 479.695 253.694 481.818 254.103 484.267C254.511 486.716 254.715 489.614 254.715 492.961V494.921C254.715 502.105 252.756 507.656 248.837 511.575C244.918 515.493 239.367 517.453 232.183 517.453C225.08 517.453 219.651 515.534 215.896 511.697C212.141 507.86 210.263 502.268 210.263 494.921V485.859H227.407V496.268C227.407 500.431 229.081 502.513 232.428 502.513C235.775 502.513 237.448 500.472 237.448 496.39V490.145C237.448 488.839 237.326 487.736 237.081 486.838C236.836 485.94 236.346 485.083 235.612 484.267C234.959 483.45 233.938 482.634 232.55 481.818C231.244 481.001 229.489 480.062 227.285 479.001L222.631 476.919C220.345 475.858 218.427 474.674 216.876 473.368C215.324 471.98 214.059 470.347 213.079 468.47C212.181 466.592 211.528 464.429 211.12 461.98C210.712 459.449 210.508 456.51 210.508 453.163V451.693C210.508 444.427 212.386 438.876 216.141 435.039C219.896 431.202 225.244 429.283 232.183 429.283C239.285 429.283 244.755 431.243 248.592 435.161C252.511 438.998 254.47 444.509 254.47 451.693V460.877H237.326ZM301.929 430.508V516.228H284.663V479.736H275.846V516.228H258.702V430.508H275.846V464.796H284.663V430.508H301.929ZM305.813 451.571C305.813 443.978 307.773 438.386 311.691 434.794C315.691 431.12 321.039 429.283 327.733 429.283C334.591 429.283 340.02 431.161 344.02 434.916C348.102 438.59 350.143 444.142 350.143 451.571V495.043C350.143 502.554 348.102 508.187 344.02 511.942C340.02 515.616 334.591 517.453 327.733 517.453C321.039 517.453 315.691 515.616 311.691 511.942C307.773 508.268 305.813 502.635 305.813 495.043V451.571ZM322.957 496.268C322.957 498.635 323.447 500.309 324.427 501.288C325.488 502.186 326.672 502.635 327.978 502.635C329.366 502.635 330.55 502.186 331.529 501.288C332.509 500.309 332.999 498.635 332.999 496.268V450.469C332.999 448.101 332.509 446.468 331.529 445.57C330.55 444.672 329.366 444.223 327.978 444.223C326.672 444.223 325.488 444.672 324.427 445.57C323.447 446.468 322.957 448.101 322.957 450.469V496.268ZM375.314 430.508C382.58 430.508 388.132 432.916 391.969 437.733C395.806 442.55 397.724 450.06 397.724 460.265V460.51C397.724 465.735 397.234 470.143 396.255 473.735C395.357 477.328 393.969 480.226 392.091 482.43C390.295 484.634 387.968 486.226 385.111 487.206C382.335 488.185 379.029 488.675 375.192 488.675H371.273V516.228H354.129V430.508H375.314ZM371.273 473.858H375.192C377.151 473.858 378.539 473.327 379.356 472.266C380.172 471.123 380.58 469.286 380.58 466.755V452.918C380.58 450.224 380.172 448.305 379.356 447.162C378.539 446.019 377.151 445.448 375.192 445.448H371.273V473.858Z" fill="white"/>
</g>
<defs>
<filter id="filter0_d_690_91" x="0.287598" y="0.597656" width="940.115" height="548.63" filterUnits="userSpaceOnUse" color-interpolation-filters="sRGB">
<feFlood flood-opacity="0" result="BackgroundImageFix"/>
<feColorMatrix in="SourceAlpha" type="matrix" values="0 0 0 0 0 0 0 0 0 0 0 0 0 0 0 0 0 0 127 0" result="hardAlpha"/>
<feOffset dy="4"/>
<feGaussianBlur stdDeviation="2"/>
<feComposite in2="hardAlpha" operator="out"/>
<feColorMatrix type="matrix" values="0 0 0 0 0 0 0 0 0 0 0 0 0 0 0 0 0 0 0.25 0"/>
<feBlend mode="normal" in2="BackgroundImageFix" result="effect1_dropShadow_690_91"/>
<feBlend mode="normal" in="SourceGraphic" in2="effect1_dropShadow_690_91" result="shape"/>
</filter>
</defs>
</svg>
