<svg width="945" height="542" viewBox="0 0 945 542" fill="none" xmlns="http://www.w3.org/2000/svg">
<g filter="url(#filter0_d_690_91)">
<path d="M47.2702 17.6948H34.657V88.4752H17.513V17.6948H5.02234V2.75499H47.2702V17.6948ZM93.7274 2.87745V88.5977H76.4609V52.1053H67.644V88.5977H50.5V2.87745H67.644V37.1655H76.4609V2.87745H93.7274ZM114.878 17.6948V36.1859H128.716V51.1257H114.878V73.6578H129.328V88.5977H97.7341V2.75499H128.961V17.6948H114.878Z" fill="#DADADA"/>
<path d="M167.716 101.312C194.356 101.312 213.213 107.897 224.288 121.067C235.362 134.237 237.757 153.394 231.471 178.536L231.022 180.781C228.328 192.455 224.437 202.632 219.349 211.312C214.56 219.992 209.172 227.475 203.186 233.761C197.499 239.747 191.512 244.387 185.226 247.679C178.941 250.672 173.104 252.319 167.716 252.618L166.369 257.557C171.757 257.856 176.995 259.802 182.084 263.394C187.172 266.686 191.362 271.625 194.655 278.21C197.947 284.795 200.043 292.727 200.941 302.006C202.138 310.985 201.39 321.162 198.696 332.536L197.349 337.924C191.063 362.468 178.492 381.625 159.635 395.394C140.777 408.863 117.58 415.598 90.0427 415.598H10.1243L88.2468 101.312H167.716ZM129.553 223.883H136.288C141.077 223.883 144.519 222.836 146.614 220.74C148.709 218.346 150.505 214.305 152.002 208.618L159.635 178.536C161.131 172.849 161.281 168.958 160.084 166.863C159.186 164.468 156.492 163.271 152.002 163.271H144.369L129.553 223.883ZM97.2264 353.189H104.859C109.947 353.189 113.539 352.142 115.635 350.047C118.029 347.652 119.975 343.462 121.471 337.475L130.451 301.108C131.947 295.421 132.097 291.53 130.9 289.434C129.703 287.339 126.56 286.292 121.471 286.292H113.839L97.2264 353.189ZM344.863 100.863C371.503 100.863 390.36 107.897 401.435 121.965C412.509 135.734 414.455 156.836 407.271 185.271L405.924 191.108C402.931 203.081 398.89 213.706 393.802 222.985C388.714 231.965 383.026 239.598 376.741 245.883C370.754 252.169 364.618 256.958 358.333 260.251C352.346 263.543 346.659 265.339 341.271 265.638L339.924 270.577C345.013 270.877 349.802 272.972 354.292 276.863C358.782 280.455 362.373 285.543 365.067 292.128C368.06 298.713 369.856 306.795 370.455 316.373C371.054 325.652 369.856 336.128 366.863 347.802L365.965 351.394C362.673 364.264 359.979 375.788 357.884 385.965C356.088 396.142 354.89 406.019 354.292 415.598H282.455C283.054 406.019 284.251 395.992 286.047 385.516C288.142 374.741 290.836 363.217 294.128 350.945L303.108 314.577C304.605 308.89 304.754 304.999 303.557 302.904C302.36 300.509 299.516 299.312 295.026 299.312H287.394L258.21 415.598H186.373L264.945 100.863H344.863ZM302.659 236.904H310.292C315.38 236.904 318.972 235.557 321.067 232.863C323.462 229.87 325.258 225.979 326.455 221.189L337.231 178.536C338.727 173.149 338.877 169.258 337.68 166.863C336.482 164.468 333.639 163.271 329.149 163.271H321.067L302.659 236.904ZM572.005 100.863L520.372 415.598H448.535L462.903 344.21H446.29L425.188 415.598H353.352L459.76 100.863H572.005ZM475.025 281.802L486.699 225.23H481.76L464.699 281.802H475.025ZM775.778 101.312L697.656 415.598H619.533L634.35 227.475H630.309L599.329 415.598H527.493L606.064 101.312H683.738L670.268 290.781H674.309L703.942 101.312H775.778ZM867.525 101.312C893.865 101.312 912.572 107.897 923.647 121.067C935.021 133.938 937.416 153.543 930.831 179.883L891.769 337.026C885.184 363.366 872.912 383.121 854.953 396.292C837.293 409.162 815.293 415.598 788.953 415.598H708.137L786.708 101.312H867.525ZM796.137 353.189H804.218C808.409 353.189 811.552 352.142 813.647 350.047C816.042 347.652 817.987 343.761 819.484 338.373L859.443 178.536C860.94 172.849 861.089 168.958 859.892 166.863C858.695 164.768 856.001 163.72 851.81 163.72H843.28L796.137 353.189Z" fill="#DADADA"/>
<path d="M22.0439 430.508L24.6155 486.838H25.8401L30.2486 430.508H41.5147L45.9231 486.838H47.1477L49.7193 430.508H66.8634L58.7812 516.228H39.5553L36.249 474.225H35.1469L31.8405 516.228H12.6147L4.89988 430.508H22.0439ZM68.4323 451.571C68.4323 443.978 70.3917 438.386 74.3103 434.794C78.3106 431.12 83.6579 429.283 90.3522 429.283C97.2098 429.283 102.639 431.161 106.639 434.916C110.721 438.59 112.762 444.142 112.762 451.571V495.043C112.762 502.554 110.721 508.187 106.639 511.942C102.639 515.616 97.2098 517.453 90.3522 517.453C83.6579 517.453 78.3106 515.616 74.3103 511.942C70.3917 508.268 68.4323 502.635 68.4323 495.043V451.571ZM85.5764 496.268C85.5764 498.635 86.0662 500.309 87.0459 501.288C88.1072 502.186 89.2909 502.635 90.5971 502.635C91.985 502.635 93.1687 502.186 94.1484 501.288C95.1281 500.309 95.6179 498.635 95.6179 496.268V450.469C95.6179 448.101 95.1281 446.468 94.1484 445.57C93.1687 444.672 91.985 444.223 90.5971 444.223C89.2909 444.223 88.1072 444.672 87.0459 445.57C86.0662 446.468 85.5764 448.101 85.5764 450.469V496.268ZM137.934 430.508C145.118 430.508 150.628 432.426 154.465 436.263C158.384 440.019 160.343 445.733 160.343 453.407V454.02C160.343 457.449 159.976 460.469 159.241 463.082C158.506 465.694 157.527 467.898 156.302 469.694C155.078 471.409 153.69 472.756 152.139 473.735C150.669 474.715 149.2 475.287 147.73 475.45V476.674C149.2 476.838 150.669 477.45 152.139 478.511C153.69 479.491 155.078 480.879 156.302 482.675C157.527 484.471 158.506 486.634 159.241 489.165C159.976 491.696 160.343 494.512 160.343 497.615V498.839C160.343 502.513 160.384 505.738 160.466 508.513C160.629 511.289 160.996 513.861 161.568 516.228H144.424C143.852 513.616 143.485 510.881 143.322 508.024C143.24 505.166 143.199 502.064 143.199 498.717V489.9C143.199 485.655 141.403 483.532 137.811 483.532H133.893V516.351H116.748V430.508H137.934ZM133.893 468.592H137.811C141.403 468.592 143.199 466.388 143.199 461.98V451.938C143.199 447.611 141.403 445.448 137.811 445.448H133.893V468.592ZM181.727 466.021H183.442L190.177 430.508H208.423L197.524 473.368L209.403 516.228H191.279L183.442 480.838H181.727V516.228H164.583V430.508H181.727V466.021ZM237.326 460.877V450.469C237.326 446.305 235.693 444.223 232.428 444.223C229.244 444.223 227.652 446.305 227.652 450.469V456.224C227.652 457.53 227.774 458.673 228.019 459.653C228.264 460.551 228.754 461.408 229.489 462.224C230.223 463.041 231.285 463.898 232.673 464.796C234.142 465.612 236.061 466.592 238.428 467.735L242.592 469.572C244.878 470.633 246.796 471.817 248.347 473.123C249.898 474.429 251.123 476.021 252.021 477.899C253.001 479.695 253.694 481.818 254.103 484.267C254.511 486.716 254.715 489.614 254.715 492.961V494.921C254.715 502.105 252.756 507.656 248.837 511.575C244.918 515.493 239.367 517.453 232.183 517.453C225.08 517.453 219.651 515.534 215.896 511.697C212.141 507.86 210.263 502.268 210.263 494.921V485.859H227.407V496.268C227.407 500.431 229.081 502.513 232.428 502.513C235.775 502.513 237.448 500.472 237.448 496.39V490.145C237.448 488.839 237.326 487.736 237.081 486.838C236.836 485.94 236.346 485.083 235.612 484.267C234.959 483.45 233.938 482.634 232.55 481.818C231.244 481.001 229.489 480.062 227.285 479.001L222.631 476.919C220.345 475.858 218.427 474.674 216.876 473.368C215.324 471.98 214.059 470.347 213.079 468.47C212.181 466.592 211.528 464.429 211.12 461.98C210.712 459.449 210.508 456.51 210.508 453.163V451.693C210.508 444.427 212.386 438.876 216.141 435.039C219.896 431.202 225.244 429.283 232.183 429.283C239.285 429.283 244.755 431.243 248.592 435.161C252.511 438.998 254.47 444.509 254.47 451.693V460.877H237.326ZM301.929 430.508V516.228H284.663V479.736H275.846V516.228H258.702V430.508H275.846V464.796H284.663V430.508H301.929ZM305.813 451.571C305.813 443.978 307.773 438.386 311.691 434.794C315.691 431.12 321.039 429.283 327.733 429.283C334.591 429.283 340.02 431.161 344.02 434.916C348.102 438.59 350.143 444.142 350.143 451.571V495.043C350.143 502.554 348.102 508.187 344.02 511.942C340.02 515.616 334.591 517.453 327.733 517.453C321.039 517.453 315.691 515.616 311.691 511.942C307.773 508.268 305.813 502.635 305.813 495.043V451.571ZM322.957 496.268C322.957 498.635 323.447 500.309 324.427 501.288C325.488 502.186 326.672 502.635 327.978 502.635C329.366 502.635 330.55 502.186 331.529 501.288C332.509 500.309 332.999 498.635 332.999 496.268V450.469C332.999 448.101 332.509 446.468 331.529 445.57C330.55 444.672 329.366 444.223 327.978 444.223C326.672 444.223 325.488 444.672 324.427 445.57C323.447 446.468 322.957 448.101 322.957 450.469V496.268ZM375.314 430.508C382.58 430.508 388.132 432.916 391.969 437.733C395.806 442.55 397.724 450.06 397.724 460.265V460.51C397.724 465.735 397.234 470.143 396.255 473.735C395.357 477.328 393.969 480.226 392.091 482.43C390.295 484.634 387.968 486.226 385.111 487.206C382.335 488.185 379.029 488.675 375.192 488.675H371.273V516.228H354.129V430.508H375.314ZM371.273 473.858H375.192C377.151 473.858 378.539 473.327 379.356 472.266C380.172 471.123 380.58 469.286 380.58 466.755V452.918C380.58 450.224 380.172 448.305 379.356 447.162C378.539 446.019 377.151 445.448 375.192 445.448H371.273V473.858Z" fill="#DADADA"/>
</g>
<defs>
<filter id="filter0_d_690_91" x="0.287598" y="0.597656" width="944.421" height="548.63" filterUnits="userSpaceOnUse" color-interpolation-filters="sRGB">
<feFlood flood-opacity="0" result="BackgroundImageFix"/>
<feColorMatrix in="SourceAlpha" type="matrix" values="0 0 0 0 0 0 0 0 0 0 0 0 0 0 0 0 0 0 127 0" result="hardAlpha"/>
<feOffset dy="4"/>
<feGaussianBlur stdDeviation="2"/>
<feComposite in2="hardAlpha" operator="out"/>
<feColorMatrix type="matrix" values="0 0 0 0 0 0 0 0 0 0 0 0 0 0 0 0 0 0 0.25 0"/>
<feBlend mode="normal" in2="BackgroundImageFix" result="effect1_dropShadow_690_91"/>
<feBlend mode="normal" in="SourceGraphic" in2="effect1_dropShadow_690_91" result="shape"/>
</filter>
</defs>
</svg>
