<svg width="939" height="542" viewBox="0 0 939 542" fill="none" xmlns="http://www.w3.org/2000/svg">
<path d="M42.9826 17.84H30.3694V88.6204H13.2254V17.84H0.734745V2.90022H42.9826V17.84ZM89.4399 3.02268V88.7429H72.1734V52.2506H63.3564V88.7429H46.2124V3.02268H63.3564V37.3108H72.1734V3.02268H89.4399ZM110.591 17.84V36.3311H124.428V51.2709H110.591V73.8031H125.041V88.7429H93.4465V2.90022H124.673V17.84H110.591Z" fill="white"/>
<path d="M162.98 101.457C189.32 101.457 207.878 108.192 218.653 121.661C229.429 134.831 231.673 153.988 225.388 179.131L224.939 181.376C222.245 192.75 218.503 202.777 213.714 211.457C208.925 219.838 203.537 227.022 197.551 233.008C191.864 238.995 185.878 243.634 179.592 246.927C173.306 250.219 167.17 252.165 161.184 252.763L160.286 257.253C165.973 257.852 171.361 259.947 176.449 263.539C181.837 267.131 186.177 272.219 189.469 278.804C192.762 285.389 194.857 293.171 195.755 302.151C196.653 311.131 195.755 321.308 193.061 332.682L191.714 337.62C185.429 362.464 173.007 381.77 154.449 395.539C135.891 409.008 112.993 415.743 85.7551 415.743H8.08163L86.2041 101.457H162.98ZM117.633 227.62H130.653C137.537 227.62 142.925 225.974 146.816 222.682C151.007 219.09 154.15 213.253 156.245 205.171L162.531 179.131C164.626 171.049 164.776 165.212 162.98 161.62C161.184 158.029 156.694 156.233 149.51 156.233H135.592L117.633 227.62ZM84.4082 360.967H98.7755C112.844 360.967 121.823 352.886 125.714 336.722L133.347 305.294C135.742 296.913 135.742 291.076 133.347 287.784C130.952 284.192 125.864 282.396 118.082 282.396H104.163L84.4082 360.967ZM340.576 101.457C366.916 101.457 385.324 108.491 395.8 122.559C406.576 136.328 408.521 157.28 401.637 185.416L400.29 191.253C397.297 202.927 393.256 213.403 388.167 222.682C383.378 231.661 377.991 239.294 372.004 245.58C366.018 251.865 359.732 256.804 353.147 260.396C346.861 263.688 340.875 265.634 335.188 266.233L334.29 270.722C339.678 271.321 344.616 273.566 349.106 277.457C353.596 281.049 357.188 286.137 359.882 292.722C362.875 299.308 364.521 307.239 364.821 316.518C365.419 325.797 364.222 336.124 361.229 347.498L360.331 351.988C357.038 365.457 354.344 377.28 352.249 387.457C350.453 397.634 349.256 407.063 348.657 415.743H286.249C286.548 406.165 287.746 396.137 289.841 385.661C291.936 375.185 294.63 363.811 297.923 351.539L305.555 319.212C307.65 311.131 307.65 305.294 305.555 301.702C303.759 297.811 299.419 295.865 292.535 295.865H277.718L247.637 416.192H184.78L263.351 101.457H340.576ZM291.188 241.09H305.555C312.44 241.09 317.977 238.995 322.167 234.804C326.358 230.314 329.351 224.178 331.147 216.396L340.127 180.029C342.222 171.648 342.222 165.661 340.127 162.069C338.331 158.178 333.991 156.233 327.106 156.233H312.29L291.188 241.09ZM562.298 101.008L517.849 415.294H454.992L467.114 337.62H439.726L413.686 415.294H350.828L463.971 101.008H562.298ZM476.094 282.845L488.216 207.865H483.726L458.584 282.845H476.094ZM771.887 101.457L693.316 415.743H624.173L631.806 210.559H628.214L590.948 415.743H528.091L606.214 101.457H675.357L669.071 307.988H672.663L709.03 101.457H771.887ZM866.306 101.457C892.646 101.457 911.204 108.042 921.98 121.212C933.054 134.382 935.449 153.838 929.163 179.58L889.653 337.62C883.068 363.661 870.946 383.267 853.286 396.437C835.925 409.308 814.225 415.743 788.184 415.743H709.163L787.735 101.457H866.306ZM785.939 360.967H801.204C814.374 360.967 822.755 353.484 826.347 338.518L866.306 178.233C870.197 163.566 865.857 156.233 853.286 156.233H837.122L785.939 360.967Z" fill="#FF8FC4"/>
<path d="M17.7563 430.653L20.3279 486.984H21.5525L25.961 430.653H37.2271L41.6355 486.984H42.8601L45.4317 430.653H62.5758L54.4936 516.373H35.2677L31.9614 474.37H30.8593L27.5529 516.373H8.32711L0.612287 430.653H17.7563ZM64.1447 451.716C64.1447 444.123 66.1041 438.531 70.0227 434.939C74.023 431.265 79.3703 429.429 86.0646 429.429C92.9222 429.429 98.3512 431.306 102.351 435.062C106.433 438.735 108.474 444.287 108.474 451.716V495.188C108.474 502.699 106.433 508.332 102.351 512.087C98.3512 515.761 92.9222 517.598 86.0646 517.598C79.3703 517.598 74.023 515.761 70.0227 512.087C66.1041 508.414 64.1447 502.781 64.1447 495.188V451.716ZM81.2888 496.413C81.2888 498.78 81.7786 500.454 82.7583 501.434C83.8196 502.332 85.0033 502.781 86.3095 502.781C87.6974 502.781 88.8811 502.332 89.8608 501.434C90.8405 500.454 91.3303 498.78 91.3303 496.413V450.614C91.3303 448.246 90.8405 446.613 89.8608 445.715C88.8811 444.817 87.6974 444.368 86.3095 444.368C85.0033 444.368 83.8196 444.817 82.7583 445.715C81.7786 446.613 81.2888 448.246 81.2888 450.614V496.413ZM133.646 430.653C140.83 430.653 146.341 432.572 150.178 436.409C154.096 440.164 156.056 445.879 156.056 453.553V454.165C156.056 457.594 155.688 460.614 154.954 463.227C154.219 465.839 153.239 468.043 152.015 469.84C150.79 471.554 149.402 472.901 147.851 473.881C146.382 474.86 144.912 475.432 143.443 475.595V476.82C144.912 476.983 146.382 477.595 147.851 478.656C149.402 479.636 150.79 481.024 152.015 482.82C153.239 484.616 154.219 486.779 154.954 489.31C155.688 491.841 156.056 494.658 156.056 497.76V498.984C156.056 502.658 156.097 505.883 156.178 508.659C156.341 511.434 156.709 514.006 157.28 516.373H140.136C139.565 513.761 139.197 511.026 139.034 508.169C138.953 505.311 138.912 502.209 138.912 498.862V490.045C138.912 485.8 137.116 483.677 133.524 483.677H129.605V516.496H112.461V430.653H133.646ZM129.605 468.737H133.524C137.116 468.737 138.912 466.533 138.912 462.125V452.083C138.912 447.756 137.116 445.593 133.524 445.593H129.605V468.737ZM177.44 466.166H179.154L185.889 430.653H204.136L193.237 473.513L205.115 516.373H186.992L179.154 480.983H177.44V516.373H160.296V430.653H177.44V466.166ZM233.038 461.023V450.614C233.038 446.45 231.406 444.368 228.14 444.368C224.956 444.368 223.364 446.45 223.364 450.614V456.369C223.364 457.675 223.487 458.818 223.732 459.798C223.977 460.696 224.466 461.553 225.201 462.37C225.936 463.186 226.997 464.043 228.385 464.941C229.855 465.758 231.773 466.737 234.141 467.88L238.304 469.717C240.59 470.778 242.508 471.962 244.06 473.268C245.611 474.575 246.835 476.166 247.733 478.044C248.713 479.84 249.407 481.963 249.815 484.412C250.223 486.861 250.427 489.759 250.427 493.106V495.066C250.427 502.25 248.468 507.801 244.549 511.72C240.631 515.639 235.079 517.598 227.895 517.598C220.793 517.598 215.364 515.679 211.608 511.842C207.853 508.005 205.975 502.413 205.975 495.066V486.004H223.119V496.413C223.119 500.576 224.793 502.658 228.14 502.658C231.487 502.658 233.161 500.617 233.161 496.535V490.29C233.161 488.984 233.038 487.882 232.794 486.984C232.549 486.086 232.059 485.228 231.324 484.412C230.671 483.596 229.65 482.779 228.263 481.963C226.956 481.146 225.201 480.208 222.997 479.146L218.344 477.065C216.058 476.003 214.139 474.819 212.588 473.513C211.037 472.125 209.772 470.493 208.792 468.615C207.894 466.737 207.241 464.574 206.833 462.125C206.424 459.594 206.22 456.655 206.22 453.308V451.838C206.22 444.572 208.098 439.021 211.853 435.184C215.609 431.347 220.956 429.429 227.895 429.429C234.998 429.429 240.468 431.388 244.305 435.307C248.223 439.144 250.182 444.654 250.182 451.838V461.023H233.038ZM297.641 430.653V516.373H280.375V479.881H271.558V516.373H254.414V430.653H271.558V464.941H280.375V430.653H297.641ZM301.526 451.716C301.526 444.123 303.485 438.531 307.404 434.939C311.404 431.265 316.751 429.429 323.445 429.429C330.303 429.429 335.732 431.306 339.732 435.062C343.814 438.735 345.855 444.287 345.855 451.716V495.188C345.855 502.699 343.814 508.332 339.732 512.087C335.732 515.761 330.303 517.598 323.445 517.598C316.751 517.598 311.404 515.761 307.404 512.087C303.485 508.414 301.526 502.781 301.526 495.188V451.716ZM318.67 496.413C318.67 498.78 319.159 500.454 320.139 501.434C321.2 502.332 322.384 502.781 323.69 502.781C325.078 502.781 326.262 502.332 327.242 501.434C328.221 500.454 328.711 498.78 328.711 496.413V450.614C328.711 448.246 328.221 446.613 327.242 445.715C326.262 444.817 325.078 444.368 323.69 444.368C322.384 444.368 321.2 444.817 320.139 445.715C319.159 446.613 318.67 448.246 318.67 450.614V496.413ZM371.027 430.653C378.293 430.653 383.844 433.061 387.681 437.878C391.518 442.695 393.437 450.206 393.437 460.41V460.655C393.437 465.88 392.947 470.289 391.967 473.881C391.069 477.473 389.681 480.371 387.804 482.575C386.008 484.779 383.681 486.371 380.823 487.351C378.048 488.331 374.741 488.82 370.904 488.82H366.986V516.373H349.842V430.653H371.027ZM366.986 474.003H370.904C372.864 474.003 374.252 473.472 375.068 472.411C375.884 471.268 376.293 469.431 376.293 466.901V453.063C376.293 450.369 375.884 448.45 375.068 447.307C374.252 446.164 372.864 445.593 370.904 445.593H366.986V474.003Z" fill="white"/>
</svg>
