<svg width="186" height="255" viewBox="0 0 186 255" fill="none" xmlns="http://www.w3.org/2000/svg">
<path d="M300.73 70.9118C296.215 70.9118 291.852 71.5647 287.706 72.74C287.51 46.47 266.215 25.2059 239.95 25.2059C232.178 25.2059 224.863 27.0776 218.373 30.3859C203.286 13.8447 181.579 3.44116 157.462 3.44116C115.632 3.44116 81.0954 34.6518 75.7337 75.1123C71.3706 73.8065 66.7469 73.0882 61.9496 73.0882C35.5752 73.0882 14.1935 94.5265 14.1935 120.971C14.1935 126.151 15.0184 131.135 16.5379 135.814C8.35423 144.411 3.33984 156.034 3.33984 168.853C3.33984 195.297 24.7215 216.735 51.0959 216.735C57.8035 216.735 64.1855 215.342 69.9813 212.839C78.5557 225.681 93.143 234.147 109.706 234.147C118.584 234.147 126.898 231.709 134.018 227.487C148.931 242.374 169.488 251.559 192.193 251.559C237.757 251.559 274.681 214.537 274.681 168.853C274.681 165.349 274.443 161.888 274.008 158.493C281.628 163.673 290.832 166.676 300.73 166.676C327.104 166.676 348.486 145.238 348.486 118.794C348.486 92.35 327.104 70.9118 300.73 70.9118Z" fill="#BF8FFF" stroke="#BF8FFF" stroke-width="5" stroke-miterlimit="10"/>
</svg>
