<svg width="176" height="255" viewBox="0 0 176 255" fill="none" xmlns="http://www.w3.org/2000/svg">
<path d="M300.817 70.912C296.302 70.912 291.939 71.5649 287.793 72.7402C287.597 46.4702 266.302 25.2061 240.037 25.2061C232.265 25.2061 224.95 27.0779 218.46 30.3861C203.373 13.8449 181.666 3.44141 157.549 3.44141C115.719 3.44141 81.1824 34.652 75.8207 75.1126C71.4575 73.8067 66.8339 73.0885 62.0366 73.0885C35.6622 73.0885 14.2805 94.5267 14.2805 120.971C14.2805 126.151 15.1054 131.135 16.6249 135.814C8.44121 144.411 3.42682 156.034 3.42682 168.853C3.42682 195.297 24.8085 216.736 51.1829 216.736C57.8905 216.736 64.2724 215.343 70.0683 212.84C78.6427 225.681 93.23 234.147 109.793 234.147C118.671 234.147 126.985 231.71 134.105 227.487C149.018 242.374 169.575 251.559 192.28 251.559C237.844 251.559 274.768 214.537 274.768 168.853C274.768 165.349 274.53 161.888 274.095 158.493C281.715 163.673 290.919 166.677 300.817 166.677C327.191 166.677 348.573 145.238 348.573 118.794C348.573 92.3502 327.191 70.912 300.817 70.912Z" fill="#BF8FFF" stroke="#BF8FFF" stroke-width="5" stroke-miterlimit="10"/>
</svg>
