<svg width="376" height="275" viewBox="0 0 376 275" fill="none" xmlns="http://www.w3.org/2000/svg">
<path d="M4.33181 132.726C4.33181 101.112 29.9241 75.4977 61.5115 75.4977C74.2817 75.4977 86.0815 79.6945 95.5941 86.7699C101.399 78.2031 109.473 71.301 118.951 66.9136C118.795 65.1794 118.691 63.4105 118.691 61.6243C118.691 30.0103 144.284 4.39648 175.871 4.39648C199.193 4.39648 219.241 18.374 228.13 38.421C236.672 33.3399 246.635 30.4091 257.309 30.4091C288.896 30.4091 314.488 56.0229 314.488 87.637C346.076 87.637 371.668 113.251 371.668 144.865C371.668 176.479 346.076 202.093 314.488 202.093C314.159 202.093 313.847 202.075 313.518 202.075C314.142 205.457 314.488 208.943 314.488 212.498C314.488 244.112 288.896 269.726 257.309 269.726C231.82 269.726 210.248 253.043 202.849 229.978C192.47 240.591 178.002 247.181 162.009 247.181C138.358 247.181 118.05 232.805 109.352 212.307C107.862 212.428 106.354 212.498 104.829 212.498C86.2548 212.498 69.7593 203.636 59.311 189.901C28.7458 188.74 4.33181 163.594 4.33181 132.726Z" fill="white" stroke="#231F20" stroke-width="5" stroke-miterlimit="10"/>
</svg>
