<svg width="376" height="275" viewBox="0 0 376 275" fill="none" xmlns="http://www.w3.org/2000/svg">
<path d="M371.668 132.726C371.668 101.112 346.076 75.4977 314.488 75.4977C301.718 75.4977 289.919 79.6945 280.406 86.7699C274.601 78.2031 266.527 71.301 257.049 66.9136C257.205 65.1794 257.309 63.4105 257.309 61.6243C257.309 30.0103 231.716 4.39648 200.129 4.39648C176.807 4.39648 156.759 18.374 147.87 38.421C139.328 33.3399 129.365 30.4091 118.691 30.4091C87.1038 30.4091 61.5115 56.0229 61.5115 87.637C29.924 87.637 4.33179 113.251 4.33179 144.865C4.33179 176.479 29.924 202.093 61.5115 202.093C61.8407 202.093 62.1526 202.075 62.4818 202.075C61.8581 205.457 61.5115 208.943 61.5115 212.498C61.5115 244.112 87.1038 269.726 118.691 269.726C144.18 269.726 165.752 253.043 173.151 229.978C183.53 240.591 197.998 247.181 213.991 247.181C237.642 247.181 257.95 232.805 266.648 212.307C268.138 212.428 269.646 212.498 271.17 212.498C289.745 212.498 306.241 203.636 316.689 189.901C347.254 188.74 371.668 163.594 371.668 132.726Z" fill="white" stroke="#231F20" stroke-width="5" stroke-miterlimit="10"/>
</svg>
