<svg width="297" height="166" viewBox="0 0 297 166" fill="none" xmlns="http://www.w3.org/2000/svg">
<path d="M293.914 119.009C293.914 143.397 274.144 163.175 249.766 163.175C231.941 163.175 216.599 152.602 209.618 137.393C201.713 144.818 191.09 149.373 179.405 149.373C167.719 149.373 157.082 144.818 149.191 137.393C142.224 152.602 126.868 163.175 109.043 163.175C88.8181 163.175 71.7659 149.552 66.5509 130.989C60.6461 133.915 53.9963 135.571 46.9602 135.571C22.5821 135.571 2.81201 115.793 2.81201 91.406C2.81201 67.0184 22.5821 47.2407 46.9602 47.2407C46.9602 22.8532 66.7303 3.07539 91.1083 3.07539C108.933 3.07539 124.275 13.6475 131.256 28.8569C139.161 21.4316 149.784 16.877 161.469 16.877C170.492 16.877 178.88 19.5822 185.861 24.2333C193.615 11.5496 207.59 3.07539 223.553 3.07539C247.931 3.07539 267.701 22.8532 267.701 47.2407C267.701 58.006 263.852 67.8603 257.45 75.5203C278.159 79.1639 293.914 97.2441 293.914 119.009Z" fill="white" stroke="#231F20" stroke-width="5" stroke-miterlimit="10"/>
</svg>
