<svg width="196" height="255" viewBox="0 0 196 255" fill="none" xmlns="http://www.w3.org/2000/svg">
<path d="M144.991 70.912C140.476 70.912 136.113 71.5649 131.967 72.7402C131.771 46.4702 110.476 25.2061 84.2106 25.2061C76.4394 25.2061 69.124 27.0779 62.6336 30.3861C47.547 13.8449 25.8397 3.44141 1.72282 3.44141C-40.1072 3.44141 -74.6435 34.652 -80.0052 75.1126C-84.3684 73.8067 -88.992 73.0885 -93.7894 73.0885C-120.164 73.0885 -141.545 94.5267 -141.545 120.971C-141.545 126.151 -140.721 131.135 -139.201 135.814C-147.385 144.411 -152.399 156.034 -152.399 168.853C-152.399 195.297 -131.017 216.736 -104.643 216.736C-97.9355 216.736 -91.5535 215.343 -85.7577 212.84C-77.1833 225.681 -62.5959 234.147 -46.0333 234.147C-37.155 234.147 -28.8411 231.71 -21.7211 227.487C-6.80814 242.374 13.7487 251.559 36.4545 251.559C82.0182 251.559 118.942 214.537 118.942 168.853C118.942 165.349 118.704 161.888 118.269 158.493C125.889 163.673 135.093 166.677 144.991 166.677C171.366 166.677 192.747 145.238 192.747 118.794C192.747 92.3502 171.366 70.912 144.991 70.912Z" fill="#FFC2DF" stroke="#FFC2DF" stroke-width="5" stroke-miterlimit="10"/>
</svg>
