<svg width="377" height="275" viewBox="0 0 377 275" fill="none" xmlns="http://www.w3.org/2000/svg">
<path d="M5.13333 133.476C5.13333 101.862 30.7256 76.2477 62.313 76.2477C75.0832 76.2477 86.883 80.4445 96.3956 87.5199C102.2 78.9531 110.275 72.051 119.753 67.6636C119.597 65.9294 119.493 64.1605 119.493 62.3743C119.493 30.7603 145.085 5.14648 176.673 5.14648C199.995 5.14648 220.042 19.124 228.931 39.171C237.474 34.0899 247.437 31.1591 258.11 31.1591C289.698 31.1591 315.29 56.7729 315.29 88.387C346.877 88.387 372.47 114.001 372.47 145.615C372.47 177.229 346.877 202.843 315.29 202.843C314.961 202.843 314.649 202.825 314.32 202.825C314.943 206.207 315.29 209.693 315.29 213.248C315.29 244.862 289.698 270.476 258.11 270.476C232.622 270.476 211.05 253.793 203.651 230.728C193.272 241.341 178.804 247.931 162.811 247.931C139.159 247.931 118.852 233.555 110.153 213.057C108.663 213.178 107.156 213.248 105.631 213.248C87.0563 213.248 70.5608 204.386 60.1125 190.651C29.5473 189.49 5.13333 164.344 5.13333 133.476Z" fill="white" stroke="#231F20" stroke-width="5" stroke-miterlimit="10"/>
</svg>
