<svg width="357" height="260" viewBox="0 0 357 260" fill="none" xmlns="http://www.w3.org/2000/svg">
<g clip-path="url(#clip0_284_157)">
<path d="M303.566 73.1327C299.05 73.1327 294.687 73.7856 290.541 74.9609C290.346 48.6909 269.051 27.4268 242.785 27.4268C235.014 27.4268 227.699 29.2986 221.208 32.6068C206.121 16.0656 184.414 5.66211 160.297 5.66211C118.467 5.66211 83.931 36.8727 78.5692 77.3333C74.2061 76.0274 69.5824 75.3092 64.7851 75.3092C38.4107 75.3092 17.029 96.7474 17.029 123.192C17.029 128.372 17.8539 133.356 19.3734 138.035C11.1897 146.632 6.17535 158.254 6.17535 171.074C6.17535 197.518 27.5571 218.956 53.9314 218.956C60.639 218.956 67.021 217.563 72.8168 215.06C81.3912 227.902 95.9785 236.368 112.541 236.368C121.419 236.368 129.733 233.93 136.853 229.708C151.766 244.595 172.323 253.78 195.029 253.78C240.593 253.78 277.517 216.758 277.517 171.074C277.517 167.57 277.278 164.109 276.844 160.714C284.463 165.894 293.667 168.897 303.566 168.897C329.94 168.897 351.322 147.459 351.322 121.015C351.322 94.5709 329.94 73.1327 303.566 73.1327Z" fill="white" stroke="black" stroke-width="10" stroke-miterlimit="10"/>
</g>
<defs>
<clipPath id="clip0_284_157">
<rect width="356" height="259" fill="white" transform="translate(0.748535 0.220703)"/>
</clipPath>
</defs>
</svg>
