<svg width="297" height="166" viewBox="0 0 297 166" fill="none" xmlns="http://www.w3.org/2000/svg">
<path d="M294.084 118.557C294.084 142.945 274.314 162.722 249.936 162.722C232.111 162.722 216.769 152.15 209.788 136.941C201.883 144.366 191.26 148.921 179.575 148.921C167.889 148.921 157.252 144.366 149.361 136.941C142.393 152.15 127.038 162.722 109.213 162.722C88.988 162.722 71.9358 149.1 66.7208 130.537C60.816 133.463 54.1662 135.119 47.1301 135.119C22.752 135.119 2.98193 115.341 2.98193 90.9538C2.98193 66.5663 22.752 46.7885 47.1301 46.7885C47.1301 22.401 66.9002 2.62325 91.2782 2.62325C109.103 2.62325 124.445 13.1953 131.425 28.4047C139.331 20.9795 149.954 16.4249 161.639 16.4249C170.662 16.4249 179.05 19.13 186.031 23.7812C193.785 11.0975 207.76 2.62325 223.723 2.62325C248.101 2.62325 267.871 22.401 267.871 46.7885C267.871 57.5538 264.022 67.4082 257.62 75.0681C278.328 78.7118 294.084 96.7919 294.084 118.557Z" fill="#BF8FFF" stroke="#231F20" stroke-width="5" stroke-miterlimit="10"/>
</svg>
