<svg width="302" height="171" viewBox="0 0 302 171" fill="none" xmlns="http://www.w3.org/2000/svg">
<path d="M296.798 121.739C296.798 146.127 277.028 165.904 252.65 165.904C234.825 165.904 219.483 155.332 212.503 140.123C204.597 147.548 193.974 152.103 182.289 152.103C170.603 152.103 159.966 147.548 152.075 140.123C145.108 155.332 129.752 165.904 111.928 165.904C91.7022 165.904 74.6499 152.282 69.4349 133.719C63.5301 136.645 56.8803 138.301 49.8442 138.301C25.4661 138.301 5.69604 118.523 5.69604 94.1357C5.69604 69.7482 25.4661 49.9704 49.8442 49.9704C49.8442 25.5829 69.6143 5.80513 93.9923 5.80513C111.817 5.80513 127.159 16.3772 134.14 31.5866C142.045 24.1613 152.668 19.6068 164.353 19.6068C173.376 19.6068 181.764 22.3119 188.745 26.9631C196.499 14.2794 210.474 5.80513 226.437 5.80513C250.815 5.80513 270.585 25.5829 270.585 49.9704C270.585 60.7357 266.736 70.5901 260.334 78.25C281.043 81.8936 296.798 99.9738 296.798 121.739Z" fill="white" stroke="#231F20" stroke-width="10" stroke-miterlimit="10"/>
</svg>
