<svg width="345" height="264" viewBox="0 0 345 264" fill="none" xmlns="http://www.w3.org/2000/svg">
<path d="M15.0759 129.748C15.0759 105.702 35.1813 86.2201 59.9964 86.2201C70.0287 86.2201 79.2987 89.4122 86.7718 94.7938C91.3319 88.2778 97.6752 83.0281 105.121 79.691C104.999 78.3719 104.917 77.0265 104.917 75.6679C104.917 51.6221 125.022 32.1401 149.837 32.1401C168.16 32.1401 183.909 42.7715 190.892 58.0194C197.603 54.1547 205.43 51.9255 213.815 51.9255C238.63 51.9255 258.736 71.4075 258.736 95.4533C283.551 95.4533 303.656 114.935 303.656 138.981C303.656 163.027 283.551 182.509 258.736 182.509C258.477 182.509 258.232 182.496 257.973 182.496C258.463 185.068 258.736 187.719 258.736 190.423C258.736 214.469 238.63 233.951 213.815 233.951C193.792 233.951 176.844 221.262 171.032 203.719C162.878 211.791 151.512 216.804 138.948 216.804C120.367 216.804 104.413 205.869 97.5799 190.278C96.4093 190.37 95.225 190.423 94.0271 190.423C79.4348 190.423 66.4759 183.683 58.2677 173.236C34.2556 172.352 15.0759 153.227 15.0759 129.748Z" fill="white" stroke="#231F20" stroke-width="10" stroke-miterlimit="10"/>
</svg>
