<svg width="186" height="255" viewBox="0 0 186 255" fill="none" xmlns="http://www.w3.org/2000/svg">
<path d="M134.904 70.9118C130.389 70.9118 126.026 71.5647 121.88 72.74C121.684 46.47 100.389 25.2059 74.1237 25.2059C66.3524 25.2059 59.0371 27.0776 52.5466 30.3859C37.46 13.8447 15.7527 3.44116 -8.36415 3.44116C-50.1941 3.44116 -84.7305 34.6518 -90.0922 75.1123C-94.4554 73.8065 -99.079 73.0882 -103.876 73.0882C-130.251 73.0882 -151.632 94.5265 -151.632 120.971C-151.632 126.151 -150.808 131.135 -149.288 135.814C-157.472 144.411 -162.486 156.034 -162.486 168.853C-162.486 195.297 -141.104 216.735 -114.73 216.735C-108.022 216.735 -101.64 215.342 -95.8446 212.839C-87.2702 225.681 -72.6829 234.147 -56.1202 234.147C-47.2419 234.147 -38.928 231.709 -31.808 227.487C-16.8951 242.374 3.66171 251.559 26.3676 251.559C71.9312 251.559 108.855 214.537 108.855 168.853C108.855 165.349 108.617 161.888 108.182 158.493C115.802 163.673 125.006 166.676 134.904 166.676C161.279 166.676 182.66 145.238 182.66 118.794C182.66 92.35 161.279 70.9118 134.904 70.9118Z" fill="#FFC2DF" stroke="#FFC2DF" stroke-width="5" stroke-miterlimit="10"/>
</svg>
