<svg width="300" height="301" viewBox="0 0 300 301" fill="none" xmlns="http://www.w3.org/2000/svg">
<rect y="0.0316162" width="300" height="300" rx="30" fill="black"/>
<g clip-path="url(#clip0_911_1743)">
<path d="M127.692 87.5456C149.847 87.5456 167.871 105.788 167.871 128.37L167.871 171.693C167.871 194.276 149.847 212.518 127.692 212.518C105.538 212.518 87.5138 194.276 87.5138 171.693L87.5138 128.37C87.5138 105.788 105.538 87.5456 127.692 87.5456Z" stroke="#FFFFE3" stroke-width="4.99888"/>
<path d="M172.307 130.869C194.462 130.869 212.486 149.111 212.486 171.693C212.486 194.276 194.462 212.518 172.307 212.518C150.153 212.518 132.129 194.276 132.129 171.693C132.129 149.111 150.153 130.869 172.307 130.869Z" stroke="#FFFFE3" stroke-width="4.99888"/>
</g>
<defs>
<clipPath id="clip0_911_1743">
<rect width="129.971" height="129.971" fill="white" transform="translate(85.0144 85.0461)"/>
</clipPath>
</defs>
</svg>
