<svg width="292" height="80" viewBox="0 0 292 80" fill="none" xmlns="http://www.w3.org/2000/svg">
<path d="M214.745 7.62408C214.745 4.60836 217.252 2.16215 220.344 2.16215H284.913C288.006 2.16215 290.513 4.60836 290.513 7.62408V72.9482C290.513 75.965 288.006 78.4102 284.913 78.4102H220.344C217.252 78.4102 214.745 75.965 214.745 72.9482V7.62408Z" fill="#006699"/>
<path fill-rule="evenodd" clip-rule="evenodd" d="M2.64764 66.0303H34.2675V55.6494H14.0905V16.0436H2.64764V66.0303Z" fill="black"/>
<path fill-rule="evenodd" clip-rule="evenodd" d="M50.2763 66.0303V31.6011H38.8324V66.0303H50.2763ZM44.5544 26.9002C48.5451 26.9002 51.029 24.2563 51.029 20.9502C50.9546 17.5728 48.5451 15.0033 44.6305 15.0033C40.7153 15.0033 38.1558 17.5728 38.1558 20.9502C38.1558 24.2563 40.6392 26.9002 44.4797 26.9002H44.5544Z" fill="black"/>
<path fill-rule="evenodd" clip-rule="evenodd" d="M55.5898 66.0303H67.0338V46.803C67.0338 45.774 67.1081 44.746 67.4108 44.0104C68.2376 41.9554 70.1205 39.826 73.282 39.826C77.4234 39.826 79.0801 42.9844 79.0801 47.6099V66.0303H90.5229V46.2885C90.5229 35.713 84.8766 30.7921 77.3473 30.7921C71.1742 30.7921 68.4635 34.2429 66.9575 36.5933H67.034V31.6011H55.59C55.7403 34.8318 55.5898 66.0303 55.5898 66.0303Z" fill="black"/>
<path fill-rule="evenodd" clip-rule="evenodd" d="M106.667 16.0436H95.2225V66.0303H106.667V54.868L109.527 51.2675L118.486 66.0303H132.564L117.508 44.6583L130.683 30.1176H116.906C116.906 30.1176 107.495 43.127 106.667 44.6695V16.0436Z" fill="black"/>
<path fill-rule="evenodd" clip-rule="evenodd" d="M163.169 51.6687C163.319 50.7844 163.545 49.088 163.545 47.1706C163.545 38.2701 159.027 29.2352 147.132 29.2352C134.409 29.2352 128.536 39.2981 128.536 48.4248C128.536 59.7134 135.689 66.7637 148.186 66.7637C153.155 66.7637 157.747 66.0301 161.512 64.4876L160.006 56.93C156.919 57.9539 153.757 58.4653 149.843 58.4653C144.497 58.4653 139.83 56.2718 139.453 51.5954L163.169 51.6667V51.6687ZM139.378 43.9267C139.679 40.9884 141.637 36.6543 146.531 36.6543C151.724 36.6543 152.93 41.2828 152.93 43.9267H139.378Z" fill="black"/>
<path fill-rule="evenodd" clip-rule="evenodd" d="M191.792 16.0432V33.347H191.642C189.985 30.9253 186.521 29.3094 181.93 29.3094C173.121 29.3094 165.367 36.3597 165.442 48.4032C165.442 59.5675 172.444 66.8379 181.177 66.8379C185.92 66.8379 190.437 64.7809 192.695 60.8146H192.922L193.373 66.03H203.538C203.387 63.6062 203.235 59.4198 203.235 55.3078V16.0432H191.792ZM191.792 50.0935C191.792 50.9737 191.717 51.856 191.566 52.5896C190.889 55.748 188.178 57.9507 184.866 57.9507C180.123 57.9507 177.036 54.1321 177.036 48.1098C177.036 42.4553 179.672 37.9022 184.941 37.9022C188.479 37.9022 190.964 40.325 191.642 43.3356C191.792 43.9978 191.792 44.7324 191.792 45.3926V50.0935Z" fill="black"/>
<path fill-rule="evenodd" clip-rule="evenodd" d="M237.713 65.9893V31.559H226.269V65.9893H237.713ZM231.991 26.8582C235.981 26.8582 238.465 24.2143 238.465 20.9102C238.391 17.5318 235.981 14.9613 232.066 14.9613C228.152 14.9613 225.592 17.5318 225.592 20.9102C225.592 24.2143 228.076 26.8582 231.916 26.8582H231.991Z" fill="white"/>
<path fill-rule="evenodd" clip-rule="evenodd" d="M244.045 65.9893H255.489V46.762C255.489 45.7329 255.563 44.7049 255.865 43.9694C256.693 41.9134 258.576 39.784 261.737 39.784C265.878 39.784 267.535 42.9414 267.535 47.5699V65.9893H278.978V46.2474C278.978 35.672 273.332 30.7511 265.802 30.7511C259.629 30.7511 256.918 34.2019 255.413 36.5523H255.489V31.559H244.045C244.195 34.7897 244.045 65.9893 244.045 65.9893Z" fill="white"/>
</svg>
