<svg width="259" height="48" viewBox="0 0 259 48" fill="none" xmlns="http://www.w3.org/2000/svg">
<path d="M0.846741 0.358398H19.7467C23.3467 0.358398 26.0467 1.2584 28.0467 2.7584C30.2467 4.5584 31.4467 7.1584 31.4467 10.3584C31.4467 14.0584 29.9467 16.3584 26.9467 17.7584V17.9584C30.9467 19.2584 33.2467 22.8584 33.2467 27.1584C33.2467 31.2584 31.6467 34.4584 29.0467 36.4584C26.8467 38.0584 24.0467 38.7584 20.2467 38.7584H0.846741V0.358398ZM17.8467 15.3584C19.8467 15.3584 21.3467 14.2584 21.3467 11.9584C21.3467 9.7584 19.8467 8.6584 17.7467 8.6584H11.2467V15.2584H17.8467V15.3584ZM18.7467 30.2584C21.0467 30.2584 22.7467 28.8584 22.7467 26.3584C22.7467 23.6584 20.9467 22.4584 18.7467 22.4584H11.3467V30.3584H18.7467V30.2584Z" fill="black"/>
<path d="M34.9467 0.358398H44.8467V38.8584H34.9467V0.358398Z" fill="black"/>
<path d="M46.8467 25.1582C46.8467 16.4582 52.4467 10.6582 61.1467 10.6582C69.8467 10.6582 75.3467 16.5582 75.3467 25.1582C75.3467 33.8582 69.8467 39.6582 61.1467 39.6582C52.4467 39.6582 46.8467 33.8582 46.8467 25.1582ZM65.4467 25.1582C65.4467 20.3582 63.9467 17.3582 60.9467 17.3582C57.9467 17.3582 56.5467 20.3582 56.5467 25.1582C56.5467 29.9582 57.9467 33.0582 60.9467 33.0582C63.9467 32.9582 65.4467 29.9582 65.4467 25.1582Z" fill="black"/>
<path d="M76.4467 25.1582C76.4467 16.4582 82.0467 10.6582 90.7467 10.6582C99.4467 10.6582 104.847 16.4582 104.847 25.1582C104.847 33.8582 99.3467 39.6582 90.6467 39.6582C82.0467 39.6582 76.4467 33.8582 76.4467 25.1582ZM95.0467 25.1582C95.0467 20.3582 93.5467 17.3582 90.5467 17.3582C87.5467 17.3582 86.1467 20.3582 86.1467 25.1582C86.1467 29.9582 87.5467 33.0582 90.5467 33.0582C93.5467 32.9582 95.0467 29.9582 95.0467 25.1582Z" fill="black"/>
<path d="M106.847 11.3586H116.047V15.4586H116.247C118.047 12.2586 120.547 10.5586 124.547 10.5586C128.047 10.5586 130.647 12.2586 131.947 15.2586H132.147C134.347 11.6586 137.247 10.5586 140.647 10.5586C147.047 10.5586 149.747 15.2586 149.747 21.5586V38.7586H140.147V23.2586C140.147 20.4586 139.247 18.6586 136.847 18.6586C134.447 18.6586 133.247 20.8586 133.247 23.8586V38.7586H123.647V23.2586C123.647 20.4586 122.747 18.6586 120.347 18.6586C117.947 18.6586 116.747 20.8586 116.747 23.8586V38.7586H106.847V11.3586Z" fill="black"/>
<path d="M161.847 35.1584H161.747V38.7584H152.547V0.358398H162.147V14.1584H162.347C164.147 11.7584 166.647 10.4584 170.147 10.4584C177.047 10.4584 181.047 16.6584 181.047 24.9584C181.047 34.2584 176.747 39.6584 169.547 39.6584C166.547 39.6584 163.447 38.2584 161.847 35.1584ZM171.147 24.8584C171.147 20.4584 169.547 17.5584 166.647 17.5584C163.647 17.5584 161.847 20.4584 161.847 24.8584C161.847 29.2584 163.747 32.1584 166.647 32.1584C169.547 32.1584 171.147 29.3584 171.147 24.8584Z" fill="black"/>
<path d="M182.147 25.0586C182.147 16.4586 187.847 10.5586 196.047 10.5586C200.147 10.5586 203.247 11.8586 205.647 14.1586C208.847 17.2586 210.247 22.0586 210.147 27.6586H191.747C192.147 31.0586 193.747 32.8586 196.647 32.8586C198.347 32.8586 199.847 32.0586 200.447 30.2586H209.747C208.147 36.5586 203.247 39.6586 196.347 39.6586C187.847 39.5586 182.147 33.7586 182.147 25.0586ZM191.747 22.1586H200.547C200.347 18.8586 198.547 17.1586 196.247 17.1586C193.547 17.0586 192.047 18.9586 191.747 22.1586Z" fill="black"/>
<path d="M221.047 16.0588H221.247C223.247 12.2588 225.847 10.7588 229.147 10.7588C229.947 10.7588 230.447 10.8588 230.747 11.0588V19.4588H230.547C224.847 18.4588 221.547 21.1588 221.547 27.3588V38.8588H211.847V11.3588H221.047V16.0588Z" fill="black"/>
<path d="M231.747 38.858H241.047C241.447 40.058 242.647 41.158 244.947 41.158C248.047 41.158 249.147 39.258 249.147 36.358V34.358H248.947C247.447 36.158 245.347 37.458 242.347 37.458C236.447 37.458 231.247 33.058 231.247 24.458C231.247 16.558 235.447 10.458 241.847 10.458C245.547 10.458 247.747 11.958 249.247 14.258H249.447V11.258H258.647V35.058C258.647 39.458 257.147 42.858 254.847 44.858C252.447 46.958 249.047 47.858 245.147 47.858C237.747 47.958 232.647 44.958 231.747 38.858ZM249.547 24.058C249.547 20.658 247.947 17.858 245.147 17.858C242.447 17.858 240.747 20.258 240.747 24.058C240.747 27.758 242.447 30.358 245.147 30.358C247.847 30.358 249.547 27.658 249.547 24.058Z" fill="black"/>
</svg>
