<svg width="258" height="70" viewBox="0 0 258 70" fill="none" xmlns="http://www.w3.org/2000/svg">
<path d="M146.452 23.8014C146.452 16.3484 146.581 9.40937 146.966 2.98438L127.306 6.71088V8.50988L129.233 8.76687C130.647 8.89537 131.546 9.40937 132.06 10.1804C132.574 11.0799 132.96 12.3649 133.217 14.2924C133.474 18.0189 133.731 26.4999 133.602 39.8639C133.602 53.0994 133.474 61.4519 133.217 64.6644C140.284 66.2064 145.81 66.8489 149.922 66.8489C157.632 66.8489 163.671 64.6644 168.04 60.1669C172.409 55.7979 174.722 49.6299 174.722 42.0484C174.722 36.0089 173.052 30.9974 169.711 27.0139C166.37 23.0304 162.129 21.1029 157.118 21.1029C153.777 21.1029 150.307 22.0024 146.452 23.8014ZM146.838 63.3794C146.581 59.2674 146.324 46.9314 146.324 26.7569C147.48 26.3714 149.022 26.1144 150.95 26.1144C154.034 26.1144 156.475 27.6564 158.274 30.8689C160.073 34.0814 160.973 37.9364 160.973 42.8194C160.973 48.8589 159.945 53.7419 157.889 57.8539C155.833 61.8374 153.263 63.8934 150.05 63.8934C149.022 63.6364 147.994 63.5079 146.838 63.3794ZM53.5469 4.26937H2.14694V6.83937L4.84544 7.09637C6.90144 7.48187 8.31494 8.25287 9.21444 9.40937C10.1139 10.6944 10.6279 12.7504 10.7564 15.5774C11.7844 29.4554 11.7844 42.4339 10.7564 54.3844C10.4994 57.2114 9.98544 59.2674 9.21444 60.5524C8.31494 61.8374 6.90144 62.6084 4.84544 62.8654L2.14694 63.2509V65.8209H35.2999V63.2509L31.8304 62.9939C30.9838 62.923 30.1603 62.6816 29.4095 62.2841C28.6586 61.8866 27.996 61.3412 27.4614 60.6809C26.5619 59.3959 26.0479 57.3399 25.9194 54.5129C25.5339 49.3729 25.2769 43.4619 25.2769 36.9084L32.2159 37.0369C35.9424 37.1654 38.5124 39.9924 39.7974 45.6464H42.3674V24.7009H39.7974C38.5124 30.2264 36.0709 33.0534 32.2159 33.1819L25.2769 33.3104C25.2769 21.7454 25.5339 13.5214 25.9194 8.50988H36.0709C43.2669 8.50988 48.1499 13.1359 50.9769 22.3879L54.0609 21.4884L53.5469 4.26937ZM47.5074 43.8474C47.5074 50.5294 49.4349 56.0549 53.1614 60.4239C56.8879 64.7929 62.4134 66.8489 69.3524 66.8489C76.2914 66.8489 81.9454 64.6644 86.0574 60.1669C90.1694 55.7979 92.0969 50.2724 92.0969 43.5904C92.0969 36.9084 90.1694 31.3829 86.4429 27.0139C82.7164 22.6449 77.1909 20.5889 70.2519 20.5889C63.3129 20.5889 57.6589 22.7734 53.5469 27.2709C49.4349 31.6399 47.5074 37.1654 47.5074 43.8474ZM76.1629 29.1984C77.7049 32.9249 78.3474 37.8079 78.3474 43.7189C78.3474 57.3399 75.5204 64.0219 69.9949 64.0219C67.1679 64.0219 64.9834 62.0944 63.4414 58.2394C61.8994 54.3844 61.2569 49.5014 61.2569 43.7189C61.2569 30.2264 64.0839 23.5444 69.6094 23.5444C72.4364 23.4159 74.6209 25.3434 76.1629 29.1984ZM184.745 60.4239C188.986 64.6644 194.383 66.8489 200.808 66.8489C204.791 66.8489 208.261 66.0779 211.345 64.4074C214.429 62.8654 216.87 60.9379 218.541 58.6249L217.256 57.0829C214.429 59.2674 211.216 60.2954 207.49 60.2954C202.35 60.2954 198.366 58.6249 195.668 55.1554C192.841 51.6859 191.556 47.3169 191.813 41.6629H219.312C219.312 35.4949 217.77 30.4834 214.557 26.4999C211.345 22.6449 206.847 20.7174 201.065 20.7174C193.869 20.7174 188.343 23.0304 184.36 27.5279C180.376 32.0254 178.449 37.5509 178.449 44.1044C178.449 50.7864 180.505 56.1834 184.745 60.4239ZM194.254 28.1704C195.668 25.0864 197.467 23.5444 199.908 23.5444C203.763 23.5444 205.691 28.4274 205.691 38.3219L192.07 38.5789C192.198 34.7239 192.841 31.2544 194.254 28.1704ZM253.878 23.0304C250.409 21.4884 246.04 20.5889 240.771 20.5889C235.374 20.5889 231.134 22.0024 227.921 24.7009C224.709 27.3994 223.038 30.7404 223.038 34.7239C223.038 38.1934 224.066 40.8919 225.994 42.8194C227.921 44.7469 231.005 46.4174 234.989 47.8309C238.587 49.1159 241.157 50.4009 242.442 51.5574C243.727 52.8424 244.498 54.2559 244.498 56.1834C244.498 57.9824 243.855 59.6529 242.442 60.9379C241.157 62.3514 239.358 62.9939 237.045 62.9939C231.391 62.9939 227.15 58.8819 224.195 50.6579L222.01 51.3004L222.524 64.1504C227.15 65.9494 232.29 66.8489 237.944 66.8489C243.855 66.8489 248.353 65.5639 251.694 62.8654C255.035 60.2954 256.705 56.5689 256.705 51.9429C256.705 48.8589 255.934 46.2889 254.264 44.3614C252.593 42.4339 249.895 40.7634 246.04 39.2214C241.799 37.6794 238.844 36.2659 237.302 34.9809C235.76 33.6959 234.989 32.1539 234.989 30.2264C234.989 28.2989 235.503 26.7569 236.659 25.4719C237.816 24.1869 239.229 23.6729 241.028 23.6729C246.168 23.6729 249.895 27.3994 252.208 34.7239L254.392 34.0814L253.878 23.0304ZM130.261 21.8739C128.462 20.9744 126.535 20.5889 124.35 20.5889C122.166 20.5889 119.981 21.4884 117.54 23.2874C115.098 25.0864 113.299 27.5279 111.886 30.8689L112.014 20.5889L92.4824 24.4439V26.2429L94.4099 26.3714C96.8514 26.6284 98.2649 28.5559 98.5219 32.0254C99.2929 39.9924 99.2929 48.4734 98.5219 57.4684C98.2649 60.9379 96.8514 62.7369 94.4099 63.1224L92.4824 63.3794V65.8209H119.724V63.3794L116.255 63.1224C113.813 62.8654 112.4 60.9379 112.143 57.4684C111.372 50.0154 111.243 42.0484 111.886 33.8244C112.657 32.5394 114.327 31.7684 116.897 31.5114C119.467 31.2544 122.423 32.0254 125.507 33.8244L130.261 21.8739Z" fill="black"/>
</svg>
