<svg width="198" height="74" viewBox="0 0 198 74" fill="none" xmlns="http://www.w3.org/2000/svg">
<g clip-path="url(#clip0_817_32)">
<path d="M20.5375 19.6583H0.646729L0.646729 1.40918H62.4652V19.6583H42.5702V72.8997H20.5375V19.6583ZM65.886 1.40918H125.994V19.6583H87.9205V28.4611H125.994V45.6335H87.9205V54.6506H125.994V72.8997H65.886V1.40918ZM129.628 1.40918H165.778C189.523 1.40918 197.862 19.0143 197.862 37.0485C197.862 58.9461 186.309 72.8997 161.499 72.8997H129.628V1.40918ZM151.662 54.6506H160.215C173.904 54.6506 175.833 43.4891 175.833 36.8343C175.833 32.3239 174.336 19.8731 158.504 19.8731H151.443L151.662 54.6506Z" fill="#E62B1E"/>
</g>
<defs>
<clipPath id="clip0_817_32">
<rect width="197.215" height="72.434" fill="white" transform="translate(0.646729 0.892578)"/>
</clipPath>
</defs>
</svg>
