<svg id="Layer_1" data-name="Layer 1" xmlns="http://www.w3.org/2000/svg" viewBox="0 0 652 183.18"><title>Dribbble logo - Brandlogos.net</title><path d="M699.51,391.54a3.2,3.2,0,0,1,5.06.18h0l4.76,6.51a3.52,3.52,0,0,1,0,4.2c-8.27,10.73-22.75,21-40.23,22-13.8.78-25.18-4.44-31.37-14.32a3.18,3.18,0,0,0-5.31-.22c-7.35,9.87-16.24,17.58-25.51,18.11-16.5.94-21.16-10.13-17.08-34.53a3.32,3.32,0,0,0-4-3.88,31.34,31.34,0,0,1-10.74,1,3.28,3.28,0,0,0-3.43,2.32c-6.11,20.06-20.64,38.72-39.45,39.8-12,.69-29.95-6.19-28.15-34.94a3.3,3.3,0,0,0-4.11-3.53,31.82,31.82,0,0,1-12,1.33,3.27,3.27,0,0,0-3.42,2.32c-6.11,20.06-20.64,38.72-39.45,39.8-12,.69-29.95-6.19-28.15-34.94a3.3,3.3,0,0,0-4.11-3.53,31.64,31.64,0,0,1-12,1.33,3.27,3.27,0,0,0-3.42,2.32C391.3,423,376.77,441.64,358,442.72c-8.54.49-20.1-2.86-25.4-15.18a3.21,3.21,0,0,0-5.6-.67C319.52,437,310.48,445,301,445.55c-9.68.56-15-3.33-17.28-10.26a3.21,3.21,0,0,0-5.53-1.09c-6.61,7.77-14.14,13.47-21.76,13.9-11.74.68-18.5-8-19.06-18.57-.64-12.3,4.68-26.71,10.62-42.43a3.4,3.4,0,0,0-2.92-4.65,80.29,80.29,0,0,1-11-1.19,3.26,3.26,0,0,0-3.74,2.4c-7,25.09-17.79,49.68-26.87,64.22a3.19,3.19,0,0,1-4.64.94l-6.93-5.1a3.49,3.49,0,0,1-.86-4.61c13.12-21,24.77-53.92,28.78-78.26a3.3,3.3,0,0,1,3-2.8l9.22-.53a3.36,3.36,0,0,1,3.4,4l0,.23a3.39,3.39,0,0,0,2.81,4c8.27,1.14,20.63,1.28,29,.95a3.38,3.38,0,0,1,3.17,4.63c-6.73,17.9-15.74,42.7-15.23,52.52.24,4.43,2.19,6.86,5.64,6.66,6.59-.38,16.72-13.62,24.4-28.37a3.18,3.18,0,0,0,.31-.84c2.59-11.55,6.43-24.43,10.31-37.44l.24-.81a3.29,3.29,0,0,1,2.94-2.39l11-.63a3.37,3.37,0,0,1,3.29,4.43l-1.7,5.56c-9.72,31.85-17.88,58.6-6.89,58,7.18-.41,17.36-12.6,26.12-29.95a3.64,3.64,0,0,0,.31-.91c.44-2.27,1-4.64,1.63-7.12,5.11-20.39,10.89-40.59,16.69-60.82q2.68-9.36,5.35-18.74a3.3,3.3,0,0,1,3-2.44l11.34-.65a3.37,3.37,0,0,1,3.28,4.47c-4.53,14.2-9.26,29.33-13.76,43.89a3.31,3.31,0,0,0,4.94,3.85,29.63,29.63,0,0,1,14.65-5.37c12.76-.73,21.44,9.77,22.27,25.58,0,.83.1,1.73.12,2.65a3.37,3.37,0,0,0,3,3.31,22.27,22.27,0,0,0,16.88-5.48,3.32,3.32,0,0,0,1-1.66c4.7-18.25,9.89-36.37,15.08-54.51q2.67-9.31,5.32-18.64a3.3,3.3,0,0,1,3-2.44l11.33-.65a3.38,3.38,0,0,1,3.29,4.47c-4.53,14.2-9.26,29.33-13.76,43.89a3.31,3.31,0,0,0,4.94,3.85,29.65,29.65,0,0,1,14.65-5.37c12.76-.73,21.44,9.77,22.28,25.58,0,.83.09,1.73.12,2.65a3.37,3.37,0,0,0,3,3.31,22.28,22.28,0,0,0,16.88-5.48,3.34,3.34,0,0,0,1-1.66c4.7-18.25,9.89-36.37,15.08-54.51q2.67-9.32,5.32-18.65a3.3,3.3,0,0,1,3-2.44l11.34-.65a3.37,3.37,0,0,1,3.28,4.47c-4.53,14.2-9.26,29.33-13.75,43.89a3.31,3.31,0,0,0,4.94,3.85,29.62,29.62,0,0,1,14.65-5.37c12.76-.73,21.44,9.77,22.28,25.58,0,.84.09,1.73.11,2.65a3.38,3.38,0,0,0,3,3.31,22.32,22.32,0,0,0,16.42-5.07,3.32,3.32,0,0,0,1.05-1.72c5.35-20.63,13.21-47.66,20.79-73.53a3.29,3.29,0,0,1,2.95-2.4l11.23-.65a3.37,3.37,0,0,1,3.3,4.41c-10.43,34.64-18.94,64.94-23.63,82.81-6.23,24.25-6.48,31.24.61,30.83,6-.34,14-8.79,21.53-21.55a3.48,3.48,0,0,0,.48-1.65c1-25.55,16.65-48.79,39.94-50.12,15.6-.89,24.14,10.89,24.75,22.48,1.16,22.13-20.71,36.27-41.91,35a3.37,3.37,0,0,0-3.18,4.8c3,6.33,9.2,9.87,19.84,9.25C682.21,408.07,692.82,399.33,699.51,391.54Zm-350.43,6.21c-5,20.17,1.08,28.06,9,27.61,13-.74,25.51-24.51,24.55-42.85-.43-8-5.11-12.18-10.58-11.87C362.92,371.16,353.11,381.66,349.09,397.75Zm87.1-5c-5,20.16,1.08,28.06,9,27.61h0c13-.74,25.52-24.51,24.56-42.85-.42-8-5.11-12.18-10.58-11.87C450,366.17,440.21,376.67,436.18,392.76Zm87.1-5c-5,20.17,1.08,28.06,9,27.61h0c13-.74,25.52-24.51,24.56-42.85-.42-8-5.11-12.18-10.58-11.87C537.12,361.18,527.31,371.68,523.29,387.77Zm157.48-26.36c-.08-5.28-3.33-9.11-8.59-8.81h0c-10.35.6-18.44,11.8-21,25.38a3.39,3.39,0,0,0,3.28,4.12C667.8,381.77,681.19,373,680.77,361.41ZM195.7,371.22c-1.35-40.94-28-68-67.32-66.56-16.89.77-36.22,7.17-50.76,18.63a3.5,3.5,0,0,0-.79,4.56l6.17,10a3.2,3.2,0,0,0,4.83.79,70.65,70.65,0,0,1,40.71-15.86c27-1.12,46.77,16.14,47.92,49.48,1.45,38.83-24.65,83.24-66.58,85.64-1.46.08-3,.11-4.51.11a3.38,3.38,0,0,1-3.18-4.25c8.09-32.65,17.53-67.66,27.16-100.24a3.37,3.37,0,0,0-3.3-4.39l-12.26.7a3.3,3.3,0,0,0-3,2.41c-9.25,32-18.51,66.75-26.84,99.33A3.25,3.25,0,0,1,79.81,454a64.88,64.88,0,0,1-11.7-5.14,3.2,3.2,0,0,0-4.5,1.46l-5.27,11a3.47,3.47,0,0,0,1.33,4.5c11.94,6.77,30.07,10.64,48.29,9.6,60-3.44,89.33-58.82,87.74-104.19Zm117.83-50.31c-7.29.42-13.76,8.61-13.31,17.25.3,5.69,4,9.5,9.63,9.18,7.29-.42,13.94-9,13.51-17.27C323.07,324.38,318.8,320.61,313.54,320.91Z" transform="translate(-58 -292.41)" style="fill:#0d0c22"/></svg>