<svg width="2001" height="2000" viewBox="0 0 2001 2000" fill="none" xmlns="http://www.w3.org/2000/svg">
<rect x="0.138428" width="2000" height="2000" fill="#050505"/>
<path d="M1.98682 1903.09H1998.29" stroke="#DEDEDE" stroke-opacity="0.05" stroke-width="2" stroke-miterlimit="10"/>
<path d="M1.98682 1808.02H1998.29" stroke="#DEDEDE" stroke-opacity="0.05" stroke-width="2" stroke-miterlimit="10"/>
<path d="M1.98682 1712.96H1998.29" stroke="#DEDEDE" stroke-opacity="0.05" stroke-width="2" stroke-miterlimit="10"/>
<path d="M1.98682 1617.91H1998.29" stroke="#DEDEDE" stroke-opacity="0.05" stroke-width="2" stroke-miterlimit="10"/>
<path d="M1.98682 1522.85H1998.29" stroke="#DEDEDE" stroke-opacity="0.05" stroke-width="2" stroke-miterlimit="10"/>
<path d="M1.98682 1427.78H1998.29" stroke="#DEDEDE" stroke-opacity="0.05" stroke-width="2" stroke-miterlimit="10"/>
<path d="M1.98682 1332.72H1998.29" stroke="#DEDEDE" stroke-opacity="0.05" stroke-width="2" stroke-miterlimit="10"/>
<path d="M1.98682 1237.65H1998.29" stroke="#DEDEDE" stroke-opacity="0.05" stroke-width="2" stroke-miterlimit="10"/>
<path d="M1.98682 1142.59H1998.29" stroke="#DEDEDE" stroke-opacity="0.05" stroke-width="2" stroke-miterlimit="10"/>
<path d="M1.98682 1047.53H1998.29" stroke="#DEDEDE" stroke-opacity="0.05" stroke-width="2" stroke-miterlimit="10"/>
<path d="M1.98682 952.475H1998.29" stroke="#DEDEDE" stroke-opacity="0.05" stroke-width="2" stroke-miterlimit="10"/>
<path d="M1.98682 857.41H1998.29" stroke="#DEDEDE" stroke-opacity="0.05" stroke-width="2" stroke-miterlimit="10"/>
<path d="M1.98682 762.348H1998.29" stroke="#DEDEDE" stroke-opacity="0.05" stroke-width="2" stroke-miterlimit="10"/>
<path d="M1.98682 667.283H1998.29" stroke="#DEDEDE" stroke-opacity="0.05" stroke-width="2" stroke-miterlimit="10"/>
<path d="M1.98682 572.219H1998.29" stroke="#DEDEDE" stroke-opacity="0.05" stroke-width="2" stroke-miterlimit="10"/>
<path d="M1.98682 477.154H1998.29" stroke="#DEDEDE" stroke-opacity="0.05" stroke-width="2" stroke-miterlimit="10"/>
<path d="M1.98682 382.09H1998.29" stroke="#DEDEDE" stroke-opacity="0.05" stroke-width="2" stroke-miterlimit="10"/>
<path d="M1.98682 287.041H1998.29" stroke="#DEDEDE" stroke-opacity="0.05" stroke-width="2" stroke-miterlimit="10"/>
<path d="M1.98682 191.977H1998.29" stroke="#DEDEDE" stroke-opacity="0.05" stroke-width="2" stroke-miterlimit="10"/>
<path d="M1.98682 96.9121H1998.29" stroke="#DEDEDE" stroke-opacity="0.05" stroke-width="2" stroke-miterlimit="10"/>
<path d="M1903.23 1.84766V1998.15" stroke="#DEDEDE" stroke-opacity="0.05" stroke-width="2" stroke-miterlimit="10"/>
<path d="M1808.16 1.84766V1998.15" stroke="#DEDEDE" stroke-opacity="0.05" stroke-width="2" stroke-miterlimit="10"/>
<path d="M1713.1 1.84766V1998.15" stroke="#DEDEDE" stroke-opacity="0.05" stroke-width="2" stroke-miterlimit="10"/>
<path d="M1618.05 1.84766V1998.15" stroke="#DEDEDE" stroke-opacity="0.05" stroke-width="2" stroke-miterlimit="10"/>
<path d="M1522.98 1.84766V1998.15" stroke="#DEDEDE" stroke-opacity="0.05" stroke-width="2" stroke-miterlimit="10"/>
<path d="M1427.92 1.84766V1998.15" stroke="#DEDEDE" stroke-opacity="0.05" stroke-width="2" stroke-miterlimit="10"/>
<path d="M1332.86 1.84766V1998.15" stroke="#DEDEDE" stroke-opacity="0.05" stroke-width="2" stroke-miterlimit="10"/>
<path d="M1237.79 1.84766V1998.15" stroke="#DEDEDE" stroke-opacity="0.05" stroke-width="2" stroke-miterlimit="10"/>
<path d="M1142.73 1.84766V1998.15" stroke="#DEDEDE" stroke-opacity="0.05" stroke-width="2" stroke-miterlimit="10"/>
<path d="M1047.66 1.84766V1998.15" stroke="#DEDEDE" stroke-opacity="0.05" stroke-width="2" stroke-miterlimit="10"/>
<path d="M952.615 1.84766V1998.15" stroke="#DEDEDE" stroke-opacity="0.05" stroke-width="2" stroke-miterlimit="10"/>
<path d="M857.551 1.84766V1998.15" stroke="#DEDEDE" stroke-opacity="0.05" stroke-width="2" stroke-miterlimit="10"/>
<path d="M762.486 1.84766V1998.15" stroke="#DEDEDE" stroke-opacity="0.05" stroke-width="2" stroke-miterlimit="10"/>
<path d="M667.421 1.84766V1998.15" stroke="#DEDEDE" stroke-opacity="0.05" stroke-width="2" stroke-miterlimit="10"/>
<path d="M572.356 1.84766V1998.15" stroke="#DEDEDE" stroke-opacity="0.05" stroke-width="2" stroke-miterlimit="10"/>
<path d="M477.292 1.84766V1998.15" stroke="#DEDEDE" stroke-opacity="0.05" stroke-width="2" stroke-miterlimit="10"/>
<path d="M382.227 1.84766V1998.15" stroke="#DEDEDE" stroke-opacity="0.05" stroke-width="2" stroke-miterlimit="10"/>
<path d="M287.181 1.84766V1998.15" stroke="#DEDEDE" stroke-opacity="0.05" stroke-width="2" stroke-miterlimit="10"/>
<path d="M192.116 1.84766V1998.15" stroke="#DEDEDE" stroke-opacity="0.05" stroke-width="2" stroke-miterlimit="10"/>
<path d="M97.0515 1.84766V1998.15" stroke="#DEDEDE" stroke-opacity="0.05" stroke-width="2" stroke-miterlimit="10"/>
</svg>
