<svg width="876" height="518" viewBox="0 0 876 518" fill="none" xmlns="http://www.w3.org/2000/svg">
<path d="M42.9826 17.84H30.3694V88.6204H13.2254V17.84H0.734745V2.90022H42.9826V17.84ZM89.4399 3.02268V88.7429H72.1734V52.2506H63.3564V88.7429H46.2124V3.02268H63.3564V37.3108H72.1734V3.02268H89.4399ZM110.591 17.84V36.3311H124.428V51.2709H110.591V73.8031H125.041V88.7429H93.4465V2.90022H124.673V17.84H110.591Z" fill="#F9F9F9"/>
<path d="M5.38776 101.457H84.8572C137.837 101.457 167.918 128.845 167.918 178.682V180.927C167.918 227.171 143.673 251.416 122.571 252.763V257.702C143.224 258.6 173.306 286.886 173.306 332.682V338.069C173.306 387.008 140.082 415.743 85.3061 415.743H5.38776V101.457ZM77.2245 163.416V224.029H83.9592C93.3878 224.029 96.0816 219.988 96.0816 208.763V178.682C96.0816 167.457 93.3878 163.416 83.9592 163.416H77.2245ZM77.2245 286.437V353.335H84.8572C94.2857 353.335 97.4286 349.743 97.4286 338.069V301.702C97.4286 290.478 94.2857 286.437 84.4082 286.437H77.2245Z" fill="#DCC2FF"/>
<path d="M181.647 101.008H262.015C314.096 101.008 344.627 128.845 344.627 185.416V187.212C344.627 238.845 319.484 264.437 298.831 265.784V270.722C319.035 272.069 344.627 300.804 344.627 347.947V351.539C344.627 377.131 345.076 396.886 349.117 415.743H277.729C273.688 396.437 273.239 375.335 273.239 351.09V314.722C273.239 303.498 270.096 299.457 261.117 299.457H253.484V415.743H181.647V101.008ZM253.484 163.416V237.049H261.117C270.096 237.049 273.239 232.559 273.239 221.335V178.682C273.239 167.906 270.096 163.416 261.117 163.416H253.484Z" fill="#FFC2DF"/>
<path d="M380.409 101.008H492.204L519.143 415.743H447.306L443.715 344.355H427.551L423.96 415.743H352.123L380.409 101.008ZM430.245 281.947H440.572L437.878 225.376H433.388L430.245 281.947Z" fill="#E8FFC2"/>
<path d="M624.152 101.457H695.989V415.743H617.866L585.989 227.62H581.948L597.662 415.743H525.825V101.457H603.948L637.621 290.927H641.662L624.152 101.457Z" fill="#FFC5C2"/>
<path d="M706.48 101.457H787.296C838.48 101.457 870.357 126.6 870.357 180.029V337.171C870.357 391.049 838.48 415.743 787.296 415.743H706.48V101.457ZM778.766 163.865V353.335H786.847C794.48 353.335 798.521 350.641 798.521 338.518V178.682C798.521 166.559 794.48 163.865 786.847 163.865H778.766Z" fill="#DFFFD6"/>
<path d="M17.7563 430.653L20.3279 486.984H21.5525L25.961 430.653H37.2271L41.6355 486.984H42.8601L45.4317 430.653H62.5758L54.4936 516.373H35.2677L31.9614 474.37H30.8593L27.5529 516.373H8.32711L0.612287 430.653H17.7563ZM64.1447 451.716C64.1447 444.123 66.1041 438.531 70.0227 434.939C74.023 431.265 79.3703 429.429 86.0646 429.429C92.9222 429.429 98.3512 431.306 102.351 435.062C106.433 438.735 108.474 444.287 108.474 451.716V495.188C108.474 502.699 106.433 508.332 102.351 512.087C98.3512 515.761 92.9222 517.598 86.0646 517.598C79.3703 517.598 74.023 515.761 70.0227 512.087C66.1041 508.414 64.1447 502.781 64.1447 495.188V451.716ZM81.2888 496.413C81.2888 498.78 81.7786 500.454 82.7583 501.434C83.8196 502.332 85.0033 502.781 86.3095 502.781C87.6974 502.781 88.8811 502.332 89.8608 501.434C90.8405 500.454 91.3303 498.78 91.3303 496.413V450.614C91.3303 448.246 90.8405 446.613 89.8608 445.715C88.8811 444.817 87.6974 444.368 86.3095 444.368C85.0033 444.368 83.8196 444.817 82.7583 445.715C81.7786 446.613 81.2888 448.246 81.2888 450.614V496.413ZM133.646 430.653C140.83 430.653 146.341 432.572 150.178 436.409C154.096 440.164 156.056 445.879 156.056 453.553V454.165C156.056 457.594 155.688 460.614 154.954 463.227C154.219 465.839 153.239 468.043 152.015 469.84C150.79 471.554 149.402 472.901 147.851 473.881C146.382 474.86 144.912 475.432 143.443 475.595V476.82C144.912 476.983 146.382 477.595 147.851 478.656C149.402 479.636 150.79 481.024 152.015 482.82C153.239 484.616 154.219 486.779 154.954 489.31C155.688 491.841 156.056 494.658 156.056 497.76V498.984C156.056 502.658 156.097 505.883 156.178 508.659C156.341 511.434 156.709 514.006 157.28 516.373H140.136C139.565 513.761 139.197 511.026 139.034 508.169C138.953 505.311 138.912 502.209 138.912 498.862V490.045C138.912 485.8 137.116 483.677 133.524 483.677H129.605V516.496H112.461V430.653H133.646ZM129.605 468.737H133.524C137.116 468.737 138.912 466.533 138.912 462.125V452.083C138.912 447.756 137.116 445.593 133.524 445.593H129.605V468.737ZM177.44 466.166H179.154L185.889 430.653H204.136L193.237 473.513L205.115 516.373H186.992L179.154 480.983H177.44V516.373H160.296V430.653H177.44V466.166ZM233.038 461.023V450.614C233.038 446.45 231.406 444.368 228.14 444.368C224.956 444.368 223.364 446.45 223.364 450.614V456.369C223.364 457.675 223.487 458.818 223.732 459.798C223.977 460.696 224.466 461.553 225.201 462.37C225.936 463.186 226.997 464.043 228.385 464.941C229.855 465.758 231.773 466.737 234.141 467.88L238.304 469.717C240.59 470.778 242.508 471.962 244.06 473.268C245.611 474.575 246.835 476.166 247.733 478.044C248.713 479.84 249.407 481.963 249.815 484.412C250.223 486.861 250.427 489.759 250.427 493.106V495.066C250.427 502.25 248.468 507.801 244.549 511.72C240.631 515.639 235.079 517.598 227.895 517.598C220.793 517.598 215.364 515.679 211.608 511.842C207.853 508.005 205.975 502.413 205.975 495.066V486.004H223.119V496.413C223.119 500.576 224.793 502.658 228.14 502.658C231.487 502.658 233.161 500.617 233.161 496.535V490.29C233.161 488.984 233.038 487.882 232.794 486.984C232.549 486.086 232.059 485.228 231.324 484.412C230.671 483.596 229.65 482.779 228.263 481.963C226.956 481.146 225.201 480.208 222.997 479.146L218.344 477.065C216.058 476.003 214.139 474.819 212.588 473.513C211.037 472.125 209.772 470.493 208.792 468.615C207.894 466.737 207.241 464.574 206.833 462.125C206.424 459.594 206.22 456.655 206.22 453.308V451.838C206.22 444.572 208.098 439.021 211.853 435.184C215.609 431.347 220.956 429.429 227.895 429.429C234.998 429.429 240.468 431.388 244.305 435.307C248.223 439.144 250.182 444.654 250.182 451.838V461.023H233.038ZM297.641 430.653V516.373H280.375V479.881H271.558V516.373H254.414V430.653H271.558V464.941H280.375V430.653H297.641ZM301.526 451.716C301.526 444.123 303.485 438.531 307.404 434.939C311.404 431.265 316.751 429.429 323.445 429.429C330.303 429.429 335.732 431.306 339.732 435.062C343.814 438.735 345.855 444.287 345.855 451.716V495.188C345.855 502.699 343.814 508.332 339.732 512.087C335.732 515.761 330.303 517.598 323.445 517.598C316.751 517.598 311.404 515.761 307.404 512.087C303.485 508.414 301.526 502.781 301.526 495.188V451.716ZM318.67 496.413C318.67 498.78 319.159 500.454 320.139 501.434C321.2 502.332 322.384 502.781 323.69 502.781C325.078 502.781 326.262 502.332 327.242 501.434C328.221 500.454 328.711 498.78 328.711 496.413V450.614C328.711 448.246 328.221 446.613 327.242 445.715C326.262 444.817 325.078 444.368 323.69 444.368C322.384 444.368 321.2 444.817 320.139 445.715C319.159 446.613 318.67 448.246 318.67 450.614V496.413ZM371.027 430.653C378.293 430.653 383.844 433.061 387.681 437.878C391.518 442.695 393.437 450.206 393.437 460.41V460.655C393.437 465.88 392.947 470.289 391.967 473.881C391.069 477.473 389.681 480.371 387.804 482.575C386.008 484.779 383.681 486.371 380.823 487.351C378.048 488.331 374.741 488.82 370.904 488.82H366.986V516.373H349.842V430.653H371.027ZM366.986 474.003H370.904C372.864 474.003 374.252 473.472 375.068 472.411C375.884 471.268 376.293 469.431 376.293 466.901V453.063C376.293 450.369 375.884 448.45 375.068 447.307C374.252 446.164 372.864 445.593 370.904 445.593H366.986V474.003Z" fill="#F9F9F9"/>
</svg>
