<svg width="1728" height="171" viewBox="0 0 1728 171" fill="none" xmlns="http://www.w3.org/2000/svg">
<rect width="1728" height="170.306" fill="#FF645C"/>
<path d="M154.212 97.6531L149.676 78.7171L145.104 97.6531H138.876L132.432 72.4531H138.624L142.368 90.3091L146.688 72.4531H153.42L157.452 90.3091L161.484 72.4531H167.424L160.98 97.6531H154.212ZM171.099 97.6531V72.4531H176.715V97.6531H171.099ZM188.809 88.8691V97.6531H183.193V72.4531H192.049C197.773 72.4531 201.265 75.1891 201.265 80.0491V81.3091C201.265 84.4771 199.645 86.7091 197.053 87.8971L202.381 97.6531H196.009L191.653 88.8691H188.809ZM191.617 77.3491H188.809V83.9731H191.617C194.245 83.9731 195.505 82.8211 195.505 81.0571V80.3011C195.505 78.5011 194.245 77.3491 191.617 77.3491ZM206.326 97.6531V72.4531H223.066V77.3491H211.942V82.2091H221.266V87.1051H211.942V92.7571H223.066V97.6531H206.326ZM242.519 87.8251H233.915V97.6531H228.299V72.4531H244.319V77.3491H233.915V82.9291H242.519V87.8251ZM253.883 88.8691V97.6531H248.267V72.4531H257.123C262.847 72.4531 266.339 75.1891 266.339 80.0491V81.3091C266.339 84.4771 264.719 86.7091 262.127 87.8971L267.455 97.6531H261.083L256.727 88.8691H253.883ZM256.691 77.3491H253.883V83.9731H256.691C259.319 83.9731 260.579 82.8211 260.579 81.0571V80.3011C260.579 78.5011 259.319 77.3491 256.691 77.3491ZM286.16 97.6531L284.792 93.2251H276.152L274.784 97.6531H268.844L277.556 72.4531H283.568L292.28 97.6531H286.16ZM283.244 88.3291L280.436 79.2931L277.628 88.3291H283.244ZM307.164 94.1971L301.656 81.9571V97.6531H296.22V72.4531H303.276L309.828 87.8611L316.668 72.4531H323.004V97.6531H317.568V81.9571L312.06 94.1971H307.164ZM329.478 97.6531V72.4531H346.218V77.3491H335.094V82.2091H344.418V87.1051H335.094V92.7571H346.218V97.6531H329.478ZM358.903 76.9891C356.923 76.9891 356.203 77.8171 356.203 79.0771C356.203 80.5171 356.959 80.9851 359.083 81.8131L361.675 82.8211C366.751 84.8011 368.227 86.6371 368.227 90.5251C368.227 95.3491 365.455 98.0131 359.407 98.0131C353.971 98.0131 350.479 95.7811 349.831 90.1651H355.375C355.879 92.3611 356.779 93.1171 359.371 93.1171C361.639 93.1171 362.467 92.3971 362.467 90.8131C362.467 89.0851 361.711 88.5811 359.119 87.6091L356.779 86.7451C352.207 85.0531 350.443 83.2171 350.443 79.2571C350.443 75.0811 353.179 72.0931 358.903 72.0931C364.627 72.0931 367.507 75.1531 367.687 79.9411H362.143C361.927 77.9971 361.135 76.9891 358.903 76.9891Z" fill="#050505"/>
<path d="M459.24 97.6531V72.4531H468.816C474.972 72.4531 478.752 75.7651 478.752 81.5611V88.5811C478.752 94.4131 474.648 97.6531 468.96 97.6531H459.24ZM468.384 77.3491H464.856V92.7571H468.348C471.516 92.7571 472.992 91.0291 472.992 88.3291V81.8131C472.992 79.0771 471.516 77.3491 468.384 77.3491ZM484.271 97.6531V72.4531H501.011V77.3491H489.887V82.2091H499.211V87.1051H489.887V92.7571H501.011V97.6531H484.271ZM513.696 76.9891C511.716 76.9891 510.996 77.8171 510.996 79.0771C510.996 80.5171 511.752 80.9851 513.876 81.8131L516.468 82.8211C521.544 84.8011 523.02 86.6371 523.02 90.5251C523.02 95.3491 520.248 98.0131 514.2 98.0131C508.764 98.0131 505.272 95.7811 504.624 90.1651H510.168C510.672 92.3611 511.572 93.1171 514.164 93.1171C516.432 93.1171 517.26 92.3971 517.26 90.8131C517.26 89.0851 516.504 88.5811 513.912 87.6091L511.572 86.7451C507 85.0531 505.236 83.2171 505.236 79.2571C505.236 75.0811 507.972 72.0931 513.696 72.0931C519.42 72.0931 522.3 75.1531 522.48 79.9411H516.936C516.72 77.9971 515.928 76.9891 513.696 76.9891ZM528.111 97.6531V72.4531H533.727V97.6531H528.111ZM549.097 98.0131C543.301 98.0131 539.233 94.5571 539.233 88.2931V81.8491C539.233 75.5851 543.301 72.0931 549.565 72.0931C555.001 72.0931 558.241 75.1531 558.493 79.6171H552.949C552.625 77.8891 551.545 76.9891 549.169 76.9891C546.469 76.9891 544.993 79.0051 544.993 82.1011V88.0411C544.993 91.1011 546.469 93.1171 549.421 93.1171C551.905 93.1171 553.165 91.6411 553.165 89.4451V88.7611H548.737V83.9371H558.493V88.6891C558.493 95.2411 555.505 98.0131 549.097 98.0131ZM576.785 97.6531L569.477 80.9491V97.6531H564.041V72.4531H570.737L578.045 89.1571V72.4531H583.481V97.6531H576.785ZM607.317 76.9891C605.337 76.9891 604.617 77.8171 604.617 79.0771C604.617 80.5171 605.373 80.9851 607.497 81.8131L610.089 82.8211C615.165 84.8011 616.641 86.6371 616.641 90.5251C616.641 95.3491 613.869 98.0131 607.821 98.0131C602.385 98.0131 598.893 95.7811 598.245 90.1651H603.789C604.293 92.3611 605.193 93.1171 607.785 93.1171C610.053 93.1171 610.881 92.3971 610.881 90.8131C610.881 89.0851 610.125 88.5811 607.533 87.6091L605.193 86.7451C600.621 85.0531 598.857 83.2171 598.857 79.2571C598.857 75.0811 601.593 72.0931 607.317 72.0931C613.041 72.0931 615.921 75.1531 616.101 79.9411H610.557C610.341 77.9971 609.549 76.9891 607.317 76.9891ZM631.73 97.6531H626.114V88.1851L617.582 72.4531H623.918L629.102 82.9291L634.214 72.4531H640.298L631.73 88.2571V97.6531ZM651.157 76.9891C649.177 76.9891 648.457 77.8171 648.457 79.0771C648.457 80.5171 649.213 80.9851 651.337 81.8131L653.929 82.8211C659.005 84.8011 660.481 86.6371 660.481 90.5251C660.481 95.3491 657.709 98.0131 651.661 98.0131C646.225 98.0131 642.733 95.7811 642.085 90.1651H647.629C648.133 92.3611 649.033 93.1171 651.625 93.1171C653.893 93.1171 654.721 92.3971 654.721 90.8131C654.721 89.0851 653.965 88.5811 651.373 87.6091L649.033 86.7451C644.461 85.0531 642.697 83.2171 642.697 79.2571C642.697 75.0811 645.433 72.0931 651.157 72.0931C656.881 72.0931 659.761 75.1531 659.941 79.9411H654.397C654.181 77.9971 653.389 76.9891 651.157 76.9891ZM681.863 77.3491H674.915V97.6531H669.299V77.3491H662.315V72.4531H681.863V77.3491ZM685.892 97.6531V72.4531H702.632V77.3491H691.508V82.2091H700.832V87.1051H691.508V92.7571H702.632V97.6531H685.892ZM718.809 94.1971L713.301 81.9571V97.6531H707.865V72.4531H714.921L721.473 87.8611L728.313 72.4531H734.649V97.6531H729.213V81.9571L723.705 94.1971H718.809ZM748.575 76.9891C746.595 76.9891 745.875 77.8171 745.875 79.0771C745.875 80.5171 746.631 80.9851 748.755 81.8131L751.347 82.8211C756.423 84.8011 757.899 86.6371 757.899 90.5251C757.899 95.3491 755.127 98.0131 749.079 98.0131C743.643 98.0131 740.151 95.7811 739.503 90.1651H745.047C745.551 92.3611 746.451 93.1171 749.043 93.1171C751.311 93.1171 752.139 92.3971 752.139 90.8131C752.139 89.0851 751.383 88.5811 748.791 87.6091L746.451 86.7451C741.879 85.0531 740.115 83.2171 740.115 79.2571C740.115 75.0811 742.851 72.0931 748.575 72.0931C754.299 72.0931 757.179 75.1531 757.359 79.9411H751.815C751.599 77.9971 750.807 76.9891 748.575 76.9891Z" fill="#050505"/>
<path d="M873.212 97.6531L868.676 78.7171L864.104 97.6531H857.876L851.432 72.4531H857.624L861.368 90.3091L865.688 72.4531H872.42L876.452 90.3091L880.484 72.4531H886.424L879.98 97.6531H873.212ZM890.099 97.6531V72.4531H906.839V77.3491H895.715V82.2091H905.039V87.1051H895.715V92.7571H906.839V97.6531H890.099ZM912.072 97.6531V72.4531H921.036C926.4 72.4531 929.64 74.9011 929.64 79.3291V80.2291C929.64 81.9931 928.848 83.3611 927.48 84.3331C929.568 85.3771 930.72 87.1411 930.72 89.5171V90.4171C930.72 95.0971 927.156 97.6531 922.224 97.6531H912.072ZM920.604 77.3491H917.688V82.4971H920.604C922.8 82.4971 923.88 81.5611 923.88 80.1571V79.5811C923.88 78.2131 922.8 77.3491 920.604 77.3491ZM921.684 87.0331H917.688V92.7571H921.684C923.88 92.7571 924.96 91.7131 924.96 90.1651V89.5891C924.96 88.0051 923.88 87.0331 921.684 87.0331ZM943.29 76.9891C941.31 76.9891 940.59 77.8171 940.59 79.0771C940.59 80.5171 941.346 80.9851 943.47 81.8131L946.062 82.8211C951.138 84.8011 952.614 86.6371 952.614 90.5251C952.614 95.3491 949.842 98.0131 943.794 98.0131C938.358 98.0131 934.866 95.7811 934.218 90.1651H939.762C940.266 92.3611 941.166 93.1171 943.758 93.1171C946.026 93.1171 946.854 92.3971 946.854 90.8131C946.854 89.0851 946.098 88.5811 943.506 87.6091L941.166 86.7451C936.594 85.0531 934.83 83.2171 934.83 79.2571C934.83 75.0811 937.566 72.0931 943.29 72.0931C949.014 72.0931 951.894 75.1531 952.074 79.9411H946.53C946.314 77.9971 945.522 76.9891 943.29 76.9891ZM957.705 97.6531V72.4531H963.321V97.6531H957.705ZM986.899 77.3491H979.951V97.6531H974.335V77.3491H967.351V72.4531H986.899V77.3491ZM990.928 97.6531V72.4531H1007.67V77.3491H996.544V82.2091H1005.87V87.1051H996.544V92.7571H1007.67V97.6531H990.928ZM1020.35 76.9891C1018.37 76.9891 1017.65 77.8171 1017.65 79.0771C1017.65 80.5171 1018.41 80.9851 1020.53 81.8131L1023.12 82.8211C1028.2 84.8011 1029.68 86.6371 1029.68 90.5251C1029.68 95.3491 1026.9 98.0131 1020.86 98.0131C1015.42 98.0131 1011.93 95.7811 1011.28 90.1651H1016.82C1017.33 92.3611 1018.23 93.1171 1020.82 93.1171C1023.09 93.1171 1023.92 92.3971 1023.92 90.8131C1023.92 89.0851 1023.16 88.5811 1020.57 87.6091L1018.23 86.7451C1013.66 85.0531 1011.89 83.2171 1011.89 79.2571C1011.89 75.0811 1014.63 72.0931 1020.35 72.0931C1026.08 72.0931 1028.96 75.1531 1029.14 79.9411H1023.59C1023.38 77.9971 1022.58 76.9891 1020.35 76.9891Z" fill="#050505"/>
<path d="M1140.69 76.9891C1138.71 76.9891 1137.99 77.8171 1137.99 79.0771C1137.99 80.5171 1138.75 80.9851 1140.87 81.8131L1143.46 82.8211C1148.54 84.8011 1150.02 86.6371 1150.02 90.5251C1150.02 95.3491 1147.24 98.0131 1141.2 98.0131C1135.76 98.0131 1132.27 95.7811 1131.62 90.1651H1137.16C1137.67 92.3611 1138.57 93.1171 1141.16 93.1171C1143.43 93.1171 1144.26 92.3971 1144.26 90.8131C1144.26 89.0851 1143.5 88.5811 1140.91 87.6091L1138.57 86.7451C1134 85.0531 1132.23 83.2171 1132.23 79.2571C1132.23 75.0811 1134.97 72.0931 1140.69 72.0931C1146.42 72.0931 1149.3 75.1531 1149.48 79.9411H1143.93C1143.72 77.9971 1142.92 76.9891 1140.69 76.9891ZM1169.34 97.6531L1167.97 93.2251H1159.33L1157.96 97.6531H1152.02L1160.74 72.4531H1166.75L1175.46 97.6531H1169.34ZM1166.42 88.3291L1163.62 79.2931L1160.81 88.3291H1166.42ZM1194.16 97.6531L1192.79 93.2251H1184.15L1182.78 97.6531H1176.84L1185.56 72.4531H1191.57L1200.28 97.6531H1194.16ZM1191.24 88.3291L1188.44 79.2931L1185.63 88.3291H1191.24ZM1210.97 76.9891C1208.99 76.9891 1208.27 77.8171 1208.27 79.0771C1208.27 80.5171 1209.03 80.9851 1211.15 81.8131L1213.74 82.8211C1218.82 84.8011 1220.29 86.6371 1220.29 90.5251C1220.29 95.3491 1217.52 98.0131 1211.47 98.0131C1206.04 98.0131 1202.55 95.7811 1201.9 90.1651H1207.44C1207.95 92.3611 1208.85 93.1171 1211.44 93.1171C1213.71 93.1171 1214.53 92.3971 1214.53 90.8131C1214.53 89.0851 1213.78 88.5811 1211.19 87.6091L1208.85 86.7451C1204.27 85.0531 1202.51 83.2171 1202.51 79.2571C1202.51 75.0811 1205.25 72.0931 1210.97 72.0931C1216.69 72.0931 1219.57 75.1531 1219.75 79.9411H1214.21C1213.99 77.9971 1213.2 76.9891 1210.97 76.9891Z" fill="#050505"/>
<path d="M1346.24 97.6531V72.4531H1362.98V77.3491H1351.86V82.2091H1361.18V87.1051H1351.86V92.7571H1362.98V97.6531H1346.24ZM1379.16 94.1971L1373.65 81.9571V97.6531H1368.21V72.4531H1375.27L1381.82 87.8611L1388.66 72.4531H1395V97.6531H1389.56V81.9571L1384.05 94.1971H1379.16ZM1416.23 97.6531L1414.86 93.2251H1406.22L1404.85 97.6531H1398.91L1407.63 72.4531H1413.64L1422.35 97.6531H1416.23ZM1413.31 88.3291L1410.51 79.2931L1407.7 88.3291H1413.31ZM1426.29 97.6531V72.4531H1431.91V97.6531H1426.29ZM1438.38 97.6531V72.4531H1444V92.7571H1454.4V97.6531H1438.38ZM1468.06 97.6531V72.4531H1477.63C1483.79 72.4531 1487.57 75.7651 1487.57 81.5611V88.5811C1487.57 94.4131 1483.46 97.6531 1477.78 97.6531H1468.06ZM1477.2 77.3491H1473.67V92.7571H1477.16C1480.33 92.7571 1481.81 91.0291 1481.81 88.3291V81.8131C1481.81 79.0771 1480.33 77.3491 1477.2 77.3491ZM1493.09 97.6531V72.4531H1509.83V77.3491H1498.7V82.2091H1508.03V87.1051H1498.7V92.7571H1509.83V97.6531H1493.09ZM1522.51 76.9891C1520.53 76.9891 1519.81 77.8171 1519.81 79.0771C1519.81 80.5171 1520.57 80.9851 1522.69 81.8131L1525.28 82.8211C1530.36 84.8011 1531.84 86.6371 1531.84 90.5251C1531.84 95.3491 1529.06 98.0131 1523.02 98.0131C1517.58 98.0131 1514.09 95.7811 1513.44 90.1651H1518.98C1519.49 92.3611 1520.39 93.1171 1522.98 93.1171C1525.25 93.1171 1526.08 92.3971 1526.08 90.8131C1526.08 89.0851 1525.32 88.5811 1522.73 87.6091L1520.39 86.7451C1515.82 85.0531 1514.05 83.2171 1514.05 79.2571C1514.05 75.0811 1516.79 72.0931 1522.51 72.0931C1528.24 72.0931 1531.12 75.1531 1531.3 79.9411H1525.75C1525.54 77.9971 1524.74 76.9891 1522.51 76.9891ZM1536.93 97.6531V72.4531H1542.54V97.6531H1536.93ZM1557.91 98.0131C1552.12 98.0131 1548.05 94.5571 1548.05 88.2931V81.8491C1548.05 75.5851 1552.12 72.0931 1558.38 72.0931C1563.82 72.0931 1567.06 75.1531 1567.31 79.6171H1561.77C1561.44 77.8891 1560.36 76.9891 1557.99 76.9891C1555.29 76.9891 1553.81 79.0051 1553.81 82.1011V88.0411C1553.81 91.1011 1555.29 93.1171 1558.24 93.1171C1560.72 93.1171 1561.98 91.6411 1561.98 89.4451V88.7611H1557.55V83.9371H1567.31V88.6891C1567.31 95.2411 1564.32 98.0131 1557.91 98.0131ZM1585.6 97.6531L1578.29 80.9491V97.6531H1572.86V72.4531H1579.55L1586.86 89.1571V72.4531H1592.3V97.6531H1585.6Z" fill="#050505"/>
</svg>
