<svg width="399" height="315" viewBox="0 0 399 315" fill="none" xmlns="http://www.w3.org/2000/svg">
<path d="M38.2036 215.679H0.938298V171.679H40.4485L42.2444 144.291H0.938298V100.291H44.4893L50.3261 0.617813H98.3669L92.9791 100.291H108.244L114.081 0.617813H162.122L156.734 100.291H194V144.291H154.04L152.693 171.679H194V215.679H150L144.163 314.904H96.122L101.959 215.679H86.2444L80.4077 314.904H32.3669L38.2036 215.679ZM104.204 171.679L106 144.291H90.2852L88.9383 171.679H104.204ZM242.524 215.679H205.259V171.679H244.769L246.565 144.291H205.259V100.291H248.81L254.647 0.617813H302.688L297.3 100.291H312.565L318.402 0.617813H366.443L361.055 100.291H398.32V144.291H358.361L357.014 171.679H398.32V215.679H354.32L348.484 314.904H300.443L306.28 215.679H290.565L284.728 314.904H236.688L242.524 215.679ZM308.524 171.679L310.32 144.291H294.606L293.259 171.679H308.524Z" fill="#FFC2DF"/>
</svg>
