<svg width="1002" height="1095" viewBox="0 0 1002 1095" fill="none" xmlns="http://www.w3.org/2000/svg">
<path d="M778.203 540.123C764.152 535.125 749.852 532.327 735.649 531.394C764.123 449.43 721.397 359.685 639.662 330.607C615.48 322.004 590.643 319.73 566.783 322.839C538.148 254.664 482.116 198.259 407.068 171.561C276.9 125.253 134.877 184.141 73.3999 304.113C61.2681 295.219 47.6752 287.865 32.7467 282.554C-49.3262 253.356 -139.596 296.398 -168.871 378.688C-174.605 394.807 -177.556 411.23 -178.008 427.474C-212.992 445.167 -241.462 475.783 -255.654 515.675C-284.929 597.964 -242.126 688.347 -160.053 717.545C-139.18 724.971 -117.778 727.701 -96.9716 726.329C-84.5053 775.781 -48.4847 818.276 3.0557 836.612C30.6835 846.441 59.2536 848.059 86.0843 842.802C116.01 905.637 169.812 956.976 240.469 982.113C382.256 1032.55 538.143 958.225 588.717 816.063C592.596 805.159 595.685 794.126 598.092 783.08C616.068 807.634 641.384 827.17 672.186 838.128C754.259 867.326 844.529 824.284 873.804 741.994C903.079 659.704 860.276 569.321 778.203 540.123Z" fill="#F50074" stroke="black" stroke-width="16.5145" stroke-miterlimit="10"/>
<path d="M233.239 403.438L237.463 443.374H238.615L242.839 403.438H260.887L246.807 468.206V493.038H228.887V468.206L215.319 403.438H233.239ZM260.352 425.454C260.352 417.518 262.4 411.673 266.496 407.918C270.678 404.078 276.267 402.158 283.264 402.158C290.432 402.158 296.107 404.121 300.288 408.046C304.555 411.886 306.688 417.689 306.688 425.454V470.894C306.688 478.745 304.555 484.633 300.288 488.558C296.107 492.398 290.432 494.318 283.264 494.318C276.267 494.318 270.678 492.398 266.496 488.558C262.4 484.718 260.352 478.83 260.352 470.894V425.454ZM278.272 472.174C278.272 474.649 278.784 476.398 279.808 477.422C280.918 478.361 282.155 478.83 283.52 478.83C284.971 478.83 286.208 478.361 287.232 477.422C288.256 476.398 288.768 474.649 288.768 472.174V424.302C288.768 421.828 288.256 420.121 287.232 419.182C286.208 418.244 284.971 417.774 283.52 417.774C282.155 417.774 280.918 418.244 279.808 419.182C278.784 420.121 278.272 421.828 278.272 424.302V472.174ZM328.647 403.438V472.174C328.647 474.649 329.159 476.398 330.183 477.422C331.207 478.361 332.359 478.83 333.639 478.83C334.919 478.83 336.029 478.361 336.967 477.422C337.991 476.398 338.503 474.649 338.503 472.174V403.438H356.423V470.894C356.423 478.745 354.333 484.633 350.151 488.558C346.055 492.398 340.466 494.318 333.383 494.318C326.386 494.318 320.839 492.398 316.743 488.558C312.733 484.718 310.727 478.83 310.727 470.894V403.438H328.647ZM382.749 403.438C390.259 403.438 396.019 405.444 400.029 409.454C404.125 413.38 406.173 419.353 406.173 427.374V428.014C406.173 431.598 405.789 434.756 405.021 437.486C404.253 440.217 403.229 442.521 401.949 444.398C400.669 446.19 399.219 447.598 397.597 448.622C396.061 449.646 394.525 450.244 392.989 450.414V451.694C394.525 451.865 396.061 452.505 397.597 453.614C399.219 454.638 400.669 456.089 401.949 457.966C403.229 459.844 404.253 462.105 405.021 464.75C405.789 467.396 406.173 470.34 406.173 473.582V474.862C406.173 478.702 406.216 482.073 406.301 484.974C406.472 487.876 406.856 490.564 407.453 493.038H389.533C388.936 490.308 388.552 487.449 388.381 484.462C388.296 481.476 388.253 478.233 388.253 474.734V465.518C388.253 461.081 386.376 458.862 382.621 458.862H378.525V493.166H360.605V403.438H382.749ZM378.525 443.246H382.621C386.376 443.246 388.253 440.942 388.253 436.334V425.838C388.253 421.316 386.376 419.054 382.621 419.054H378.525V443.246ZM238.743 521.438C246.253 521.438 252.013 523.358 256.023 527.198C260.034 530.953 262.039 536.414 262.039 543.582V544.222C262.039 547.465 261.655 550.324 260.887 552.798C260.119 555.188 259.138 557.236 257.943 558.942C256.749 560.649 255.341 561.972 253.719 562.91C252.183 563.849 250.605 564.404 248.983 564.574V565.854C250.69 566.025 252.397 566.622 254.103 567.646C255.81 568.67 257.389 570.121 258.839 571.998C260.29 573.876 261.442 576.094 262.295 578.654C263.234 581.214 263.703 584.116 263.703 587.358V588.766C263.703 595.849 261.527 601.353 257.175 605.278C252.823 609.118 246.765 611.038 238.999 611.038H216.855V521.438H238.743ZM234.775 557.406H238.487C240.535 557.406 241.986 556.937 242.839 555.998C243.693 554.974 244.119 553.31 244.119 551.006V543.582C244.119 541.278 243.693 539.614 242.839 538.59C241.986 537.566 240.535 537.054 238.487 537.054H234.775V557.406ZM234.775 595.422H238.871C241.005 595.422 242.498 594.91 243.351 593.886C244.29 592.862 244.759 591.156 244.759 588.766V579.806C244.759 575.284 242.754 573.022 238.743 573.022H234.775V595.422ZM289.249 521.438C296.759 521.438 302.519 523.444 306.529 527.454C310.625 531.38 312.673 537.353 312.673 545.374V546.014C312.673 549.598 312.289 552.756 311.521 555.486C310.753 558.217 309.729 560.521 308.449 562.398C307.169 564.19 305.719 565.598 304.097 566.622C302.561 567.646 301.025 568.244 299.489 568.414V569.694C301.025 569.865 302.561 570.505 304.097 571.614C305.719 572.638 307.169 574.089 308.449 575.966C309.729 577.844 310.753 580.105 311.521 582.75C312.289 585.396 312.673 588.34 312.673 591.582V592.862C312.673 596.702 312.716 600.073 312.801 602.974C312.972 605.876 313.356 608.564 313.953 611.038H296.033C295.436 608.308 295.052 605.449 294.881 602.462C294.796 599.476 294.753 596.233 294.753 592.734V583.518C294.753 579.081 292.876 576.862 289.121 576.862H285.025V611.166H267.105V521.438H289.249ZM285.025 561.246H289.121C292.876 561.246 294.753 558.942 294.753 554.334V543.838C294.753 539.316 292.876 537.054 289.121 537.054H285.025V561.246ZM352.335 521.31L361.935 610.91H344.015L341.967 588.766H334.159L332.239 610.91H314.319L324.303 521.31H352.335ZM340.559 573.15L338.767 551.774H337.487L335.567 573.15H340.559ZM411.962 521.438V611.038H392.122L379.706 552.542H378.682L382.65 611.038H364.73V521.438H384.442L397.242 580.318H398.266L394.042 521.438H411.962ZM438.883 521.438C445.881 521.438 451.513 523.23 455.779 526.814C460.046 530.398 462.179 536.03 462.179 543.71V588.766C462.179 596.446 460.046 602.078 455.779 605.662C451.513 609.246 445.881 611.038 438.883 611.038H416.355V521.438H438.883ZM434.403 595.422H438.755C440.377 595.422 441.699 594.996 442.723 594.142C443.747 593.204 444.259 591.497 444.259 589.022V543.454C444.259 540.98 443.747 539.316 442.723 538.462C441.699 537.524 440.377 537.054 438.755 537.054H434.403V595.422ZM233.239 639.438L235.927 698.318H237.207L241.815 639.438H253.591L258.199 698.318H259.479L262.167 639.438H280.087L271.639 729.038H251.543L248.087 685.134H246.935L243.479 729.038H223.383L215.319 639.438H233.239ZM281.727 661.454C281.727 653.518 283.775 647.673 287.871 643.918C292.053 640.078 297.642 638.158 304.639 638.158C311.807 638.158 317.482 640.121 321.663 644.046C325.93 647.886 328.063 653.689 328.063 661.454V706.894C328.063 714.745 325.93 720.633 321.663 724.558C317.482 728.398 311.807 730.318 304.639 730.318C297.642 730.318 292.053 728.398 287.871 724.558C283.775 720.718 281.727 714.83 281.727 706.894V661.454ZM299.647 708.174C299.647 710.649 300.159 712.398 301.183 713.422C302.293 714.361 303.53 714.83 304.895 714.83C306.346 714.83 307.583 714.361 308.607 713.422C309.631 712.398 310.143 710.649 310.143 708.174V660.302C310.143 657.828 309.631 656.121 308.607 655.182C307.583 654.244 306.346 653.774 304.895 653.774C303.53 653.774 302.293 654.244 301.183 655.182C300.159 656.121 299.647 657.828 299.647 660.302V708.174ZM354.374 639.438C361.884 639.438 367.644 641.444 371.654 645.454C375.75 649.38 377.798 655.353 377.798 663.374V664.014C377.798 667.598 377.414 670.756 376.646 673.486C375.878 676.217 374.854 678.521 373.574 680.398C372.294 682.19 370.844 683.598 369.222 684.622C367.686 685.646 366.15 686.244 364.614 686.414V687.694C366.15 687.865 367.686 688.505 369.222 689.614C370.844 690.638 372.294 692.089 373.574 693.966C374.854 695.844 375.878 698.105 376.646 700.75C377.414 703.396 377.798 706.34 377.798 709.582V710.862C377.798 714.702 377.841 718.073 377.926 720.974C378.097 723.876 378.481 726.564 379.078 729.038H361.158C360.561 726.308 360.177 723.449 360.006 720.462C359.921 717.476 359.878 714.233 359.878 710.734V701.518C359.878 697.081 358.001 694.862 354.246 694.862H350.15V729.166H332.23V639.438H354.374ZM350.15 679.246H354.246C358.001 679.246 359.878 676.942 359.878 672.334V661.838C359.878 657.316 358.001 655.054 354.246 655.054H350.15V679.246ZM400.15 676.558H401.942L408.982 639.438H428.054L416.662 684.238L429.078 729.038H410.134L401.942 692.046H400.15V729.038H382.23V639.438H400.15V676.558ZM458.265 671.182V660.302C458.265 655.95 456.559 653.774 453.145 653.774C449.817 653.774 448.153 655.95 448.153 660.302V666.318C448.153 667.684 448.281 668.878 448.537 669.902C448.793 670.841 449.305 671.737 450.073 672.59C450.841 673.444 451.951 674.34 453.401 675.278C454.937 676.132 456.943 677.156 459.417 678.35L463.769 680.27C466.159 681.38 468.164 682.617 469.785 683.982C471.407 685.348 472.687 687.012 473.625 688.974C474.649 690.852 475.375 693.07 475.801 695.63C476.228 698.19 476.441 701.22 476.441 704.718V706.766C476.441 714.276 474.393 720.078 470.297 724.174C466.201 728.27 460.399 730.318 452.889 730.318C445.465 730.318 439.791 728.313 435.865 724.302C431.94 720.292 429.977 714.446 429.977 706.766V697.294H447.897V708.174C447.897 712.526 449.647 714.702 453.145 714.702C456.644 714.702 458.393 712.569 458.393 708.302V701.774C458.393 700.409 458.265 699.257 458.009 698.318C457.753 697.38 457.241 696.484 456.473 695.63C455.791 694.777 454.724 693.924 453.273 693.07C451.908 692.217 450.073 691.236 447.769 690.126L442.905 687.95C440.516 686.841 438.511 685.604 436.889 684.238C435.268 682.788 433.945 681.081 432.921 679.118C431.983 677.156 431.3 674.894 430.873 672.334C430.447 669.689 430.233 666.617 430.233 663.118V661.582C430.233 653.988 432.196 648.185 436.121 644.174C440.047 640.164 445.636 638.158 452.889 638.158C460.313 638.158 466.031 640.206 470.041 644.302C474.137 648.313 476.185 654.073 476.185 661.582V671.182H458.265ZM525.792 639.438V729.038H507.744V690.894H498.528V729.038H480.608V639.438H498.528V675.278H507.744V639.438H525.792ZM529.852 661.454C529.852 653.518 531.9 647.673 535.996 643.918C540.178 640.078 545.767 638.158 552.764 638.158C559.932 638.158 565.607 640.121 569.788 644.046C574.055 647.886 576.188 653.689 576.188 661.454V706.894C576.188 714.745 574.055 720.633 569.788 724.558C565.607 728.398 559.932 730.318 552.764 730.318C545.767 730.318 540.178 728.398 535.996 724.558C531.9 720.718 529.852 714.83 529.852 706.894V661.454ZM547.772 708.174C547.772 710.649 548.284 712.398 549.308 713.422C550.418 714.361 551.655 714.83 553.02 714.83C554.471 714.83 555.708 714.361 556.732 713.422C557.756 712.398 558.268 710.649 558.268 708.174V660.302C558.268 657.828 557.756 656.121 556.732 655.182C555.708 654.244 554.471 653.774 553.02 653.774C551.655 653.774 550.418 654.244 549.308 655.182C548.284 656.121 547.772 657.828 547.772 660.302V708.174ZM602.499 639.438C610.094 639.438 615.897 641.956 619.907 646.99C623.918 652.025 625.923 659.876 625.923 670.542V670.798C625.923 676.26 625.411 680.868 624.387 684.622C623.449 688.377 621.998 691.406 620.035 693.71C618.158 696.014 615.726 697.678 612.739 698.702C609.838 699.726 606.382 700.238 602.371 700.238H598.275V729.038H580.355V639.438H602.499ZM598.275 684.75H602.371C604.419 684.75 605.87 684.196 606.723 683.086C607.577 681.892 608.003 679.972 608.003 677.326V662.862C608.003 660.046 607.577 658.041 606.723 656.846C605.87 655.652 604.419 655.054 602.371 655.054H598.275V684.75Z" fill="#F9F9F9"/>
</svg>
