<svg width="1012" height="1105" viewBox="0 0 1012 1105" fill="none" xmlns="http://www.w3.org/2000/svg">
<path d="M787.768 539.195C773.718 534.197 759.417 531.398 745.214 530.466C773.688 448.501 730.963 358.756 649.228 329.679C625.045 321.075 600.208 318.802 576.349 321.911C547.713 253.736 491.681 197.331 416.633 170.632C286.465 124.324 144.442 183.213 82.9651 303.184C70.8333 294.29 57.2403 286.937 42.3119 281.626C-39.761 252.428 -130.031 295.47 -159.306 377.759C-165.04 393.879 -167.991 410.302 -168.443 426.545C-203.426 444.238 -231.897 474.854 -246.089 514.746C-275.364 597.036 -232.56 687.419 -150.488 716.617C-129.615 724.042 -108.213 726.773 -87.4064 725.4C-74.9401 774.852 -38.9195 817.348 12.6209 835.683C40.2487 845.512 68.8188 847.13 95.6495 841.873C125.575 904.709 179.377 956.048 250.034 981.184C391.821 1031.63 547.708 957.297 598.282 815.135C602.162 804.231 605.25 793.198 607.657 782.151C625.633 806.705 650.949 826.241 681.752 837.199C763.824 866.397 854.094 823.355 883.369 741.066C912.644 658.776 869.841 568.393 787.768 539.195Z" fill="#98F500" stroke="black" stroke-width="16.5145" stroke-miterlimit="10"/>
<path d="M233.239 402.51L237.463 442.446H238.615L242.839 402.51H260.887L246.807 467.278V492.11H228.887V467.278L215.319 402.51H233.239ZM260.352 424.526C260.352 416.59 262.4 410.745 266.496 406.99C270.678 403.15 276.267 401.23 283.264 401.23C290.432 401.23 296.107 403.193 300.288 407.118C304.555 410.958 306.688 416.761 306.688 424.526V469.966C306.688 477.817 304.555 483.705 300.288 487.63C296.107 491.47 290.432 493.39 283.264 493.39C276.267 493.39 270.678 491.47 266.496 487.63C262.4 483.79 260.352 477.902 260.352 469.966V424.526ZM278.272 471.246C278.272 473.721 278.784 475.47 279.808 476.494C280.918 477.433 282.155 477.902 283.52 477.902C284.971 477.902 286.208 477.433 287.232 476.494C288.256 475.47 288.768 473.721 288.768 471.246V423.374C288.768 420.899 288.256 419.193 287.232 418.254C286.208 417.315 284.971 416.846 283.52 416.846C282.155 416.846 280.918 417.315 279.808 418.254C278.784 419.193 278.272 420.899 278.272 423.374V471.246ZM328.647 402.51V471.246C328.647 473.721 329.159 475.47 330.183 476.494C331.207 477.433 332.359 477.902 333.639 477.902C334.919 477.902 336.029 477.433 336.967 476.494C337.991 475.47 338.503 473.721 338.503 471.246V402.51H356.423V469.966C356.423 477.817 354.333 483.705 350.151 487.63C346.055 491.47 340.466 493.39 333.383 493.39C326.386 493.39 320.839 491.47 316.743 487.63C312.733 483.79 310.727 477.902 310.727 469.966V402.51H328.647ZM382.749 402.51C390.259 402.51 396.019 404.515 400.029 408.526C404.125 412.451 406.173 418.425 406.173 426.446V427.086C406.173 430.67 405.789 433.827 405.021 436.558C404.253 439.289 403.229 441.593 401.949 443.47C400.669 445.262 399.219 446.67 397.597 447.694C396.061 448.718 394.525 449.315 392.989 449.486V450.766C394.525 450.937 396.061 451.577 397.597 452.686C399.219 453.71 400.669 455.161 401.949 457.038C403.229 458.915 404.253 461.177 405.021 463.822C405.789 466.467 406.173 469.411 406.173 472.654V473.934C406.173 477.774 406.216 481.145 406.301 484.046C406.472 486.947 406.856 489.635 407.453 492.11H389.533C388.936 489.379 388.552 486.521 388.381 483.534C388.296 480.547 388.253 477.305 388.253 473.806V464.59C388.253 460.153 386.376 457.934 382.621 457.934H378.525V492.238H360.605V402.51H382.749ZM378.525 442.318H382.621C386.376 442.318 388.253 440.014 388.253 435.406V424.91C388.253 420.387 386.376 418.126 382.621 418.126H378.525V442.318ZM238.743 520.51C246.253 520.51 252.013 522.43 256.023 526.27C260.034 530.025 262.039 535.486 262.039 542.654V543.294C262.039 546.537 261.655 549.395 260.887 551.87C260.119 554.259 259.138 556.307 257.943 558.014C256.749 559.721 255.341 561.043 253.719 561.982C252.183 562.921 250.605 563.475 248.983 563.646V564.926C250.69 565.097 252.397 565.694 254.103 566.718C255.81 567.742 257.389 569.193 258.839 571.07C260.29 572.947 261.442 575.166 262.295 577.726C263.234 580.286 263.703 583.187 263.703 586.43V587.838C263.703 594.921 261.527 600.425 257.175 604.35C252.823 608.19 246.765 610.11 238.999 610.11H216.855V520.51H238.743ZM234.775 556.478H238.487C240.535 556.478 241.986 556.009 242.839 555.07C243.693 554.046 244.119 552.382 244.119 550.078V542.654C244.119 540.35 243.693 538.686 242.839 537.662C241.986 536.638 240.535 536.126 238.487 536.126H234.775V556.478ZM234.775 594.494H238.871C241.005 594.494 242.498 593.982 243.351 592.958C244.29 591.934 244.759 590.227 244.759 587.838V578.878C244.759 574.355 242.754 572.094 238.743 572.094H234.775V594.494ZM289.249 520.51C296.759 520.51 302.519 522.515 306.529 526.526C310.625 530.451 312.673 536.425 312.673 544.446V545.086C312.673 548.67 312.289 551.827 311.521 554.558C310.753 557.289 309.729 559.593 308.449 561.47C307.169 563.262 305.719 564.67 304.097 565.694C302.561 566.718 301.025 567.315 299.489 567.486V568.766C301.025 568.937 302.561 569.577 304.097 570.686C305.719 571.71 307.169 573.161 308.449 575.038C309.729 576.915 310.753 579.177 311.521 581.822C312.289 584.467 312.673 587.411 312.673 590.654V591.934C312.673 595.774 312.716 599.145 312.801 602.046C312.972 604.947 313.356 607.635 313.953 610.11H296.033C295.436 607.379 295.052 604.521 294.881 601.534C294.796 598.547 294.753 595.305 294.753 591.806V582.59C294.753 578.153 292.876 575.934 289.121 575.934H285.025V610.238H267.105V520.51H289.249ZM285.025 560.318H289.121C292.876 560.318 294.753 558.014 294.753 553.406V542.91C294.753 538.387 292.876 536.126 289.121 536.126H285.025V560.318ZM352.335 520.382L361.935 609.982H344.015L341.967 587.838H334.159L332.239 609.982H314.319L324.303 520.382H352.335ZM340.559 572.222L338.767 550.846H337.487L335.567 572.222H340.559ZM411.962 520.51V610.11H392.122L379.706 551.614H378.682L382.65 610.11H364.73V520.51H384.442L397.242 579.39H398.266L394.042 520.51H411.962ZM438.883 520.51C445.881 520.51 451.513 522.302 455.779 525.886C460.046 529.47 462.179 535.102 462.179 542.782V587.838C462.179 595.518 460.046 601.15 455.779 604.734C451.513 608.318 445.881 610.11 438.883 610.11H416.355V520.51H438.883ZM434.403 594.494H438.755C440.377 594.494 441.699 594.067 442.723 593.214C443.747 592.275 444.259 590.569 444.259 588.094V542.526C444.259 540.051 443.747 538.387 442.723 537.534C441.699 536.595 440.377 536.126 438.755 536.126H434.403V594.494ZM233.239 638.51L235.927 697.39H237.207L241.815 638.51H253.591L258.199 697.39H259.479L262.167 638.51H280.087L271.639 728.11H251.543L248.087 684.206H246.935L243.479 728.11H223.383L215.319 638.51H233.239ZM281.727 660.526C281.727 652.59 283.775 646.745 287.871 642.99C292.053 639.15 297.642 637.23 304.639 637.23C311.807 637.23 317.482 639.193 321.663 643.118C325.93 646.958 328.063 652.761 328.063 660.526V705.966C328.063 713.817 325.93 719.705 321.663 723.63C317.482 727.47 311.807 729.39 304.639 729.39C297.642 729.39 292.053 727.47 287.871 723.63C283.775 719.79 281.727 713.902 281.727 705.966V660.526ZM299.647 707.246C299.647 709.721 300.159 711.47 301.183 712.494C302.293 713.433 303.53 713.902 304.895 713.902C306.346 713.902 307.583 713.433 308.607 712.494C309.631 711.47 310.143 709.721 310.143 707.246V659.374C310.143 656.899 309.631 655.193 308.607 654.254C307.583 653.315 306.346 652.846 304.895 652.846C303.53 652.846 302.293 653.315 301.183 654.254C300.159 655.193 299.647 656.899 299.647 659.374V707.246ZM354.374 638.51C361.884 638.51 367.644 640.515 371.654 644.526C375.75 648.451 377.798 654.425 377.798 662.446V663.086C377.798 666.67 377.414 669.827 376.646 672.558C375.878 675.289 374.854 677.593 373.574 679.47C372.294 681.262 370.844 682.67 369.222 683.694C367.686 684.718 366.15 685.315 364.614 685.486V686.766C366.15 686.937 367.686 687.577 369.222 688.686C370.844 689.71 372.294 691.161 373.574 693.038C374.854 694.915 375.878 697.177 376.646 699.822C377.414 702.467 377.798 705.411 377.798 708.654V709.934C377.798 713.774 377.841 717.145 377.926 720.046C378.097 722.947 378.481 725.635 379.078 728.11H361.158C360.561 725.379 360.177 722.521 360.006 719.534C359.921 716.547 359.878 713.305 359.878 709.806V700.59C359.878 696.153 358.001 693.934 354.246 693.934H350.15V728.238H332.23V638.51H354.374ZM350.15 678.318H354.246C358.001 678.318 359.878 676.014 359.878 671.406V660.91C359.878 656.387 358.001 654.126 354.246 654.126H350.15V678.318ZM400.15 675.63H401.942L408.982 638.51H428.054L416.662 683.31L429.078 728.11H410.134L401.942 691.118H400.15V728.11H382.23V638.51H400.15V675.63ZM458.265 670.254V659.374C458.265 655.022 456.559 652.846 453.145 652.846C449.817 652.846 448.153 655.022 448.153 659.374V665.39C448.153 666.755 448.281 667.95 448.537 668.974C448.793 669.913 449.305 670.809 450.073 671.662C450.841 672.515 451.951 673.411 453.401 674.35C454.937 675.203 456.943 676.227 459.417 677.422L463.769 679.342C466.159 680.451 468.164 681.689 469.785 683.054C471.407 684.419 472.687 686.083 473.625 688.046C474.649 689.923 475.375 692.142 475.801 694.702C476.228 697.262 476.441 700.291 476.441 703.79V705.838C476.441 713.347 474.393 719.15 470.297 723.246C466.201 727.342 460.399 729.39 452.889 729.39C445.465 729.39 439.791 727.385 435.865 723.374C431.94 719.363 429.977 713.518 429.977 705.838V696.366H447.897V707.246C447.897 711.598 449.647 713.774 453.145 713.774C456.644 713.774 458.393 711.641 458.393 707.374V700.846C458.393 699.481 458.265 698.329 458.009 697.39C457.753 696.451 457.241 695.555 456.473 694.702C455.791 693.849 454.724 692.995 453.273 692.142C451.908 691.289 450.073 690.307 447.769 689.198L442.905 687.022C440.516 685.913 438.511 684.675 436.889 683.31C435.268 681.859 433.945 680.153 432.921 678.19C431.983 676.227 431.3 673.966 430.873 671.406C430.447 668.761 430.233 665.689 430.233 662.19V660.654C430.233 653.059 432.196 647.257 436.121 643.246C440.047 639.235 445.636 637.23 452.889 637.23C460.313 637.23 466.031 639.278 470.041 643.374C474.137 647.385 476.185 653.145 476.185 660.654V670.254H458.265ZM525.792 638.51V728.11H507.744V689.966H498.528V728.11H480.608V638.51H498.528V674.35H507.744V638.51H525.792ZM529.852 660.526C529.852 652.59 531.9 646.745 535.996 642.99C540.178 639.15 545.767 637.23 552.764 637.23C559.932 637.23 565.607 639.193 569.788 643.118C574.055 646.958 576.188 652.761 576.188 660.526V705.966C576.188 713.817 574.055 719.705 569.788 723.63C565.607 727.47 559.932 729.39 552.764 729.39C545.767 729.39 540.178 727.47 535.996 723.63C531.9 719.79 529.852 713.902 529.852 705.966V660.526ZM547.772 707.246C547.772 709.721 548.284 711.47 549.308 712.494C550.418 713.433 551.655 713.902 553.02 713.902C554.471 713.902 555.708 713.433 556.732 712.494C557.756 711.47 558.268 709.721 558.268 707.246V659.374C558.268 656.899 557.756 655.193 556.732 654.254C555.708 653.315 554.471 652.846 553.02 652.846C551.655 652.846 550.418 653.315 549.308 654.254C548.284 655.193 547.772 656.899 547.772 659.374V707.246ZM602.499 638.51C610.094 638.51 615.897 641.027 619.907 646.062C623.918 651.097 625.923 658.947 625.923 669.614V669.87C625.923 675.331 625.411 679.939 624.387 683.694C623.449 687.449 621.998 690.478 620.035 692.782C618.158 695.086 615.726 696.75 612.739 697.774C609.838 698.798 606.382 699.31 602.371 699.31H598.275V728.11H580.355V638.51H602.499ZM598.275 683.822H602.371C604.419 683.822 605.87 683.267 606.723 682.158C607.577 680.963 608.003 679.043 608.003 676.398V661.934C608.003 659.118 607.577 657.113 606.723 655.918C605.87 654.723 604.419 654.126 602.371 654.126H598.275V683.822Z" fill="#F9F9F9"/>
</svg>
