<svg width="4320" height="2160" viewBox="0 0 4320 2160" fill="none" xmlns="http://www.w3.org/2000/svg">
<path d="M0 1028.57H1080" stroke="#DEDEDE" stroke-opacity="0.05" stroke-width="2" stroke-miterlimit="10"/>
<path d="M0 1080H1080" stroke="#DEDEDE" stroke-opacity="0.05" stroke-width="2" stroke-miterlimit="10"/>
<path d="M0 2108.57H1080" stroke="#DEDEDE" stroke-opacity="0.05" stroke-width="2" stroke-miterlimit="10"/>
<path d="M2160 1028.57H3240" stroke="#DEDEDE" stroke-opacity="0.05" stroke-width="2" stroke-miterlimit="10"/>
<path d="M2160 1080H3240" stroke="#DEDEDE" stroke-opacity="0.05" stroke-width="2" stroke-miterlimit="10"/>
<path d="M2160 2108.57H3240" stroke="#DEDEDE" stroke-opacity="0.05" stroke-width="2" stroke-miterlimit="10"/>
<path d="M1080 1028.57H2160" stroke="#DEDEDE" stroke-opacity="0.05" stroke-width="2" stroke-miterlimit="10"/>
<path d="M1080 1080H2160" stroke="#DEDEDE" stroke-opacity="0.05" stroke-width="2" stroke-miterlimit="10"/>
<path d="M1080 2108.57H2160" stroke="#DEDEDE" stroke-opacity="0.05" stroke-width="2" stroke-miterlimit="10"/>
<path d="M3240 1028.57H4320" stroke="#DEDEDE" stroke-opacity="0.05" stroke-width="2" stroke-miterlimit="10"/>
<path d="M3240 1080H4320" stroke="#DEDEDE" stroke-opacity="0.05" stroke-width="2" stroke-miterlimit="10"/>
<path d="M3240 2108.57H4320" stroke="#DEDEDE" stroke-opacity="0.05" stroke-width="2" stroke-miterlimit="10"/>
<path d="M0 977.141H1080" stroke="#DEDEDE" stroke-opacity="0.05" stroke-width="2" stroke-miterlimit="10"/>
<path d="M0 2057.14H1080" stroke="#DEDEDE" stroke-opacity="0.05" stroke-width="2" stroke-miterlimit="10"/>
<path d="M2160 977.141H3240" stroke="#DEDEDE" stroke-opacity="0.05" stroke-width="2" stroke-miterlimit="10"/>
<path d="M2160 2057.14H3240" stroke="#DEDEDE" stroke-opacity="0.05" stroke-width="2" stroke-miterlimit="10"/>
<path d="M1080 977.141H2160" stroke="#DEDEDE" stroke-opacity="0.05" stroke-width="2" stroke-miterlimit="10"/>
<path d="M1080 2057.14H2160" stroke="#DEDEDE" stroke-opacity="0.05" stroke-width="2" stroke-miterlimit="10"/>
<path d="M3240 977.141H4320" stroke="#DEDEDE" stroke-opacity="0.05" stroke-width="2" stroke-miterlimit="10"/>
<path d="M3240 2057.14H4320" stroke="#DEDEDE" stroke-opacity="0.05" stroke-width="2" stroke-miterlimit="10"/>
<path d="M0 925.711H1080" stroke="#DEDEDE" stroke-opacity="0.05" stroke-width="2" stroke-miterlimit="10"/>
<path d="M0 2005.71H1080" stroke="#DEDEDE" stroke-opacity="0.05" stroke-width="2" stroke-miterlimit="10"/>
<path d="M2160 925.711H3240" stroke="#DEDEDE" stroke-opacity="0.05" stroke-width="2" stroke-miterlimit="10"/>
<path d="M2160 2005.71H3240" stroke="#DEDEDE" stroke-opacity="0.05" stroke-width="2" stroke-miterlimit="10"/>
<path d="M1080 925.711H2160" stroke="#DEDEDE" stroke-opacity="0.05" stroke-width="2" stroke-miterlimit="10"/>
<path d="M1080 2005.71H2160" stroke="#DEDEDE" stroke-opacity="0.05" stroke-width="2" stroke-miterlimit="10"/>
<path d="M3240 925.711H4320" stroke="#DEDEDE" stroke-opacity="0.05" stroke-width="2" stroke-miterlimit="10"/>
<path d="M3240 2005.71H4320" stroke="#DEDEDE" stroke-opacity="0.05" stroke-width="2" stroke-miterlimit="10"/>
<path d="M0 874.289H1080" stroke="#DEDEDE" stroke-opacity="0.05" stroke-width="2" stroke-miterlimit="10"/>
<path d="M0 1954.29H1080" stroke="#DEDEDE" stroke-opacity="0.05" stroke-width="2" stroke-miterlimit="10"/>
<path d="M2160 874.289H3240" stroke="#DEDEDE" stroke-opacity="0.05" stroke-width="2" stroke-miterlimit="10"/>
<path d="M2160 1954.29H3240" stroke="#DEDEDE" stroke-opacity="0.05" stroke-width="2" stroke-miterlimit="10"/>
<path d="M1080 874.289H2160" stroke="#DEDEDE" stroke-opacity="0.05" stroke-width="2" stroke-miterlimit="10"/>
<path d="M1080 1954.29H2160" stroke="#DEDEDE" stroke-opacity="0.05" stroke-width="2" stroke-miterlimit="10"/>
<path d="M3240 874.289H4320" stroke="#DEDEDE" stroke-opacity="0.05" stroke-width="2" stroke-miterlimit="10"/>
<path d="M3240 1954.29H4320" stroke="#DEDEDE" stroke-opacity="0.05" stroke-width="2" stroke-miterlimit="10"/>
<path d="M0 822.859H1080" stroke="#DEDEDE" stroke-opacity="0.05" stroke-width="2" stroke-miterlimit="10"/>
<path d="M0 1902.86H1080" stroke="#DEDEDE" stroke-opacity="0.05" stroke-width="2" stroke-miterlimit="10"/>
<path d="M2160 822.859H3240" stroke="#DEDEDE" stroke-opacity="0.05" stroke-width="2" stroke-miterlimit="10"/>
<path d="M2160 1902.86H3240" stroke="#DEDEDE" stroke-opacity="0.05" stroke-width="2" stroke-miterlimit="10"/>
<path d="M1080 822.859H2160" stroke="#DEDEDE" stroke-opacity="0.05" stroke-width="2" stroke-miterlimit="10"/>
<path d="M1080 1902.86H2160" stroke="#DEDEDE" stroke-opacity="0.05" stroke-width="2" stroke-miterlimit="10"/>
<path d="M3240 822.859H4320" stroke="#DEDEDE" stroke-opacity="0.05" stroke-width="2" stroke-miterlimit="10"/>
<path d="M3240 1902.86H4320" stroke="#DEDEDE" stroke-opacity="0.05" stroke-width="2" stroke-miterlimit="10"/>
<path d="M0 771.43H1080" stroke="#DEDEDE" stroke-opacity="0.05" stroke-width="2" stroke-miterlimit="10"/>
<path d="M0 1851.43H1080" stroke="#DEDEDE" stroke-opacity="0.05" stroke-width="2" stroke-miterlimit="10"/>
<path d="M2160 771.43H3240" stroke="#DEDEDE" stroke-opacity="0.05" stroke-width="2" stroke-miterlimit="10"/>
<path d="M2160 1851.43H3240" stroke="#DEDEDE" stroke-opacity="0.05" stroke-width="2" stroke-miterlimit="10"/>
<path d="M1080 771.43H2160" stroke="#DEDEDE" stroke-opacity="0.05" stroke-width="2" stroke-miterlimit="10"/>
<path d="M1080 1851.43H2160" stroke="#DEDEDE" stroke-opacity="0.05" stroke-width="2" stroke-miterlimit="10"/>
<path d="M3240 771.43H4320" stroke="#DEDEDE" stroke-opacity="0.05" stroke-width="2" stroke-miterlimit="10"/>
<path d="M3240 1851.43H4320" stroke="#DEDEDE" stroke-opacity="0.05" stroke-width="2" stroke-miterlimit="10"/>
<path d="M0 720H1080" stroke="#DEDEDE" stroke-opacity="0.05" stroke-width="2" stroke-miterlimit="10"/>
<path d="M0 1800H1080" stroke="#DEDEDE" stroke-opacity="0.05" stroke-width="2" stroke-miterlimit="10"/>
<path d="M2160 720H3240" stroke="#DEDEDE" stroke-opacity="0.05" stroke-width="2" stroke-miterlimit="10"/>
<path d="M2160 1800H3240" stroke="#DEDEDE" stroke-opacity="0.05" stroke-width="2" stroke-miterlimit="10"/>
<path d="M1080 720H2160" stroke="#DEDEDE" stroke-opacity="0.05" stroke-width="2" stroke-miterlimit="10"/>
<path d="M1080 1800H2160" stroke="#DEDEDE" stroke-opacity="0.05" stroke-width="2" stroke-miterlimit="10"/>
<path d="M3240 720H4320" stroke="#DEDEDE" stroke-opacity="0.05" stroke-width="2" stroke-miterlimit="10"/>
<path d="M3240 1800H4320" stroke="#DEDEDE" stroke-opacity="0.05" stroke-width="2" stroke-miterlimit="10"/>
<path d="M0 668.57H1080" stroke="#DEDEDE" stroke-opacity="0.05" stroke-width="2" stroke-miterlimit="10"/>
<path d="M0 1748.57H1080" stroke="#DEDEDE" stroke-opacity="0.05" stroke-width="2" stroke-miterlimit="10"/>
<path d="M2160 668.57H3240" stroke="#DEDEDE" stroke-opacity="0.05" stroke-width="2" stroke-miterlimit="10"/>
<path d="M2160 1748.57H3240" stroke="#DEDEDE" stroke-opacity="0.05" stroke-width="2" stroke-miterlimit="10"/>
<path d="M1080 668.57H2160" stroke="#DEDEDE" stroke-opacity="0.05" stroke-width="2" stroke-miterlimit="10"/>
<path d="M1080 1748.57H2160" stroke="#DEDEDE" stroke-opacity="0.05" stroke-width="2" stroke-miterlimit="10"/>
<path d="M3240 668.57H4320" stroke="#DEDEDE" stroke-opacity="0.05" stroke-width="2" stroke-miterlimit="10"/>
<path d="M3240 1748.57H4320" stroke="#DEDEDE" stroke-opacity="0.05" stroke-width="2" stroke-miterlimit="10"/>
<path d="M0 617.141H1080" stroke="#DEDEDE" stroke-opacity="0.05" stroke-width="2" stroke-miterlimit="10"/>
<path d="M0 1697.14H1080" stroke="#DEDEDE" stroke-opacity="0.05" stroke-width="2" stroke-miterlimit="10"/>
<path d="M2160 617.141H3240" stroke="#DEDEDE" stroke-opacity="0.05" stroke-width="2" stroke-miterlimit="10"/>
<path d="M2160 1697.14H3240" stroke="#DEDEDE" stroke-opacity="0.05" stroke-width="2" stroke-miterlimit="10"/>
<path d="M1080 617.141H2160" stroke="#DEDEDE" stroke-opacity="0.05" stroke-width="2" stroke-miterlimit="10"/>
<path d="M1080 1697.14H2160" stroke="#DEDEDE" stroke-opacity="0.05" stroke-width="2" stroke-miterlimit="10"/>
<path d="M3240 617.141H4320" stroke="#DEDEDE" stroke-opacity="0.05" stroke-width="2" stroke-miterlimit="10"/>
<path d="M3240 1697.14H4320" stroke="#DEDEDE" stroke-opacity="0.05" stroke-width="2" stroke-miterlimit="10"/>
<path d="M0 565.711H1080" stroke="#DEDEDE" stroke-opacity="0.05" stroke-width="2" stroke-miterlimit="10"/>
<path d="M0 1645.71H1080" stroke="#DEDEDE" stroke-opacity="0.05" stroke-width="2" stroke-miterlimit="10"/>
<path d="M2160 565.711H3240" stroke="#DEDEDE" stroke-opacity="0.05" stroke-width="2" stroke-miterlimit="10"/>
<path d="M2160 1645.71H3240" stroke="#DEDEDE" stroke-opacity="0.05" stroke-width="2" stroke-miterlimit="10"/>
<path d="M1080 565.711H2160" stroke="#DEDEDE" stroke-opacity="0.05" stroke-width="2" stroke-miterlimit="10"/>
<path d="M1080 1645.71H2160" stroke="#DEDEDE" stroke-opacity="0.05" stroke-width="2" stroke-miterlimit="10"/>
<path d="M3240 565.711H4320" stroke="#DEDEDE" stroke-opacity="0.05" stroke-width="2" stroke-miterlimit="10"/>
<path d="M3240 1645.71H4320" stroke="#DEDEDE" stroke-opacity="0.05" stroke-width="2" stroke-miterlimit="10"/>
<path d="M0 514.289H1080" stroke="#DEDEDE" stroke-opacity="0.05" stroke-width="2" stroke-miterlimit="10"/>
<path d="M0 1594.29H1080" stroke="#DEDEDE" stroke-opacity="0.05" stroke-width="2" stroke-miterlimit="10"/>
<path d="M2160 514.289H3240" stroke="#DEDEDE" stroke-opacity="0.05" stroke-width="2" stroke-miterlimit="10"/>
<path d="M2160 1594.29H3240" stroke="#DEDEDE" stroke-opacity="0.05" stroke-width="2" stroke-miterlimit="10"/>
<path d="M1080 514.289H2160" stroke="#DEDEDE" stroke-opacity="0.05" stroke-width="2" stroke-miterlimit="10"/>
<path d="M1080 1594.29H2160" stroke="#DEDEDE" stroke-opacity="0.05" stroke-width="2" stroke-miterlimit="10"/>
<path d="M3240 514.289H4320" stroke="#DEDEDE" stroke-opacity="0.05" stroke-width="2" stroke-miterlimit="10"/>
<path d="M3240 1594.29H4320" stroke="#DEDEDE" stroke-opacity="0.05" stroke-width="2" stroke-miterlimit="10"/>
<path d="M0 462.859H1080" stroke="#DEDEDE" stroke-opacity="0.05" stroke-width="2" stroke-miterlimit="10"/>
<path d="M0 1542.86H1080" stroke="#DEDEDE" stroke-opacity="0.05" stroke-width="2" stroke-miterlimit="10"/>
<path d="M2160 462.859H3240" stroke="#DEDEDE" stroke-opacity="0.05" stroke-width="2" stroke-miterlimit="10"/>
<path d="M2160 1542.86H3240" stroke="#DEDEDE" stroke-opacity="0.05" stroke-width="2" stroke-miterlimit="10"/>
<path d="M1080 462.859H2160" stroke="#DEDEDE" stroke-opacity="0.05" stroke-width="2" stroke-miterlimit="10"/>
<path d="M1080 1542.86H2160" stroke="#DEDEDE" stroke-opacity="0.05" stroke-width="2" stroke-miterlimit="10"/>
<path d="M3240 462.859H4320" stroke="#DEDEDE" stroke-opacity="0.05" stroke-width="2" stroke-miterlimit="10"/>
<path d="M3240 1542.86H4320" stroke="#DEDEDE" stroke-opacity="0.05" stroke-width="2" stroke-miterlimit="10"/>
<path d="M0 411.43H1080" stroke="#DEDEDE" stroke-opacity="0.05" stroke-width="2" stroke-miterlimit="10"/>
<path d="M0 1491.43H1080" stroke="#DEDEDE" stroke-opacity="0.05" stroke-width="2" stroke-miterlimit="10"/>
<path d="M2160 411.43H3240" stroke="#DEDEDE" stroke-opacity="0.05" stroke-width="2" stroke-miterlimit="10"/>
<path d="M2160 1491.43H3240" stroke="#DEDEDE" stroke-opacity="0.05" stroke-width="2" stroke-miterlimit="10"/>
<path d="M1080 411.43H2160" stroke="#DEDEDE" stroke-opacity="0.05" stroke-width="2" stroke-miterlimit="10"/>
<path d="M1080 1491.43H2160" stroke="#DEDEDE" stroke-opacity="0.05" stroke-width="2" stroke-miterlimit="10"/>
<path d="M3240 411.43H4320" stroke="#DEDEDE" stroke-opacity="0.05" stroke-width="2" stroke-miterlimit="10"/>
<path d="M3240 1491.43H4320" stroke="#DEDEDE" stroke-opacity="0.05" stroke-width="2" stroke-miterlimit="10"/>
<path d="M0 360H1080" stroke="#DEDEDE" stroke-opacity="0.05" stroke-width="2" stroke-miterlimit="10"/>
<path d="M0 1440H1080" stroke="#DEDEDE" stroke-opacity="0.05" stroke-width="2" stroke-miterlimit="10"/>
<path d="M2160 360H3240" stroke="#DEDEDE" stroke-opacity="0.05" stroke-width="2" stroke-miterlimit="10"/>
<path d="M2160 1440H3240" stroke="#DEDEDE" stroke-opacity="0.05" stroke-width="2" stroke-miterlimit="10"/>
<path d="M1080 360H2160" stroke="#DEDEDE" stroke-opacity="0.05" stroke-width="2" stroke-miterlimit="10"/>
<path d="M1080 1440H2160" stroke="#DEDEDE" stroke-opacity="0.05" stroke-width="2" stroke-miterlimit="10"/>
<path d="M3240 360H4320" stroke="#DEDEDE" stroke-opacity="0.05" stroke-width="2" stroke-miterlimit="10"/>
<path d="M3240 1440H4320" stroke="#DEDEDE" stroke-opacity="0.05" stroke-width="2" stroke-miterlimit="10"/>
<path d="M0 308.57H1080" stroke="#DEDEDE" stroke-opacity="0.05" stroke-width="2" stroke-miterlimit="10"/>
<path d="M0 1388.57H1080" stroke="#DEDEDE" stroke-opacity="0.05" stroke-width="2" stroke-miterlimit="10"/>
<path d="M2160 308.57H3240" stroke="#DEDEDE" stroke-opacity="0.05" stroke-width="2" stroke-miterlimit="10"/>
<path d="M2160 1388.57H3240" stroke="#DEDEDE" stroke-opacity="0.05" stroke-width="2" stroke-miterlimit="10"/>
<path d="M1080 308.57H2160" stroke="#DEDEDE" stroke-opacity="0.05" stroke-width="2" stroke-miterlimit="10"/>
<path d="M1080 1388.57H2160" stroke="#DEDEDE" stroke-opacity="0.05" stroke-width="2" stroke-miterlimit="10"/>
<path d="M3240 308.57H4320" stroke="#DEDEDE" stroke-opacity="0.05" stroke-width="2" stroke-miterlimit="10"/>
<path d="M3240 1388.57H4320" stroke="#DEDEDE" stroke-opacity="0.05" stroke-width="2" stroke-miterlimit="10"/>
<path d="M0 257.141H1080" stroke="#DEDEDE" stroke-opacity="0.05" stroke-width="2" stroke-miterlimit="10"/>
<path d="M0 1337.14H1080" stroke="#DEDEDE" stroke-opacity="0.05" stroke-width="2" stroke-miterlimit="10"/>
<path d="M2160 257.141H3240" stroke="#DEDEDE" stroke-opacity="0.05" stroke-width="2" stroke-miterlimit="10"/>
<path d="M2160 1337.14H3240" stroke="#DEDEDE" stroke-opacity="0.05" stroke-width="2" stroke-miterlimit="10"/>
<path d="M1080 257.141H2160" stroke="#DEDEDE" stroke-opacity="0.05" stroke-width="2" stroke-miterlimit="10"/>
<path d="M1080 1337.14H2160" stroke="#DEDEDE" stroke-opacity="0.05" stroke-width="2" stroke-miterlimit="10"/>
<path d="M3240 257.141H4320" stroke="#DEDEDE" stroke-opacity="0.05" stroke-width="2" stroke-miterlimit="10"/>
<path d="M3240 1337.14H4320" stroke="#DEDEDE" stroke-opacity="0.05" stroke-width="2" stroke-miterlimit="10"/>
<path d="M0 205.711H1080" stroke="#DEDEDE" stroke-opacity="0.05" stroke-width="2" stroke-miterlimit="10"/>
<path d="M0 1285.71H1080" stroke="#DEDEDE" stroke-opacity="0.05" stroke-width="2" stroke-miterlimit="10"/>
<path d="M2160 205.711H3240" stroke="#DEDEDE" stroke-opacity="0.05" stroke-width="2" stroke-miterlimit="10"/>
<path d="M2160 1285.71H3240" stroke="#DEDEDE" stroke-opacity="0.05" stroke-width="2" stroke-miterlimit="10"/>
<path d="M1080 205.711H2160" stroke="#DEDEDE" stroke-opacity="0.05" stroke-width="2" stroke-miterlimit="10"/>
<path d="M1080 1285.71H2160" stroke="#DEDEDE" stroke-opacity="0.05" stroke-width="2" stroke-miterlimit="10"/>
<path d="M3240 205.711H4320" stroke="#DEDEDE" stroke-opacity="0.05" stroke-width="2" stroke-miterlimit="10"/>
<path d="M3240 1285.71H4320" stroke="#DEDEDE" stroke-opacity="0.05" stroke-width="2" stroke-miterlimit="10"/>
<path d="M0 154.289H1080" stroke="#DEDEDE" stroke-opacity="0.05" stroke-width="2" stroke-miterlimit="10"/>
<path d="M0 1234.29H1080" stroke="#DEDEDE" stroke-opacity="0.05" stroke-width="2" stroke-miterlimit="10"/>
<path d="M2160 154.289H3240" stroke="#DEDEDE" stroke-opacity="0.05" stroke-width="2" stroke-miterlimit="10"/>
<path d="M2160 1234.29H3240" stroke="#DEDEDE" stroke-opacity="0.05" stroke-width="2" stroke-miterlimit="10"/>
<path d="M1080 154.289H2160" stroke="#DEDEDE" stroke-opacity="0.05" stroke-width="2" stroke-miterlimit="10"/>
<path d="M1080 1234.29H2160" stroke="#DEDEDE" stroke-opacity="0.05" stroke-width="2" stroke-miterlimit="10"/>
<path d="M3240 154.289H4320" stroke="#DEDEDE" stroke-opacity="0.05" stroke-width="2" stroke-miterlimit="10"/>
<path d="M3240 1234.29H4320" stroke="#DEDEDE" stroke-opacity="0.05" stroke-width="2" stroke-miterlimit="10"/>
<path d="M0 102.859H1080" stroke="#DEDEDE" stroke-opacity="0.05" stroke-width="2" stroke-miterlimit="10"/>
<path d="M0 1182.86H1080" stroke="#DEDEDE" stroke-opacity="0.05" stroke-width="2" stroke-miterlimit="10"/>
<path d="M2160 102.859H3240" stroke="#DEDEDE" stroke-opacity="0.05" stroke-width="2" stroke-miterlimit="10"/>
<path d="M2160 1182.86H3240" stroke="#DEDEDE" stroke-opacity="0.05" stroke-width="2" stroke-miterlimit="10"/>
<path d="M1080 102.859H2160" stroke="#DEDEDE" stroke-opacity="0.05" stroke-width="2" stroke-miterlimit="10"/>
<path d="M1080 1182.86H2160" stroke="#DEDEDE" stroke-opacity="0.05" stroke-width="2" stroke-miterlimit="10"/>
<path d="M3240 102.859H4320" stroke="#DEDEDE" stroke-opacity="0.05" stroke-width="2" stroke-miterlimit="10"/>
<path d="M3240 1182.86H4320" stroke="#DEDEDE" stroke-opacity="0.05" stroke-width="2" stroke-miterlimit="10"/>
<path d="M0 51.4297H1080" stroke="#DEDEDE" stroke-opacity="0.05" stroke-width="2" stroke-miterlimit="10"/>
<path d="M0 1131.43H1080" stroke="#DEDEDE" stroke-opacity="0.05" stroke-width="2" stroke-miterlimit="10"/>
<path d="M2160 51.4297H3240" stroke="#DEDEDE" stroke-opacity="0.05" stroke-width="2" stroke-miterlimit="10"/>
<path d="M2160 1131.43H3240" stroke="#DEDEDE" stroke-opacity="0.05" stroke-width="2" stroke-miterlimit="10"/>
<path d="M1080 51.4297H2160" stroke="#DEDEDE" stroke-opacity="0.05" stroke-width="2" stroke-miterlimit="10"/>
<path d="M1080 1131.43H2160" stroke="#DEDEDE" stroke-opacity="0.05" stroke-width="2" stroke-miterlimit="10"/>
<path d="M3240 51.4297H4320" stroke="#DEDEDE" stroke-opacity="0.05" stroke-width="2" stroke-miterlimit="10"/>
<path d="M3240 1131.43H4320" stroke="#DEDEDE" stroke-opacity="0.05" stroke-width="2" stroke-miterlimit="10"/>
<path d="M1028.57 0V1080" stroke="#DEDEDE" stroke-opacity="0.05" stroke-width="2" stroke-miterlimit="10"/>
<path d="M1028.57 1080V2160" stroke="#DEDEDE" stroke-opacity="0.05" stroke-width="2" stroke-miterlimit="10"/>
<path d="M3188.57 0V1080" stroke="#DEDEDE" stroke-opacity="0.05" stroke-width="2" stroke-miterlimit="10"/>
<path d="M3188.57 1080V2160" stroke="#DEDEDE" stroke-opacity="0.05" stroke-width="2" stroke-miterlimit="10"/>
<path d="M2108.57 0V1080" stroke="#DEDEDE" stroke-opacity="0.05" stroke-width="2" stroke-miterlimit="10"/>
<path d="M2108.57 1080V2160" stroke="#DEDEDE" stroke-opacity="0.05" stroke-width="2" stroke-miterlimit="10"/>
<path d="M4268.57 0V1080" stroke="#DEDEDE" stroke-opacity="0.05" stroke-width="2" stroke-miterlimit="10"/>
<path d="M4268.57 1080V2160" stroke="#DEDEDE" stroke-opacity="0.05" stroke-width="2" stroke-miterlimit="10"/>
<path d="M977.14 0V1080" stroke="#DEDEDE" stroke-opacity="0.05" stroke-width="2" stroke-miterlimit="10"/>
<path d="M977.14 1080V2160" stroke="#DEDEDE" stroke-opacity="0.05" stroke-width="2" stroke-miterlimit="10"/>
<path d="M3137.14 0V1080" stroke="#DEDEDE" stroke-opacity="0.05" stroke-width="2" stroke-miterlimit="10"/>
<path d="M3137.14 1080V2160" stroke="#DEDEDE" stroke-opacity="0.05" stroke-width="2" stroke-miterlimit="10"/>
<path d="M2057.14 0V1080" stroke="#DEDEDE" stroke-opacity="0.05" stroke-width="2" stroke-miterlimit="10"/>
<path d="M2057.14 1080V2160" stroke="#DEDEDE" stroke-opacity="0.05" stroke-width="2" stroke-miterlimit="10"/>
<path d="M4217.14 0V1080" stroke="#DEDEDE" stroke-opacity="0.05" stroke-width="2" stroke-miterlimit="10"/>
<path d="M4217.14 1080V2160" stroke="#DEDEDE" stroke-opacity="0.05" stroke-width="2" stroke-miterlimit="10"/>
<path d="M925.71 0V1080" stroke="#DEDEDE" stroke-opacity="0.05" stroke-width="2" stroke-miterlimit="10"/>
<path d="M925.71 1080V2160" stroke="#DEDEDE" stroke-opacity="0.05" stroke-width="2" stroke-miterlimit="10"/>
<path d="M3085.71 0V1080" stroke="#DEDEDE" stroke-opacity="0.05" stroke-width="2" stroke-miterlimit="10"/>
<path d="M3085.71 1080V2160" stroke="#DEDEDE" stroke-opacity="0.05" stroke-width="2" stroke-miterlimit="10"/>
<path d="M2005.71 0V1080" stroke="#DEDEDE" stroke-opacity="0.05" stroke-width="2" stroke-miterlimit="10"/>
<path d="M2005.71 1080V2160" stroke="#DEDEDE" stroke-opacity="0.05" stroke-width="2" stroke-miterlimit="10"/>
<path d="M4165.71 0V1080" stroke="#DEDEDE" stroke-opacity="0.05" stroke-width="2" stroke-miterlimit="10"/>
<path d="M4165.71 1080V2160" stroke="#DEDEDE" stroke-opacity="0.05" stroke-width="2" stroke-miterlimit="10"/>
<path d="M874.29 0V1080" stroke="#DEDEDE" stroke-opacity="0.05" stroke-width="2" stroke-miterlimit="10"/>
<path d="M874.29 1080V2160" stroke="#DEDEDE" stroke-opacity="0.05" stroke-width="2" stroke-miterlimit="10"/>
<path d="M3034.29 0V1080" stroke="#DEDEDE" stroke-opacity="0.05" stroke-width="2" stroke-miterlimit="10"/>
<path d="M3034.29 1080V2160" stroke="#DEDEDE" stroke-opacity="0.05" stroke-width="2" stroke-miterlimit="10"/>
<path d="M1954.29 0V1080" stroke="#DEDEDE" stroke-opacity="0.05" stroke-width="2" stroke-miterlimit="10"/>
<path d="M1954.29 1080V2160" stroke="#DEDEDE" stroke-opacity="0.05" stroke-width="2" stroke-miterlimit="10"/>
<path d="M4114.29 0V1080" stroke="#DEDEDE" stroke-opacity="0.05" stroke-width="2" stroke-miterlimit="10"/>
<path d="M4114.29 1080V2160" stroke="#DEDEDE" stroke-opacity="0.05" stroke-width="2" stroke-miterlimit="10"/>
<path d="M822.86 0V1080" stroke="#DEDEDE" stroke-opacity="0.05" stroke-width="2" stroke-miterlimit="10"/>
<path d="M822.86 1080V2160" stroke="#DEDEDE" stroke-opacity="0.05" stroke-width="2" stroke-miterlimit="10"/>
<path d="M2982.86 0V1080" stroke="#DEDEDE" stroke-opacity="0.05" stroke-width="2" stroke-miterlimit="10"/>
<path d="M2982.86 1080V2160" stroke="#DEDEDE" stroke-opacity="0.05" stroke-width="2" stroke-miterlimit="10"/>
<path d="M1902.86 0V1080" stroke="#DEDEDE" stroke-opacity="0.05" stroke-width="2" stroke-miterlimit="10"/>
<path d="M1902.86 1080V2160" stroke="#DEDEDE" stroke-opacity="0.05" stroke-width="2" stroke-miterlimit="10"/>
<path d="M4062.86 0V1080" stroke="#DEDEDE" stroke-opacity="0.05" stroke-width="2" stroke-miterlimit="10"/>
<path d="M4062.86 1080V2160" stroke="#DEDEDE" stroke-opacity="0.05" stroke-width="2" stroke-miterlimit="10"/>
<path d="M771.43 0V1080" stroke="#DEDEDE" stroke-opacity="0.05" stroke-width="2" stroke-miterlimit="10"/>
<path d="M771.43 1080V2160" stroke="#DEDEDE" stroke-opacity="0.05" stroke-width="2" stroke-miterlimit="10"/>
<path d="M2931.43 0V1080" stroke="#DEDEDE" stroke-opacity="0.05" stroke-width="2" stroke-miterlimit="10"/>
<path d="M2931.43 1080V2160" stroke="#DEDEDE" stroke-opacity="0.05" stroke-width="2" stroke-miterlimit="10"/>
<path d="M1851.43 0V1080" stroke="#DEDEDE" stroke-opacity="0.05" stroke-width="2" stroke-miterlimit="10"/>
<path d="M1851.43 1080V2160" stroke="#DEDEDE" stroke-opacity="0.05" stroke-width="2" stroke-miterlimit="10"/>
<path d="M4011.43 0V1080" stroke="#DEDEDE" stroke-opacity="0.05" stroke-width="2" stroke-miterlimit="10"/>
<path d="M4011.43 1080V2160" stroke="#DEDEDE" stroke-opacity="0.05" stroke-width="2" stroke-miterlimit="10"/>
<path d="M720 0V1080" stroke="#DEDEDE" stroke-opacity="0.05" stroke-width="2" stroke-miterlimit="10"/>
<path d="M720 1080V2160" stroke="#DEDEDE" stroke-opacity="0.05" stroke-width="2" stroke-miterlimit="10"/>
<path d="M2880 0V1080" stroke="#DEDEDE" stroke-opacity="0.05" stroke-width="2" stroke-miterlimit="10"/>
<path d="M2880 1080V2160" stroke="#DEDEDE" stroke-opacity="0.05" stroke-width="2" stroke-miterlimit="10"/>
<path d="M1800 0V1080" stroke="#DEDEDE" stroke-opacity="0.05" stroke-width="2" stroke-miterlimit="10"/>
<path d="M1800 1080V2160" stroke="#DEDEDE" stroke-opacity="0.05" stroke-width="2" stroke-miterlimit="10"/>
<path d="M3960 0V1080" stroke="#DEDEDE" stroke-opacity="0.05" stroke-width="2" stroke-miterlimit="10"/>
<path d="M3960 1080V2160" stroke="#DEDEDE" stroke-opacity="0.05" stroke-width="2" stroke-miterlimit="10"/>
<path d="M668.57 0V1080" stroke="#DEDEDE" stroke-opacity="0.05" stroke-width="2" stroke-miterlimit="10"/>
<path d="M668.57 1080V2160" stroke="#DEDEDE" stroke-opacity="0.05" stroke-width="2" stroke-miterlimit="10"/>
<path d="M2828.57 0V1080" stroke="#DEDEDE" stroke-opacity="0.05" stroke-width="2" stroke-miterlimit="10"/>
<path d="M2828.57 1080V2160" stroke="#DEDEDE" stroke-opacity="0.05" stroke-width="2" stroke-miterlimit="10"/>
<path d="M1748.57 0V1080" stroke="#DEDEDE" stroke-opacity="0.05" stroke-width="2" stroke-miterlimit="10"/>
<path d="M1748.57 1080V2160" stroke="#DEDEDE" stroke-opacity="0.05" stroke-width="2" stroke-miterlimit="10"/>
<path d="M3908.57 0V1080" stroke="#DEDEDE" stroke-opacity="0.05" stroke-width="2" stroke-miterlimit="10"/>
<path d="M3908.57 1080V2160" stroke="#DEDEDE" stroke-opacity="0.05" stroke-width="2" stroke-miterlimit="10"/>
<path d="M617.14 0V1080" stroke="#DEDEDE" stroke-opacity="0.05" stroke-width="2" stroke-miterlimit="10"/>
<path d="M617.14 1080V2160" stroke="#DEDEDE" stroke-opacity="0.05" stroke-width="2" stroke-miterlimit="10"/>
<path d="M2777.14 0V1080" stroke="#DEDEDE" stroke-opacity="0.05" stroke-width="2" stroke-miterlimit="10"/>
<path d="M2777.14 1080V2160" stroke="#DEDEDE" stroke-opacity="0.05" stroke-width="2" stroke-miterlimit="10"/>
<path d="M1697.14 0V1080" stroke="#DEDEDE" stroke-opacity="0.05" stroke-width="2" stroke-miterlimit="10"/>
<path d="M1697.14 1080V2160" stroke="#DEDEDE" stroke-opacity="0.05" stroke-width="2" stroke-miterlimit="10"/>
<path d="M3857.14 0V1080" stroke="#DEDEDE" stroke-opacity="0.05" stroke-width="2" stroke-miterlimit="10"/>
<path d="M3857.14 1080V2160" stroke="#DEDEDE" stroke-opacity="0.05" stroke-width="2" stroke-miterlimit="10"/>
<path d="M565.71 0V1080" stroke="#DEDEDE" stroke-opacity="0.05" stroke-width="2" stroke-miterlimit="10"/>
<path d="M565.71 1080V2160" stroke="#DEDEDE" stroke-opacity="0.05" stroke-width="2" stroke-miterlimit="10"/>
<path d="M2725.71 0V1080" stroke="#DEDEDE" stroke-opacity="0.05" stroke-width="2" stroke-miterlimit="10"/>
<path d="M2725.71 1080V2160" stroke="#DEDEDE" stroke-opacity="0.05" stroke-width="2" stroke-miterlimit="10"/>
<path d="M1645.71 0V1080" stroke="#DEDEDE" stroke-opacity="0.05" stroke-width="2" stroke-miterlimit="10"/>
<path d="M1645.71 1080V2160" stroke="#DEDEDE" stroke-opacity="0.05" stroke-width="2" stroke-miterlimit="10"/>
<path d="M3805.71 0V1080" stroke="#DEDEDE" stroke-opacity="0.05" stroke-width="2" stroke-miterlimit="10"/>
<path d="M3805.71 1080V2160" stroke="#DEDEDE" stroke-opacity="0.05" stroke-width="2" stroke-miterlimit="10"/>
<path d="M514.29 0V1080" stroke="#DEDEDE" stroke-opacity="0.05" stroke-width="2" stroke-miterlimit="10"/>
<path d="M514.29 1080V2160" stroke="#DEDEDE" stroke-opacity="0.05" stroke-width="2" stroke-miterlimit="10"/>
<path d="M2674.29 0V1080" stroke="#DEDEDE" stroke-opacity="0.05" stroke-width="2" stroke-miterlimit="10"/>
<path d="M2674.29 1080V2160" stroke="#DEDEDE" stroke-opacity="0.05" stroke-width="2" stroke-miterlimit="10"/>
<path d="M1594.29 0V1080" stroke="#DEDEDE" stroke-opacity="0.05" stroke-width="2" stroke-miterlimit="10"/>
<path d="M1594.29 1080V2160" stroke="#DEDEDE" stroke-opacity="0.05" stroke-width="2" stroke-miterlimit="10"/>
<path d="M3754.29 0V1080" stroke="#DEDEDE" stroke-opacity="0.05" stroke-width="2" stroke-miterlimit="10"/>
<path d="M3754.29 1080V2160" stroke="#DEDEDE" stroke-opacity="0.05" stroke-width="2" stroke-miterlimit="10"/>
<path d="M462.86 0V1080" stroke="#DEDEDE" stroke-opacity="0.05" stroke-width="2" stroke-miterlimit="10"/>
<path d="M462.86 1080V2160" stroke="#DEDEDE" stroke-opacity="0.05" stroke-width="2" stroke-miterlimit="10"/>
<path d="M2622.86 0V1080" stroke="#DEDEDE" stroke-opacity="0.05" stroke-width="2" stroke-miterlimit="10"/>
<path d="M2622.86 1080V2160" stroke="#DEDEDE" stroke-opacity="0.05" stroke-width="2" stroke-miterlimit="10"/>
<path d="M1542.86 0V1080" stroke="#DEDEDE" stroke-opacity="0.05" stroke-width="2" stroke-miterlimit="10"/>
<path d="M1542.86 1080V2160" stroke="#DEDEDE" stroke-opacity="0.05" stroke-width="2" stroke-miterlimit="10"/>
<path d="M3702.86 0V1080" stroke="#DEDEDE" stroke-opacity="0.05" stroke-width="2" stroke-miterlimit="10"/>
<path d="M3702.86 1080V2160" stroke="#DEDEDE" stroke-opacity="0.05" stroke-width="2" stroke-miterlimit="10"/>
<path d="M411.43 0V1080" stroke="#DEDEDE" stroke-opacity="0.05" stroke-width="2" stroke-miterlimit="10"/>
<path d="M411.43 1080V2160" stroke="#DEDEDE" stroke-opacity="0.05" stroke-width="2" stroke-miterlimit="10"/>
<path d="M2571.43 0V1080" stroke="#DEDEDE" stroke-opacity="0.05" stroke-width="2" stroke-miterlimit="10"/>
<path d="M2571.43 1080V2160" stroke="#DEDEDE" stroke-opacity="0.05" stroke-width="2" stroke-miterlimit="10"/>
<path d="M1491.43 0V1080" stroke="#DEDEDE" stroke-opacity="0.05" stroke-width="2" stroke-miterlimit="10"/>
<path d="M1491.43 1080V2160" stroke="#DEDEDE" stroke-opacity="0.05" stroke-width="2" stroke-miterlimit="10"/>
<path d="M3651.43 0V1080" stroke="#DEDEDE" stroke-opacity="0.05" stroke-width="2" stroke-miterlimit="10"/>
<path d="M3651.43 1080V2160" stroke="#DEDEDE" stroke-opacity="0.05" stroke-width="2" stroke-miterlimit="10"/>
<path d="M360 0V1080" stroke="#DEDEDE" stroke-opacity="0.05" stroke-width="2" stroke-miterlimit="10"/>
<path d="M360 1080V2160" stroke="#DEDEDE" stroke-opacity="0.05" stroke-width="2" stroke-miterlimit="10"/>
<path d="M2520 0V1080" stroke="#DEDEDE" stroke-opacity="0.05" stroke-width="2" stroke-miterlimit="10"/>
<path d="M2520 1080V2160" stroke="#DEDEDE" stroke-opacity="0.05" stroke-width="2" stroke-miterlimit="10"/>
<path d="M1440 0V1080" stroke="#DEDEDE" stroke-opacity="0.05" stroke-width="2" stroke-miterlimit="10"/>
<path d="M1440 1080V2160" stroke="#DEDEDE" stroke-opacity="0.05" stroke-width="2" stroke-miterlimit="10"/>
<path d="M3600 0V1080" stroke="#DEDEDE" stroke-opacity="0.05" stroke-width="2" stroke-miterlimit="10"/>
<path d="M3600 1080V2160" stroke="#DEDEDE" stroke-opacity="0.05" stroke-width="2" stroke-miterlimit="10"/>
<path d="M308.57 0V1080" stroke="#DEDEDE" stroke-opacity="0.05" stroke-width="2" stroke-miterlimit="10"/>
<path d="M308.57 1080V2160" stroke="#DEDEDE" stroke-opacity="0.05" stroke-width="2" stroke-miterlimit="10"/>
<path d="M2468.57 0V1080" stroke="#DEDEDE" stroke-opacity="0.05" stroke-width="2" stroke-miterlimit="10"/>
<path d="M2468.57 1080V2160" stroke="#DEDEDE" stroke-opacity="0.05" stroke-width="2" stroke-miterlimit="10"/>
<path d="M1388.57 0V1080" stroke="#DEDEDE" stroke-opacity="0.05" stroke-width="2" stroke-miterlimit="10"/>
<path d="M1388.57 1080V2160" stroke="#DEDEDE" stroke-opacity="0.05" stroke-width="2" stroke-miterlimit="10"/>
<path d="M3548.57 0V1080" stroke="#DEDEDE" stroke-opacity="0.05" stroke-width="2" stroke-miterlimit="10"/>
<path d="M3548.57 1080V2160" stroke="#DEDEDE" stroke-opacity="0.05" stroke-width="2" stroke-miterlimit="10"/>
<path d="M257.14 0V1080" stroke="#DEDEDE" stroke-opacity="0.05" stroke-width="2" stroke-miterlimit="10"/>
<path d="M257.14 1080V2160" stroke="#DEDEDE" stroke-opacity="0.05" stroke-width="2" stroke-miterlimit="10"/>
<path d="M2417.14 0V1080" stroke="#DEDEDE" stroke-opacity="0.05" stroke-width="2" stroke-miterlimit="10"/>
<path d="M2417.14 1080V2160" stroke="#DEDEDE" stroke-opacity="0.05" stroke-width="2" stroke-miterlimit="10"/>
<path d="M1337.14 0V1080" stroke="#DEDEDE" stroke-opacity="0.05" stroke-width="2" stroke-miterlimit="10"/>
<path d="M1337.14 1080V2160" stroke="#DEDEDE" stroke-opacity="0.05" stroke-width="2" stroke-miterlimit="10"/>
<path d="M3497.14 0V1080" stroke="#DEDEDE" stroke-opacity="0.05" stroke-width="2" stroke-miterlimit="10"/>
<path d="M3497.14 1080V2160" stroke="#DEDEDE" stroke-opacity="0.05" stroke-width="2" stroke-miterlimit="10"/>
<path d="M205.71 0V1080" stroke="#DEDEDE" stroke-opacity="0.05" stroke-width="2" stroke-miterlimit="10"/>
<path d="M205.71 1080V2160" stroke="#DEDEDE" stroke-opacity="0.05" stroke-width="2" stroke-miterlimit="10"/>
<path d="M2365.71 0V1080" stroke="#DEDEDE" stroke-opacity="0.05" stroke-width="2" stroke-miterlimit="10"/>
<path d="M2365.71 1080V2160" stroke="#DEDEDE" stroke-opacity="0.05" stroke-width="2" stroke-miterlimit="10"/>
<path d="M1285.71 0V1080" stroke="#DEDEDE" stroke-opacity="0.05" stroke-width="2" stroke-miterlimit="10"/>
<path d="M1285.71 1080V2160" stroke="#DEDEDE" stroke-opacity="0.05" stroke-width="2" stroke-miterlimit="10"/>
<path d="M3445.71 0V1080" stroke="#DEDEDE" stroke-opacity="0.05" stroke-width="2" stroke-miterlimit="10"/>
<path d="M3445.71 1080V2160" stroke="#DEDEDE" stroke-opacity="0.05" stroke-width="2" stroke-miterlimit="10"/>
<path d="M154.29 0V1080" stroke="#DEDEDE" stroke-opacity="0.05" stroke-width="2" stroke-miterlimit="10"/>
<path d="M154.29 1080V2160" stroke="#DEDEDE" stroke-opacity="0.05" stroke-width="2" stroke-miterlimit="10"/>
<path d="M2314.29 0V1080" stroke="#DEDEDE" stroke-opacity="0.05" stroke-width="2" stroke-miterlimit="10"/>
<path d="M2314.29 1080V2160" stroke="#DEDEDE" stroke-opacity="0.05" stroke-width="2" stroke-miterlimit="10"/>
<path d="M1234.29 0V1080" stroke="#DEDEDE" stroke-opacity="0.05" stroke-width="2" stroke-miterlimit="10"/>
<path d="M1234.29 1080V2160" stroke="#DEDEDE" stroke-opacity="0.05" stroke-width="2" stroke-miterlimit="10"/>
<path d="M3394.29 0V1080" stroke="#DEDEDE" stroke-opacity="0.05" stroke-width="2" stroke-miterlimit="10"/>
<path d="M3394.29 1080V2160" stroke="#DEDEDE" stroke-opacity="0.05" stroke-width="2" stroke-miterlimit="10"/>
<path d="M102.86 0V1080" stroke="#DEDEDE" stroke-opacity="0.05" stroke-width="2" stroke-miterlimit="10"/>
<path d="M102.86 1080V2160" stroke="#DEDEDE" stroke-opacity="0.05" stroke-width="2" stroke-miterlimit="10"/>
<path d="M2262.86 0V1080" stroke="#DEDEDE" stroke-opacity="0.05" stroke-width="2" stroke-miterlimit="10"/>
<path d="M2262.86 1080V2160" stroke="#DEDEDE" stroke-opacity="0.05" stroke-width="2" stroke-miterlimit="10"/>
<path d="M1182.86 0V1080" stroke="#DEDEDE" stroke-opacity="0.05" stroke-width="2" stroke-miterlimit="10"/>
<path d="M1182.86 1080V2160" stroke="#DEDEDE" stroke-opacity="0.05" stroke-width="2" stroke-miterlimit="10"/>
<path d="M3342.86 0V1080" stroke="#DEDEDE" stroke-opacity="0.05" stroke-width="2" stroke-miterlimit="10"/>
<path d="M3342.86 1080V2160" stroke="#DEDEDE" stroke-opacity="0.05" stroke-width="2" stroke-miterlimit="10"/>
<path d="M51.4299 0V1080" stroke="#DEDEDE" stroke-opacity="0.05" stroke-width="2" stroke-miterlimit="10"/>
<path d="M51.4299 1080V2160" stroke="#DEDEDE" stroke-opacity="0.05" stroke-width="2" stroke-miterlimit="10"/>
<path d="M2211.43 0V1080" stroke="#DEDEDE" stroke-opacity="0.05" stroke-width="2" stroke-miterlimit="10"/>
<path d="M2211.43 1080V2160" stroke="#DEDEDE" stroke-opacity="0.05" stroke-width="2" stroke-miterlimit="10"/>
<path d="M2160 0V1080" stroke="#DEDEDE" stroke-opacity="0.05" stroke-width="2" stroke-miterlimit="10"/>
<path d="M2160 1080V2160" stroke="#DEDEDE" stroke-opacity="0.05" stroke-width="2" stroke-miterlimit="10"/>
<path d="M1131.43 0V1080" stroke="#DEDEDE" stroke-opacity="0.05" stroke-width="2" stroke-miterlimit="10"/>
<path d="M1131.43 1080V2160" stroke="#DEDEDE" stroke-opacity="0.05" stroke-width="2" stroke-miterlimit="10"/>
<path d="M3291.43 0V1080" stroke="#DEDEDE" stroke-opacity="0.05" stroke-width="2" stroke-miterlimit="10"/>
<path d="M3291.43 1080V2160" stroke="#DEDEDE" stroke-opacity="0.05" stroke-width="2" stroke-miterlimit="10"/>
<path d="M1080 0V1080" stroke="#DEDEDE" stroke-opacity="0.05" stroke-width="2" stroke-miterlimit="10"/>
<path d="M1080 1080V2160" stroke="#DEDEDE" stroke-opacity="0.05" stroke-width="2" stroke-miterlimit="10"/>
<path d="M3240 0V1080" stroke="#DEDEDE" stroke-opacity="0.05" stroke-width="2" stroke-miterlimit="10"/>
<path d="M3240 1080V2160" stroke="#DEDEDE" stroke-opacity="0.05" stroke-width="2" stroke-miterlimit="10"/>
</svg>
