<svg width="2000" height="2000" viewBox="0 0 2000 2000" fill="none" xmlns="http://www.w3.org/2000/svg">
<g clip-path="url(#clip0_174_1067)">
<path d="M1998.15 1.84766H1.84839V1998.15H1998.15V1.84766Z" stroke="#DEDEDE" stroke-opacity="0.05" stroke-width="2" stroke-miterlimit="10"/>
<path d="M1.84839 1903.09H1998.15" stroke="#DEDEDE" stroke-opacity="0.05" stroke-width="2" stroke-miterlimit="10"/>
<path d="M1.84839 1808.02H1998.15" stroke="#DEDEDE" stroke-opacity="0.05" stroke-width="2" stroke-miterlimit="10"/>
<path d="M1.84839 1712.96H1998.15" stroke="#DEDEDE" stroke-opacity="0.05" stroke-width="2" stroke-miterlimit="10"/>
<path d="M1.84839 1617.91H1998.15" stroke="#DEDEDE" stroke-opacity="0.05" stroke-width="2" stroke-miterlimit="10"/>
<path d="M1.84839 1522.85H1998.15" stroke="#DEDEDE" stroke-opacity="0.05" stroke-width="2" stroke-miterlimit="10"/>
<path d="M1.84839 1427.78H1998.15" stroke="#DEDEDE" stroke-opacity="0.05" stroke-width="2" stroke-miterlimit="10"/>
<path d="M1.84839 1332.72H1998.15" stroke="#DEDEDE" stroke-opacity="0.05" stroke-width="2" stroke-miterlimit="10"/>
<path d="M1.84839 1237.65H1998.15" stroke="#DEDEDE" stroke-opacity="0.05" stroke-width="2" stroke-miterlimit="10"/>
<path d="M1.84839 1142.59H1998.15" stroke="#DEDEDE" stroke-opacity="0.05" stroke-width="2" stroke-miterlimit="10"/>
<path d="M1.84839 1047.53H1998.15" stroke="#DEDEDE" stroke-opacity="0.05" stroke-width="2" stroke-miterlimit="10"/>
<path d="M1.84839 952.475H1998.15" stroke="#DEDEDE" stroke-opacity="0.05" stroke-width="2" stroke-miterlimit="10"/>
<path d="M1.84839 857.41H1998.15" stroke="#DEDEDE" stroke-opacity="0.05" stroke-width="2" stroke-miterlimit="10"/>
<path d="M1.84839 762.348H1998.15" stroke="#DEDEDE" stroke-opacity="0.05" stroke-width="2" stroke-miterlimit="10"/>
<path d="M1.84839 667.283H1998.15" stroke="#DEDEDE" stroke-opacity="0.05" stroke-width="2" stroke-miterlimit="10"/>
<path d="M1.84839 572.219H1998.15" stroke="#DEDEDE" stroke-opacity="0.05" stroke-width="2" stroke-miterlimit="10"/>
<path d="M1.84839 477.154H1998.15" stroke="#DEDEDE" stroke-opacity="0.05" stroke-width="2" stroke-miterlimit="10"/>
<path d="M1.84839 382.09H1998.15" stroke="#DEDEDE" stroke-opacity="0.05" stroke-width="2" stroke-miterlimit="10"/>
<path d="M1.84839 287.041H1998.15" stroke="#DEDEDE" stroke-opacity="0.05" stroke-width="2" stroke-miterlimit="10"/>
<path d="M1.84839 191.977H1998.15" stroke="#DEDEDE" stroke-opacity="0.05" stroke-width="2" stroke-miterlimit="10"/>
<path d="M1.84839 96.9121H1998.15" stroke="#DEDEDE" stroke-opacity="0.05" stroke-width="2" stroke-miterlimit="10"/>
<path d="M1903.09 1.84766V1998.15" stroke="#DEDEDE" stroke-opacity="0.05" stroke-width="2" stroke-miterlimit="10"/>
<path d="M1808.02 1.84766V1998.15" stroke="#DEDEDE" stroke-opacity="0.05" stroke-width="2" stroke-miterlimit="10"/>
<path d="M1712.96 1.84766V1998.15" stroke="#DEDEDE" stroke-opacity="0.05" stroke-width="2" stroke-miterlimit="10"/>
<path d="M1617.91 1.84766V1998.15" stroke="#DEDEDE" stroke-opacity="0.05" stroke-width="2" stroke-miterlimit="10"/>
<path d="M1522.85 1.84766V1998.15" stroke="#DEDEDE" stroke-opacity="0.05" stroke-width="2" stroke-miterlimit="10"/>
<path d="M1427.78 1.84766V1998.15" stroke="#DEDEDE" stroke-opacity="0.05" stroke-width="2" stroke-miterlimit="10"/>
<path d="M1332.72 1.84766V1998.15" stroke="#DEDEDE" stroke-opacity="0.05" stroke-width="2" stroke-miterlimit="10"/>
<path d="M1237.65 1.84766V1998.15" stroke="#DEDEDE" stroke-opacity="0.05" stroke-width="2" stroke-miterlimit="10"/>
<path d="M1142.59 1.84766V1998.15" stroke="#DEDEDE" stroke-opacity="0.05" stroke-width="2" stroke-miterlimit="10"/>
<path d="M1047.52 1.84766V1998.15" stroke="#DEDEDE" stroke-opacity="0.05" stroke-width="2" stroke-miterlimit="10"/>
<path d="M952.477 1.84766V1998.15" stroke="#DEDEDE" stroke-opacity="0.05" stroke-width="2" stroke-miterlimit="10"/>
<path d="M857.412 1.84766V1998.15" stroke="#DEDEDE" stroke-opacity="0.05" stroke-width="2" stroke-miterlimit="10"/>
<path d="M762.347 1.84766V1998.15" stroke="#DEDEDE" stroke-opacity="0.05" stroke-width="2" stroke-miterlimit="10"/>
<path d="M667.283 1.84766V1998.15" stroke="#DEDEDE" stroke-opacity="0.05" stroke-width="2" stroke-miterlimit="10"/>
<path d="M572.218 1.84766V1998.15" stroke="#DEDEDE" stroke-opacity="0.05" stroke-width="2" stroke-miterlimit="10"/>
<path d="M477.153 1.84766V1998.15" stroke="#DEDEDE" stroke-opacity="0.05" stroke-width="2" stroke-miterlimit="10"/>
<path d="M382.089 1.84766V1998.15" stroke="#DEDEDE" stroke-opacity="0.05" stroke-width="2" stroke-miterlimit="10"/>
<path d="M287.042 1.84766V1998.15" stroke="#DEDEDE" stroke-opacity="0.05" stroke-width="2" stroke-miterlimit="10"/>
<path d="M191.978 1.84766V1998.15" stroke="#DEDEDE" stroke-opacity="0.05" stroke-width="2" stroke-miterlimit="10"/>
<path d="M96.9131 1.84766V1998.15" stroke="#DEDEDE" stroke-opacity="0.05" stroke-width="2" stroke-miterlimit="10"/>
</g>
<defs>
<clipPath id="clip0_174_1067">
<rect width="2000" height="2000" fill="white"/>
</clipPath>
</defs>
</svg>
