<svg width="4000" height="4000" viewBox="0 0 4000 4000" fill="none" xmlns="http://www.w3.org/2000/svg">
<g clip-path="url(#clip0_176_1447)">
<path d="M1998.15 1.84766H1.84839V1998.15H1998.15V1.84766Z" stroke="#DEDEDE" stroke-opacity="0.1" stroke-width="2" stroke-miterlimit="10"/>
<path d="M1.84839 1903.09H1998.15" stroke="#DEDEDE" stroke-opacity="0.1" stroke-width="2" stroke-miterlimit="10"/>
<path d="M1.84839 1808.02H1998.15" stroke="#DEDEDE" stroke-opacity="0.1" stroke-width="2" stroke-miterlimit="10"/>
<path d="M1.84839 1712.96H1998.15" stroke="#DEDEDE" stroke-opacity="0.1" stroke-width="2" stroke-miterlimit="10"/>
<path d="M1.84839 1617.91H1998.15" stroke="#DEDEDE" stroke-opacity="0.1" stroke-width="2" stroke-miterlimit="10"/>
<path d="M1.84839 1522.85H1998.15" stroke="#DEDEDE" stroke-opacity="0.1" stroke-width="2" stroke-miterlimit="10"/>
<path d="M1.84839 1427.78H1998.15" stroke="#DEDEDE" stroke-opacity="0.1" stroke-width="2" stroke-miterlimit="10"/>
<path d="M1.84839 1332.72H1998.15" stroke="#DEDEDE" stroke-opacity="0.1" stroke-width="2" stroke-miterlimit="10"/>
<path d="M1.84839 1237.65H1998.15" stroke="#DEDEDE" stroke-opacity="0.1" stroke-width="2" stroke-miterlimit="10"/>
<path d="M1.84839 1142.59H1998.15" stroke="#DEDEDE" stroke-opacity="0.1" stroke-width="2" stroke-miterlimit="10"/>
<path d="M1.84839 1047.53H1998.15" stroke="#DEDEDE" stroke-opacity="0.1" stroke-width="2" stroke-miterlimit="10"/>
<path d="M1.84839 952.475H1998.15" stroke="#DEDEDE" stroke-opacity="0.1" stroke-width="2" stroke-miterlimit="10"/>
<path d="M1.84839 857.41H1998.15" stroke="#DEDEDE" stroke-opacity="0.1" stroke-width="2" stroke-miterlimit="10"/>
<path d="M1.84839 762.348H1998.15" stroke="#DEDEDE" stroke-opacity="0.1" stroke-width="2" stroke-miterlimit="10"/>
<path d="M1.84839 667.283H1998.15" stroke="#DEDEDE" stroke-opacity="0.1" stroke-width="2" stroke-miterlimit="10"/>
<path d="M1.84839 572.219H1998.15" stroke="#DEDEDE" stroke-opacity="0.1" stroke-width="2" stroke-miterlimit="10"/>
<path d="M1.84839 477.154H1998.15" stroke="#DEDEDE" stroke-opacity="0.1" stroke-width="2" stroke-miterlimit="10"/>
<path d="M1.84839 382.09H1998.15" stroke="#DEDEDE" stroke-opacity="0.1" stroke-width="2" stroke-miterlimit="10"/>
<path d="M1.84839 287.041H1998.15" stroke="#DEDEDE" stroke-opacity="0.1" stroke-width="2" stroke-miterlimit="10"/>
<path d="M1.84839 191.977H1998.15" stroke="#DEDEDE" stroke-opacity="0.1" stroke-width="2" stroke-miterlimit="10"/>
<path d="M1.84839 96.9121H1998.15" stroke="#DEDEDE" stroke-opacity="0.1" stroke-width="2" stroke-miterlimit="10"/>
<path d="M1903.09 1.84766V1998.15" stroke="#DEDEDE" stroke-opacity="0.1" stroke-width="2" stroke-miterlimit="10"/>
<path d="M1808.02 1.84766V1998.15" stroke="#DEDEDE" stroke-opacity="0.1" stroke-width="2" stroke-miterlimit="10"/>
<path d="M1712.96 1.84766V1998.15" stroke="#DEDEDE" stroke-opacity="0.1" stroke-width="2" stroke-miterlimit="10"/>
<path d="M1617.91 1.84766V1998.15" stroke="#DEDEDE" stroke-opacity="0.1" stroke-width="2" stroke-miterlimit="10"/>
<path d="M1522.85 1.84766V1998.15" stroke="#DEDEDE" stroke-opacity="0.1" stroke-width="2" stroke-miterlimit="10"/>
<path d="M1427.78 1.84766V1998.15" stroke="#DEDEDE" stroke-opacity="0.1" stroke-width="2" stroke-miterlimit="10"/>
<path d="M1332.72 1.84766V1998.15" stroke="#DEDEDE" stroke-opacity="0.1" stroke-width="2" stroke-miterlimit="10"/>
<path d="M1237.65 1.84766V1998.15" stroke="#DEDEDE" stroke-opacity="0.1" stroke-width="2" stroke-miterlimit="10"/>
<path d="M1142.59 1.84766V1998.15" stroke="#DEDEDE" stroke-opacity="0.1" stroke-width="2" stroke-miterlimit="10"/>
<path d="M1047.52 1.84766V1998.15" stroke="#DEDEDE" stroke-opacity="0.1" stroke-width="2" stroke-miterlimit="10"/>
<path d="M952.477 1.84766V1998.15" stroke="#DEDEDE" stroke-opacity="0.1" stroke-width="2" stroke-miterlimit="10"/>
<path d="M857.412 1.84766V1998.15" stroke="#DEDEDE" stroke-opacity="0.1" stroke-width="2" stroke-miterlimit="10"/>
<path d="M762.347 1.84766V1998.15" stroke="#DEDEDE" stroke-opacity="0.1" stroke-width="2" stroke-miterlimit="10"/>
<path d="M667.283 1.84766V1998.15" stroke="#DEDEDE" stroke-opacity="0.1" stroke-width="2" stroke-miterlimit="10"/>
<path d="M572.218 1.84766V1998.15" stroke="#DEDEDE" stroke-opacity="0.1" stroke-width="2" stroke-miterlimit="10"/>
<path d="M477.153 1.84766V1998.15" stroke="#DEDEDE" stroke-opacity="0.1" stroke-width="2" stroke-miterlimit="10"/>
<path d="M382.089 1.84766V1998.15" stroke="#DEDEDE" stroke-opacity="0.1" stroke-width="2" stroke-miterlimit="10"/>
<path d="M287.042 1.84766V1998.15" stroke="#DEDEDE" stroke-opacity="0.1" stroke-width="2" stroke-miterlimit="10"/>
<path d="M191.978 1.84766V1998.15" stroke="#DEDEDE" stroke-opacity="0.1" stroke-width="2" stroke-miterlimit="10"/>
<path d="M96.9131 1.84766V1998.15" stroke="#DEDEDE" stroke-opacity="0.1" stroke-width="2" stroke-miterlimit="10"/>
</g>
<g clip-path="url(#clip1_176_1447)">
<path d="M1998.15 2001.85H1.84839V3998.15H1998.15V2001.85Z" stroke="#DEDEDE" stroke-opacity="0.1" stroke-width="2" stroke-miterlimit="10"/>
<path d="M1.84839 3903.09H1998.15" stroke="#DEDEDE" stroke-opacity="0.1" stroke-width="2" stroke-miterlimit="10"/>
<path d="M1.84839 3808.02H1998.15" stroke="#DEDEDE" stroke-opacity="0.1" stroke-width="2" stroke-miterlimit="10"/>
<path d="M1.84839 3712.96H1998.15" stroke="#DEDEDE" stroke-opacity="0.1" stroke-width="2" stroke-miterlimit="10"/>
<path d="M1.84839 3617.91H1998.15" stroke="#DEDEDE" stroke-opacity="0.1" stroke-width="2" stroke-miterlimit="10"/>
<path d="M1.84839 3522.85H1998.15" stroke="#DEDEDE" stroke-opacity="0.1" stroke-width="2" stroke-miterlimit="10"/>
<path d="M1.84839 3427.78H1998.15" stroke="#DEDEDE" stroke-opacity="0.1" stroke-width="2" stroke-miterlimit="10"/>
<path d="M1.84839 3332.72H1998.15" stroke="#DEDEDE" stroke-opacity="0.1" stroke-width="2" stroke-miterlimit="10"/>
<path d="M1.84839 3237.65H1998.15" stroke="#DEDEDE" stroke-opacity="0.1" stroke-width="2" stroke-miterlimit="10"/>
<path d="M1.84839 3142.59H1998.15" stroke="#DEDEDE" stroke-opacity="0.1" stroke-width="2" stroke-miterlimit="10"/>
<path d="M1.84839 3047.53H1998.15" stroke="#DEDEDE" stroke-opacity="0.1" stroke-width="2" stroke-miterlimit="10"/>
<path d="M1.84839 2952.47H1998.15" stroke="#DEDEDE" stroke-opacity="0.1" stroke-width="2" stroke-miterlimit="10"/>
<path d="M1.84839 2857.41H1998.15" stroke="#DEDEDE" stroke-opacity="0.1" stroke-width="2" stroke-miterlimit="10"/>
<path d="M1.84839 2762.35H1998.15" stroke="#DEDEDE" stroke-opacity="0.1" stroke-width="2" stroke-miterlimit="10"/>
<path d="M1.84839 2667.28H1998.15" stroke="#DEDEDE" stroke-opacity="0.1" stroke-width="2" stroke-miterlimit="10"/>
<path d="M1.84839 2572.22H1998.15" stroke="#DEDEDE" stroke-opacity="0.1" stroke-width="2" stroke-miterlimit="10"/>
<path d="M1.84839 2477.15H1998.15" stroke="#DEDEDE" stroke-opacity="0.1" stroke-width="2" stroke-miterlimit="10"/>
<path d="M1.84839 2382.09H1998.15" stroke="#DEDEDE" stroke-opacity="0.1" stroke-width="2" stroke-miterlimit="10"/>
<path d="M1.84839 2287.04H1998.15" stroke="#DEDEDE" stroke-opacity="0.1" stroke-width="2" stroke-miterlimit="10"/>
<path d="M1.84839 2191.98H1998.15" stroke="#DEDEDE" stroke-opacity="0.1" stroke-width="2" stroke-miterlimit="10"/>
<path d="M1.84839 2096.91H1998.15" stroke="#DEDEDE" stroke-opacity="0.1" stroke-width="2" stroke-miterlimit="10"/>
<path d="M1903.09 2001.85V3998.15" stroke="#DEDEDE" stroke-opacity="0.1" stroke-width="2" stroke-miterlimit="10"/>
<path d="M1808.02 2001.85V3998.15" stroke="#DEDEDE" stroke-opacity="0.1" stroke-width="2" stroke-miterlimit="10"/>
<path d="M1712.96 2001.85V3998.15" stroke="#DEDEDE" stroke-opacity="0.1" stroke-width="2" stroke-miterlimit="10"/>
<path d="M1617.91 2001.85V3998.15" stroke="#DEDEDE" stroke-opacity="0.1" stroke-width="2" stroke-miterlimit="10"/>
<path d="M1522.85 2001.85V3998.15" stroke="#DEDEDE" stroke-opacity="0.1" stroke-width="2" stroke-miterlimit="10"/>
<path d="M1427.78 2001.85V3998.15" stroke="#DEDEDE" stroke-opacity="0.1" stroke-width="2" stroke-miterlimit="10"/>
<path d="M1332.72 2001.85V3998.15" stroke="#DEDEDE" stroke-opacity="0.1" stroke-width="2" stroke-miterlimit="10"/>
<path d="M1237.65 2001.85V3998.15" stroke="#DEDEDE" stroke-opacity="0.1" stroke-width="2" stroke-miterlimit="10"/>
<path d="M1142.59 2001.85V3998.15" stroke="#DEDEDE" stroke-opacity="0.1" stroke-width="2" stroke-miterlimit="10"/>
<path d="M1047.52 2001.85V3998.15" stroke="#DEDEDE" stroke-opacity="0.1" stroke-width="2" stroke-miterlimit="10"/>
<path d="M952.477 2001.85V3998.15" stroke="#DEDEDE" stroke-opacity="0.1" stroke-width="2" stroke-miterlimit="10"/>
<path d="M857.412 2001.85V3998.15" stroke="#DEDEDE" stroke-opacity="0.1" stroke-width="2" stroke-miterlimit="10"/>
<path d="M762.347 2001.85V3998.15" stroke="#DEDEDE" stroke-opacity="0.1" stroke-width="2" stroke-miterlimit="10"/>
<path d="M667.283 2001.85V3998.15" stroke="#DEDEDE" stroke-opacity="0.1" stroke-width="2" stroke-miterlimit="10"/>
<path d="M572.218 2001.85V3998.15" stroke="#DEDEDE" stroke-opacity="0.1" stroke-width="2" stroke-miterlimit="10"/>
<path d="M477.153 2001.85V3998.15" stroke="#DEDEDE" stroke-opacity="0.1" stroke-width="2" stroke-miterlimit="10"/>
<path d="M382.089 2001.85V3998.15" stroke="#DEDEDE" stroke-opacity="0.1" stroke-width="2" stroke-miterlimit="10"/>
<path d="M287.042 2001.85V3998.15" stroke="#DEDEDE" stroke-opacity="0.1" stroke-width="2" stroke-miterlimit="10"/>
<path d="M191.978 2001.85V3998.15" stroke="#DEDEDE" stroke-opacity="0.1" stroke-width="2" stroke-miterlimit="10"/>
<path d="M96.9131 2001.85V3998.15" stroke="#DEDEDE" stroke-opacity="0.1" stroke-width="2" stroke-miterlimit="10"/>
</g>
<g clip-path="url(#clip2_176_1447)">
<path d="M3998.15 1.84766H2001.85V1998.15H3998.15V1.84766Z" stroke="#DEDEDE" stroke-opacity="0.1" stroke-width="2" stroke-miterlimit="10"/>
<path d="M2001.85 1903.09H3998.15" stroke="#DEDEDE" stroke-opacity="0.1" stroke-width="2" stroke-miterlimit="10"/>
<path d="M2001.85 1808.02H3998.15" stroke="#DEDEDE" stroke-opacity="0.1" stroke-width="2" stroke-miterlimit="10"/>
<path d="M2001.85 1712.96H3998.15" stroke="#DEDEDE" stroke-opacity="0.1" stroke-width="2" stroke-miterlimit="10"/>
<path d="M2001.85 1617.91H3998.15" stroke="#DEDEDE" stroke-opacity="0.1" stroke-width="2" stroke-miterlimit="10"/>
<path d="M2001.85 1522.85H3998.15" stroke="#DEDEDE" stroke-opacity="0.1" stroke-width="2" stroke-miterlimit="10"/>
<path d="M2001.85 1427.78H3998.15" stroke="#DEDEDE" stroke-opacity="0.1" stroke-width="2" stroke-miterlimit="10"/>
<path d="M2001.85 1332.72H3998.15" stroke="#DEDEDE" stroke-opacity="0.1" stroke-width="2" stroke-miterlimit="10"/>
<path d="M2001.85 1237.65H3998.15" stroke="#DEDEDE" stroke-opacity="0.1" stroke-width="2" stroke-miterlimit="10"/>
<path d="M2001.85 1142.59H3998.15" stroke="#DEDEDE" stroke-opacity="0.1" stroke-width="2" stroke-miterlimit="10"/>
<path d="M2001.85 1047.53H3998.15" stroke="#DEDEDE" stroke-opacity="0.1" stroke-width="2" stroke-miterlimit="10"/>
<path d="M2001.85 952.475H3998.15" stroke="#DEDEDE" stroke-opacity="0.1" stroke-width="2" stroke-miterlimit="10"/>
<path d="M2001.85 857.41H3998.15" stroke="#DEDEDE" stroke-opacity="0.1" stroke-width="2" stroke-miterlimit="10"/>
<path d="M2001.85 762.348H3998.15" stroke="#DEDEDE" stroke-opacity="0.1" stroke-width="2" stroke-miterlimit="10"/>
<path d="M2001.85 667.283H3998.15" stroke="#DEDEDE" stroke-opacity="0.1" stroke-width="2" stroke-miterlimit="10"/>
<path d="M2001.85 572.219H3998.15" stroke="#DEDEDE" stroke-opacity="0.1" stroke-width="2" stroke-miterlimit="10"/>
<path d="M2001.85 477.154H3998.15" stroke="#DEDEDE" stroke-opacity="0.1" stroke-width="2" stroke-miterlimit="10"/>
<path d="M2001.85 382.09H3998.15" stroke="#DEDEDE" stroke-opacity="0.1" stroke-width="2" stroke-miterlimit="10"/>
<path d="M2001.85 287.041H3998.15" stroke="#DEDEDE" stroke-opacity="0.1" stroke-width="2" stroke-miterlimit="10"/>
<path d="M2001.85 191.977H3998.15" stroke="#DEDEDE" stroke-opacity="0.1" stroke-width="2" stroke-miterlimit="10"/>
<path d="M2001.85 96.9121H3998.15" stroke="#DEDEDE" stroke-opacity="0.1" stroke-width="2" stroke-miterlimit="10"/>
<path d="M3903.09 1.84766V1998.15" stroke="#DEDEDE" stroke-opacity="0.1" stroke-width="2" stroke-miterlimit="10"/>
<path d="M3808.02 1.84766V1998.15" stroke="#DEDEDE" stroke-opacity="0.1" stroke-width="2" stroke-miterlimit="10"/>
<path d="M3712.96 1.84766V1998.15" stroke="#DEDEDE" stroke-opacity="0.1" stroke-width="2" stroke-miterlimit="10"/>
<path d="M3617.91 1.84766V1998.15" stroke="#DEDEDE" stroke-opacity="0.1" stroke-width="2" stroke-miterlimit="10"/>
<path d="M3522.85 1.84766V1998.15" stroke="#DEDEDE" stroke-opacity="0.1" stroke-width="2" stroke-miterlimit="10"/>
<path d="M3427.78 1.84766V1998.15" stroke="#DEDEDE" stroke-opacity="0.1" stroke-width="2" stroke-miterlimit="10"/>
<path d="M3332.72 1.84766V1998.15" stroke="#DEDEDE" stroke-opacity="0.1" stroke-width="2" stroke-miterlimit="10"/>
<path d="M3237.65 1.84766V1998.15" stroke="#DEDEDE" stroke-opacity="0.1" stroke-width="2" stroke-miterlimit="10"/>
<path d="M3142.59 1.84766V1998.15" stroke="#DEDEDE" stroke-opacity="0.1" stroke-width="2" stroke-miterlimit="10"/>
<path d="M3047.52 1.84766V1998.15" stroke="#DEDEDE" stroke-opacity="0.1" stroke-width="2" stroke-miterlimit="10"/>
<path d="M2952.48 1.84766V1998.15" stroke="#DEDEDE" stroke-opacity="0.1" stroke-width="2" stroke-miterlimit="10"/>
<path d="M2857.41 1.84766V1998.15" stroke="#DEDEDE" stroke-opacity="0.1" stroke-width="2" stroke-miterlimit="10"/>
<path d="M2762.35 1.84766V1998.15" stroke="#DEDEDE" stroke-opacity="0.1" stroke-width="2" stroke-miterlimit="10"/>
<path d="M2667.28 1.84766V1998.15" stroke="#DEDEDE" stroke-opacity="0.1" stroke-width="2" stroke-miterlimit="10"/>
<path d="M2572.22 1.84766V1998.15" stroke="#DEDEDE" stroke-opacity="0.1" stroke-width="2" stroke-miterlimit="10"/>
<path d="M2477.15 1.84766V1998.15" stroke="#DEDEDE" stroke-opacity="0.1" stroke-width="2" stroke-miterlimit="10"/>
<path d="M2382.09 1.84766V1998.15" stroke="#DEDEDE" stroke-opacity="0.1" stroke-width="2" stroke-miterlimit="10"/>
<path d="M2287.04 1.84766V1998.15" stroke="#DEDEDE" stroke-opacity="0.1" stroke-width="2" stroke-miterlimit="10"/>
<path d="M2191.98 1.84766V1998.15" stroke="#DEDEDE" stroke-opacity="0.1" stroke-width="2" stroke-miterlimit="10"/>
<path d="M2096.91 1.84766V1998.15" stroke="#DEDEDE" stroke-opacity="0.1" stroke-width="2" stroke-miterlimit="10"/>
</g>
<g clip-path="url(#clip3_176_1447)">
<path d="M3998.15 2001.85H2001.85V3998.15H3998.15V2001.85Z" stroke="#DEDEDE" stroke-opacity="0.1" stroke-width="2" stroke-miterlimit="10"/>
<path d="M2001.85 3903.09H3998.15" stroke="#DEDEDE" stroke-opacity="0.1" stroke-width="2" stroke-miterlimit="10"/>
<path d="M2001.85 3808.02H3998.15" stroke="#DEDEDE" stroke-opacity="0.1" stroke-width="2" stroke-miterlimit="10"/>
<path d="M2001.85 3712.96H3998.15" stroke="#DEDEDE" stroke-opacity="0.1" stroke-width="2" stroke-miterlimit="10"/>
<path d="M2001.85 3617.91H3998.15" stroke="#DEDEDE" stroke-opacity="0.1" stroke-width="2" stroke-miterlimit="10"/>
<path d="M2001.85 3522.85H3998.15" stroke="#DEDEDE" stroke-opacity="0.1" stroke-width="2" stroke-miterlimit="10"/>
<path d="M2001.85 3427.78H3998.15" stroke="#DEDEDE" stroke-opacity="0.1" stroke-width="2" stroke-miterlimit="10"/>
<path d="M2001.85 3332.72H3998.15" stroke="#DEDEDE" stroke-opacity="0.1" stroke-width="2" stroke-miterlimit="10"/>
<path d="M2001.85 3237.65H3998.15" stroke="#DEDEDE" stroke-opacity="0.1" stroke-width="2" stroke-miterlimit="10"/>
<path d="M2001.85 3142.59H3998.15" stroke="#DEDEDE" stroke-opacity="0.1" stroke-width="2" stroke-miterlimit="10"/>
<path d="M2001.85 3047.53H3998.15" stroke="#DEDEDE" stroke-opacity="0.1" stroke-width="2" stroke-miterlimit="10"/>
<path d="M2001.85 2952.47H3998.15" stroke="#DEDEDE" stroke-opacity="0.1" stroke-width="2" stroke-miterlimit="10"/>
<path d="M2001.85 2857.41H3998.15" stroke="#DEDEDE" stroke-opacity="0.1" stroke-width="2" stroke-miterlimit="10"/>
<path d="M2001.85 2762.35H3998.15" stroke="#DEDEDE" stroke-opacity="0.1" stroke-width="2" stroke-miterlimit="10"/>
<path d="M2001.85 2667.28H3998.15" stroke="#DEDEDE" stroke-opacity="0.1" stroke-width="2" stroke-miterlimit="10"/>
<path d="M2001.85 2572.22H3998.15" stroke="#DEDEDE" stroke-opacity="0.1" stroke-width="2" stroke-miterlimit="10"/>
<path d="M2001.85 2477.15H3998.15" stroke="#DEDEDE" stroke-opacity="0.1" stroke-width="2" stroke-miterlimit="10"/>
<path d="M2001.85 2382.09H3998.15" stroke="#DEDEDE" stroke-opacity="0.1" stroke-width="2" stroke-miterlimit="10"/>
<path d="M2001.85 2287.04H3998.15" stroke="#DEDEDE" stroke-opacity="0.1" stroke-width="2" stroke-miterlimit="10"/>
<path d="M2001.85 2191.98H3998.15" stroke="#DEDEDE" stroke-opacity="0.1" stroke-width="2" stroke-miterlimit="10"/>
<path d="M2001.85 2096.91H3998.15" stroke="#DEDEDE" stroke-opacity="0.1" stroke-width="2" stroke-miterlimit="10"/>
<path d="M3903.09 2001.85V3998.15" stroke="#DEDEDE" stroke-opacity="0.1" stroke-width="2" stroke-miterlimit="10"/>
<path d="M3808.02 2001.85V3998.15" stroke="#DEDEDE" stroke-opacity="0.1" stroke-width="2" stroke-miterlimit="10"/>
<path d="M3712.96 2001.85V3998.15" stroke="#DEDEDE" stroke-opacity="0.1" stroke-width="2" stroke-miterlimit="10"/>
<path d="M3617.91 2001.85V3998.15" stroke="#DEDEDE" stroke-opacity="0.1" stroke-width="2" stroke-miterlimit="10"/>
<path d="M3522.85 2001.85V3998.15" stroke="#DEDEDE" stroke-opacity="0.1" stroke-width="2" stroke-miterlimit="10"/>
<path d="M3427.78 2001.85V3998.15" stroke="#DEDEDE" stroke-opacity="0.1" stroke-width="2" stroke-miterlimit="10"/>
<path d="M3332.72 2001.85V3998.15" stroke="#DEDEDE" stroke-opacity="0.1" stroke-width="2" stroke-miterlimit="10"/>
<path d="M3237.65 2001.85V3998.15" stroke="#DEDEDE" stroke-opacity="0.1" stroke-width="2" stroke-miterlimit="10"/>
<path d="M3142.59 2001.85V3998.15" stroke="#DEDEDE" stroke-opacity="0.1" stroke-width="2" stroke-miterlimit="10"/>
<path d="M3047.52 2001.85V3998.15" stroke="#DEDEDE" stroke-opacity="0.1" stroke-width="2" stroke-miterlimit="10"/>
<path d="M2952.48 2001.85V3998.15" stroke="#DEDEDE" stroke-opacity="0.1" stroke-width="2" stroke-miterlimit="10"/>
<path d="M2857.41 2001.85V3998.15" stroke="#DEDEDE" stroke-opacity="0.1" stroke-width="2" stroke-miterlimit="10"/>
<path d="M2762.35 2001.85V3998.15" stroke="#DEDEDE" stroke-opacity="0.1" stroke-width="2" stroke-miterlimit="10"/>
<path d="M2667.28 2001.85V3998.15" stroke="#DEDEDE" stroke-opacity="0.1" stroke-width="2" stroke-miterlimit="10"/>
<path d="M2572.22 2001.85V3998.15" stroke="#DEDEDE" stroke-opacity="0.1" stroke-width="2" stroke-miterlimit="10"/>
<path d="M2477.15 2001.85V3998.15" stroke="#DEDEDE" stroke-opacity="0.1" stroke-width="2" stroke-miterlimit="10"/>
<path d="M2382.09 2001.85V3998.15" stroke="#DEDEDE" stroke-opacity="0.1" stroke-width="2" stroke-miterlimit="10"/>
<path d="M2287.04 2001.85V3998.15" stroke="#DEDEDE" stroke-opacity="0.1" stroke-width="2" stroke-miterlimit="10"/>
<path d="M2191.98 2001.85V3998.15" stroke="#DEDEDE" stroke-opacity="0.1" stroke-width="2" stroke-miterlimit="10"/>
<path d="M2096.91 2001.85V3998.15" stroke="#DEDEDE" stroke-opacity="0.1" stroke-width="2" stroke-miterlimit="10"/>
</g>
<defs>
<clipPath id="clip0_176_1447">
<rect width="2000" height="2000" fill="white"/>
</clipPath>
<clipPath id="clip1_176_1447">
<rect width="2000" height="2000" fill="white" transform="translate(0 2000)"/>
</clipPath>
<clipPath id="clip2_176_1447">
<rect width="2000" height="2000" fill="white" transform="translate(2000)"/>
</clipPath>
<clipPath id="clip3_176_1447">
<rect width="2000" height="2000" fill="white" transform="translate(2000 2000)"/>
</clipPath>
</defs>
</svg>
