<svg width="445" height="287" viewBox="0 0 445 287" fill="none" xmlns="http://www.w3.org/2000/svg">
<path d="M150.835 76.9146H138.547V148.723H118.067V76.9146H105.651V59.1227H150.835V76.9146ZM173.274 59.1227V127.987C173.274 129.523 173.53 130.632 174.042 131.315C174.639 131.912 175.322 132.211 176.09 132.211C176.858 132.211 177.498 131.912 178.01 131.315C178.607 130.632 178.906 129.523 178.906 127.987V59.1227H199.386V126.323C199.386 134.088 197.295 139.976 193.114 143.987C188.933 147.997 183.13 150.003 175.706 150.003C168.367 150.003 162.693 148.04 158.682 144.115C154.757 140.104 152.794 134.173 152.794 126.323V59.1227H173.274ZM225.209 58.9947C232.718 58.9947 238.521 61 242.617 65.0107C246.713 68.936 248.761 74.952 248.761 83.0587V83.5707C248.761 87.24 248.334 90.4827 247.481 93.2987C246.713 96.0293 245.689 98.3333 244.409 100.211C243.129 102.003 241.721 103.411 240.185 104.435C238.649 105.373 237.156 105.885 235.705 105.971V107.379C237.156 107.464 238.649 108.061 240.185 109.171C241.721 110.195 243.129 111.645 244.409 113.523C245.689 115.4 246.713 117.704 247.481 120.435C248.334 123.08 248.761 126.067 248.761 129.395V130.419C248.761 134.088 248.804 137.373 248.889 140.275C249.06 143.176 249.444 145.992 250.041 148.723H229.689C229.092 145.992 228.708 143.133 228.537 140.147C228.452 137.075 228.409 133.789 228.409 130.291V119.923C228.409 118.301 228.153 117.192 227.641 116.595C227.129 115.912 226.233 115.571 224.953 115.571H222.777V148.723H202.297V58.9947H225.209ZM222.777 97.7787H224.953C226.233 97.7787 227.129 97.4373 227.641 96.7547C228.153 96.072 228.409 94.92 228.409 93.2987V81.1387C228.409 79.6027 228.153 78.4933 227.641 77.8107C227.129 77.128 226.233 76.7867 224.953 76.7867H222.777V97.7787ZM274.578 59.1227C282.173 59.1227 288.018 61 292.114 64.7547C296.21 68.5093 298.258 73.9707 298.258 81.1387V81.7787C298.258 85.1067 297.874 88.008 297.106 90.4827C296.338 92.9573 295.314 95.0907 294.034 96.8827C292.839 98.5893 291.474 99.912 289.938 100.851C288.402 101.704 286.866 102.173 285.33 102.259V103.667C286.781 103.752 288.359 104.307 290.066 105.331C291.773 106.269 293.351 107.677 294.802 109.555C296.253 111.432 297.447 113.693 298.386 116.339C299.325 118.899 299.794 121.8 299.794 125.043V126.579C299.794 133.576 297.575 139.037 293.138 142.963C288.701 146.803 282.557 148.723 274.706 148.723H251.922V59.1227H274.578ZM272.402 94.0667H274.322C275.687 94.0667 276.583 93.768 277.01 93.1707C277.522 92.488 277.778 91.336 277.778 89.7147V81.1387C277.778 79.5173 277.522 78.408 277.01 77.8107C276.583 77.128 275.687 76.7867 274.322 76.7867H272.402V94.0667ZM272.402 130.931H274.578C275.943 130.931 276.882 130.632 277.394 130.035C277.906 129.437 278.162 128.285 278.162 126.579V116.211C278.162 114.589 277.906 113.48 277.394 112.883C276.882 112.2 275.901 111.859 274.45 111.859H272.402V130.931ZM302.044 81.3947C302.044 73.544 304.049 67.656 308.06 63.7307C312.156 59.8053 317.873 57.8427 325.212 57.8427C332.636 57.8427 338.439 59.848 342.62 63.8587C346.887 67.784 349.02 73.6293 349.02 81.3947V126.323C349.02 134.088 346.887 139.976 342.62 143.987C338.439 147.997 332.636 150.003 325.212 150.003C317.873 150.003 312.156 148.04 308.06 144.115C304.049 140.104 302.044 134.173 302.044 126.323V81.3947ZM322.524 127.987C322.524 129.523 322.823 130.632 323.42 131.315C324.017 131.912 324.7 132.211 325.468 132.211C326.321 132.211 327.047 131.912 327.644 131.315C328.241 130.632 328.54 129.523 328.54 127.987V79.8587C328.54 78.2373 328.241 77.128 327.644 76.5307C327.047 75.9333 326.321 75.6347 325.468 75.6347C324.7 75.6347 324.017 75.9333 323.42 76.5307C322.823 77.128 322.524 78.2373 322.524 79.8587V127.987ZM129.587 177.123C136.926 177.123 142.686 178.957 146.867 182.627C151.134 186.211 153.267 191.843 153.267 199.523V244.323C153.267 252.003 151.134 257.677 146.867 261.347C142.686 264.931 136.926 266.723 129.587 266.723H106.547V177.123H129.587ZM127.155 248.931H129.459C130.568 248.931 131.379 248.675 131.891 248.163C132.488 247.565 132.787 246.413 132.787 244.707V199.139C132.787 197.432 132.488 196.323 131.891 195.811C131.379 195.213 130.568 194.915 129.459 194.915H127.155V248.931ZM176.652 194.915V210.787H188.94V228.579H176.652V248.931H189.324V266.723H156.172V177.123H189.196V194.915H176.652ZM218.162 208.355V197.859C218.162 195.043 217.223 193.635 215.346 193.635C213.383 193.635 212.402 195.043 212.402 197.859V204.515C212.402 205.624 212.487 206.605 212.658 207.459C212.829 208.227 213.255 208.995 213.938 209.763C214.706 210.531 215.773 211.384 217.138 212.323C218.589 213.176 220.551 214.243 223.026 215.523L226.866 217.315C229.17 218.509 231.09 219.832 232.626 221.283C234.162 222.648 235.357 224.312 236.21 226.275C237.149 228.152 237.789 230.413 238.13 233.059C238.557 235.704 238.77 238.861 238.77 242.531V244.323C238.77 251.917 236.679 257.763 232.498 261.859C228.402 265.955 222.557 268.003 214.962 268.003C207.453 268.003 201.693 265.997 197.682 261.987C193.757 257.976 191.794 252.088 191.794 244.323V235.491H212.274V245.859C212.274 248.76 213.298 250.211 215.346 250.211C217.309 250.211 218.29 248.803 218.29 245.987V239.075C218.29 237.88 218.205 236.899 218.034 236.131C217.863 235.363 217.437 234.637 216.754 233.955C216.071 233.187 215.09 232.419 213.81 231.651C212.53 230.797 210.738 229.773 208.434 228.579L203.954 226.403C201.65 225.208 199.73 223.885 198.194 222.435C196.658 220.984 195.421 219.235 194.482 217.187C193.543 215.139 192.861 212.792 192.434 210.147C192.093 207.416 191.922 204.259 191.922 200.675V199.395C191.922 191.629 193.885 185.784 197.81 181.859C201.735 177.848 207.453 175.843 214.962 175.843C222.471 175.843 228.274 177.891 232.37 181.987C236.551 186.083 238.642 191.885 238.642 199.395V208.355H218.162ZM262.024 245.859C262.024 247.309 262.28 248.419 262.792 249.187C263.389 249.869 264.072 250.211 264.84 250.211C265.693 250.211 266.419 249.784 267.016 248.931C267.699 248.077 268.04 246.755 268.04 244.963V230.499H264.328V217.187H288.52V266.723H274.568V258.659H273.16C272.307 261.645 270.557 263.949 267.912 265.571C265.352 267.192 262.579 268.003 259.592 268.003C257.459 268.003 255.325 267.576 253.192 266.723C251.059 265.784 249.096 264.376 247.304 262.499C245.597 260.536 244.189 258.061 243.08 255.075C242.056 252.088 241.544 248.504 241.544 244.323V199.267C241.544 191.416 243.549 185.571 247.56 181.731C251.656 177.805 257.373 175.843 264.712 175.843C272.136 175.843 277.939 177.848 282.12 181.859C286.387 185.784 288.52 191.587 288.52 199.267V213.731H268.04V197.859C268.04 196.237 267.741 195.128 267.144 194.531C266.547 193.848 265.864 193.507 265.096 193.507C264.243 193.507 263.517 193.848 262.92 194.531C262.323 195.128 262.024 196.237 262.024 197.859V245.859ZM339.806 177.123V266.723H317.534L308.446 213.091H307.294L311.774 266.723H291.294V177.123H313.566L323.166 231.139H324.318L319.326 177.123H339.806Z" fill="#3E3E3E"/>
<path d="M36.9816 22.1367L76.9859 49.4121H60.6205L71.0813 76.6878L36.9816 131.239L76.9859 162.986L60.6205 209.429L76.9859 240.342L60.6205 262.124L86.8181 268.637L36.9816 282.165L60.6205 240.342L36.9816 209.429L60.6205 169.425L4.25071 131.239L51.5286 76.6878L36.9816 22.1367Z" fill="#3E3E3E" stroke="#3E3E3E" stroke-width="5"/>
<path d="M407.554 22.1367L367.55 49.4121H383.915L373.454 76.6878L407.554 131.239L367.55 162.986L383.915 209.429L367.55 240.342L383.915 262.124L357.718 268.637L407.554 282.165L383.915 240.342L407.554 209.429L383.915 169.425L440.285 131.239L393.007 76.6878L407.554 22.1367Z" fill="#3E3E3E" stroke="#3E3E3E" stroke-width="5"/>
<path d="M139.68 24.0247L133.596 15.9607H139.716L142.992 20.5327L145.8 15.9607H151.992L145.728 24.0247L153.18 33.6367H146.988L142.452 27.4807L138.384 33.6367H132.12L139.68 24.0247ZM170.022 25.6087H158.394C158.394 27.8407 159.258 30.3607 161.886 30.3607C163.542 30.3607 164.586 29.3527 165.27 27.9487L169.914 28.7047C168.69 32.2327 165.594 34.2127 161.886 34.2127C156.414 34.2127 153.066 30.3247 153.066 24.9607C153.066 19.5967 155.91 15.3847 161.634 15.3847C167.43 15.3847 170.022 19.6687 170.022 24.9967V25.6087ZM158.538 22.4767H165.27C165.018 20.6767 163.866 18.9127 161.922 18.9127C159.906 18.9127 158.79 20.6407 158.538 22.4767ZM177.401 15.9607V17.5807H177.473C178.517 15.9967 180.281 15.3847 182.081 15.3847C186.833 15.3847 188.201 18.7327 188.201 22.8367V33.6367H183.161V24.2767C183.161 22.1527 183.269 19.4167 180.425 19.4167C177.437 19.4167 177.401 22.7647 177.401 24.8887V33.6367H172.361V15.9607H177.401ZM199.866 15.3847C205.374 15.3847 209.154 19.3087 209.154 24.8167C209.154 30.2887 205.41 34.2127 199.866 34.2127C194.322 34.2127 190.578 30.2887 190.578 24.8167C190.578 19.3087 194.358 15.3847 199.866 15.3847ZM199.866 19.8487C197.274 19.8487 195.69 22.3687 195.69 24.8167C195.69 27.1927 197.274 29.7487 199.866 29.7487C202.458 29.7487 204.042 27.1927 204.042 24.8167C204.042 22.3687 202.458 19.8487 199.866 19.8487ZM216.637 24.0247L210.553 15.9607H216.673L219.949 20.5327L222.757 15.9607H228.949L222.685 24.0247L230.137 33.6367H223.945L219.409 27.4807L215.341 33.6367H209.077L216.637 24.0247ZM236.503 20.2087V33.6367H231.463V20.2087H229.771V15.9607H231.463V10.7767C231.463 6.45672 233.263 2.67672 238.123 2.67672C238.951 2.67672 239.779 2.85672 240.535 3.25272V7.75272C239.887 7.42872 239.239 7.14072 238.483 7.14072C236.251 7.14072 236.503 10.0567 236.503 11.4967V15.9607H240.535V20.2087H236.503ZM250.245 15.3847C255.753 15.3847 259.533 19.3087 259.533 24.8167C259.533 30.2887 255.789 34.2127 250.245 34.2127C244.701 34.2127 240.957 30.2887 240.957 24.8167C240.957 19.3087 244.737 15.3847 250.245 15.3847ZM250.245 19.8487C247.653 19.8487 246.069 22.3687 246.069 24.8167C246.069 27.1927 247.653 29.7487 250.245 29.7487C252.837 29.7487 254.421 27.1927 254.421 24.8167C254.421 22.3687 252.837 19.8487 250.245 19.8487ZM266.944 15.9607V17.7967H267.016C268.024 16.2487 269.536 15.3847 271.408 15.3847C272.128 15.3847 272.848 15.5647 273.496 15.8167L272.884 20.4967C272.272 20.0647 271.552 19.8487 270.796 19.8487C267.304 19.8487 266.944 22.9447 266.944 25.6807V33.6367H261.904V15.9607H266.944ZM291.755 15.9607V32.5567C291.755 38.3167 289.811 43.0687 283.187 43.0687C278.867 43.0687 274.511 40.4407 274.259 35.7247H279.587C279.839 37.5967 281.171 38.8207 283.079 38.8207C286.643 38.8207 286.715 35.6887 286.715 33.0247V31.8727H286.643C285.563 33.3127 283.691 34.2127 281.819 34.2127C276.635 34.2127 273.863 29.6767 273.863 24.9247C273.863 20.0647 276.815 15.3847 282.071 15.3847C283.835 15.3847 285.635 16.2847 286.643 17.6527H286.715V15.9607H291.755ZM283.151 29.7487C285.743 29.7487 287.327 27.1927 287.327 24.8167C287.327 22.4407 285.743 19.8487 283.151 19.8487C280.559 19.8487 278.975 22.4407 278.975 24.8167C278.975 27.1927 280.559 29.7487 283.151 29.7487ZM311.033 25.6087H299.405C299.405 27.8407 300.269 30.3607 302.897 30.3607C304.553 30.3607 305.597 29.3527 306.281 27.9487L310.925 28.7047C309.701 32.2327 306.605 34.2127 302.897 34.2127C297.425 34.2127 294.077 30.3247 294.077 24.9607C294.077 19.5967 296.921 15.3847 302.645 15.3847C308.441 15.3847 311.033 19.6687 311.033 24.9967V25.6087ZM299.549 22.4767H306.281C306.029 20.6767 304.877 18.9127 302.933 18.9127C300.917 18.9127 299.801 20.6407 299.549 22.4767Z" fill="#3E3E3E"/>
</svg>
