<svg width="1169" height="854" viewBox="0 0 1169 854" fill="none" xmlns="http://www.w3.org/2000/svg">
<path d="M990.768 242.651C976.063 242.651 961.853 244.777 948.351 248.605C947.714 163.05 878.362 93.7982 792.821 93.7982C767.512 93.7982 743.688 99.8941 722.55 110.668C673.417 56.7977 602.721 22.916 524.179 22.916C387.949 22.916 275.473 124.561 258.011 256.331C243.801 252.078 228.743 249.739 213.12 249.739C127.225 249.739 57.5901 319.558 57.5901 405.68C57.5901 422.55 60.2765 438.782 65.2252 454.022C38.573 482.02 22.2424 519.871 22.2424 561.621C22.2424 647.743 91.8773 717.561 177.772 717.561C199.617 717.561 220.401 713.025 239.277 704.874C267.202 746.694 314.709 774.267 368.649 774.267C397.564 774.267 424.64 766.328 447.828 752.577C496.396 801.061 563.344 830.973 637.291 830.973C785.681 830.973 905.933 710.402 905.933 561.621C905.933 550.209 905.156 538.938 903.742 527.881C928.556 544.751 958.531 554.532 990.768 554.532C1076.66 554.532 1146.3 484.714 1146.3 398.592C1146.3 312.47 1076.66 242.651 990.768 242.651Z" fill="#C1FF5C" stroke="white" stroke-width="44.2362" stroke-miterlimit="10"/>
</svg>
