<svg width="465" height="287" viewBox="0 0 465 287" fill="none" xmlns="http://www.w3.org/2000/svg">
<path d="M150.478 77.0871H138.19V148.895H117.71V77.0871H105.294V59.2951H150.478V77.0871ZM172.917 59.2951V128.159C172.917 129.695 173.173 130.804 173.685 131.487C174.283 132.084 174.965 132.383 175.733 132.383C176.501 132.383 177.141 132.084 177.653 131.487C178.251 130.804 178.549 129.695 178.549 128.159V59.2951H199.029V126.495C199.029 134.26 196.939 140.148 192.757 144.159C188.576 148.17 182.773 150.175 175.349 150.175C168.011 150.175 162.336 148.212 158.325 144.287C154.4 140.276 152.437 134.346 152.437 126.495V59.2951H172.917ZM224.852 59.1671C232.362 59.1671 238.164 61.1725 242.26 65.1831C246.356 69.1085 248.404 75.1245 248.404 83.2311V83.7431C248.404 87.4125 247.978 90.6551 247.124 93.4711C246.356 96.2018 245.332 98.5058 244.052 100.383C242.772 102.175 241.364 103.583 239.828 104.607C238.292 105.546 236.799 106.058 235.348 106.143V107.551C236.799 107.636 238.292 108.234 239.828 109.343C241.364 110.367 242.772 111.818 244.052 113.695C245.332 115.572 246.356 117.876 247.124 120.607C247.978 123.252 248.404 126.239 248.404 129.567V130.591C248.404 134.26 248.447 137.546 248.532 140.447C248.703 143.348 249.087 146.164 249.684 148.895H229.332C228.735 146.164 228.351 143.306 228.18 140.319C228.095 137.247 228.052 133.962 228.052 130.463V120.095C228.052 118.474 227.796 117.364 227.284 116.767C226.772 116.084 225.876 115.743 224.596 115.743H222.42V148.895H201.94V59.1671H224.852ZM222.42 97.9511H224.596C225.876 97.9511 226.772 97.6098 227.284 96.9271C227.796 96.2445 228.052 95.0925 228.052 93.4711V81.3111C228.052 79.7751 227.796 78.6658 227.284 77.9831C226.772 77.3005 225.876 76.9591 224.596 76.9591H222.42V97.9511ZM274.221 59.2951C281.816 59.2951 287.661 61.1725 291.757 64.9271C295.853 68.6818 297.901 74.1431 297.901 81.3111V81.9511C297.901 85.2791 297.517 88.1805 296.749 90.6551C295.981 93.1298 294.957 95.2631 293.677 97.0551C292.483 98.7618 291.117 100.084 289.581 101.023C288.045 101.876 286.509 102.346 284.973 102.431V103.839C286.424 103.924 288.003 104.479 289.709 105.503C291.416 106.442 292.995 107.85 294.445 109.727C295.896 111.604 297.091 113.866 298.029 116.511C298.968 119.071 299.437 121.972 299.437 125.215V126.751C299.437 133.748 297.219 139.21 292.781 143.135C288.344 146.975 282.2 148.895 274.349 148.895H251.565V59.2951H274.221ZM272.045 94.2391H273.965C275.331 94.2391 276.227 93.9405 276.653 93.3431C277.165 92.6605 277.421 91.5085 277.421 89.8871V81.3111C277.421 79.6898 277.165 78.5805 276.653 77.9831C276.227 77.3005 275.331 76.9591 273.965 76.9591H272.045V94.2391ZM272.045 131.103H274.221C275.587 131.103 276.525 130.804 277.037 130.207C277.549 129.61 277.805 128.458 277.805 126.751V116.383C277.805 114.762 277.549 113.652 277.037 113.055C276.525 112.372 275.544 112.031 274.093 112.031H272.045V131.103ZM301.687 81.5671C301.687 73.7165 303.693 67.8285 307.703 63.9031C311.799 59.9778 317.517 58.0151 324.855 58.0151C332.279 58.0151 338.082 60.0205 342.263 64.0311C346.53 67.9565 348.663 73.8018 348.663 81.5671V126.495C348.663 134.26 346.53 140.148 342.263 144.159C338.082 148.17 332.279 150.175 324.855 150.175C317.517 150.175 311.799 148.212 307.703 144.287C303.693 140.276 301.687 134.346 301.687 126.495V81.5671ZM322.167 128.159C322.167 129.695 322.466 130.804 323.063 131.487C323.661 132.084 324.343 132.383 325.111 132.383C325.965 132.383 326.69 132.084 327.287 131.487C327.885 130.804 328.183 129.695 328.183 128.159V80.0311C328.183 78.4098 327.885 77.3005 327.287 76.7031C326.69 76.1058 325.965 75.8071 325.111 75.8071C324.343 75.8071 323.661 76.1058 323.063 76.7031C322.466 77.3005 322.167 78.4098 322.167 80.0311V128.159ZM132.558 177.295L135.118 231.311H136.526L139.086 177.295H165.326V266.895H146.51L148.814 213.263H147.406L142.158 266.895H129.358L123.982 213.263H122.574L125.006 266.895H106.19V177.295H132.558ZM188.795 195.087V210.959H201.083V228.751H188.795V249.103H201.467V266.895H168.315V177.295H201.339V195.087H188.795ZM230.433 177.295L232.993 231.311H234.401L236.961 177.295H263.201V266.895H244.385L246.689 213.263H245.281L240.033 266.895H227.233L221.857 213.263H220.449L222.881 266.895H204.065V177.295H230.433ZM288.846 177.295C296.441 177.295 302.286 179.172 306.382 182.927C310.478 186.682 312.526 192.143 312.526 199.311V199.951C312.526 203.279 312.142 206.18 311.374 208.655C310.606 211.13 309.582 213.263 308.302 215.055C307.108 216.762 305.742 218.084 304.206 219.023C302.67 219.876 301.134 220.346 299.598 220.431V221.839C301.049 221.924 302.628 222.479 304.334 223.503C306.041 224.442 307.62 225.85 309.07 227.727C310.521 229.604 311.716 231.866 312.654 234.511C313.593 237.071 314.062 239.972 314.062 243.215V244.751C314.062 251.748 311.844 257.21 307.406 261.135C302.969 264.975 296.825 266.895 288.974 266.895H266.19V177.295H288.846ZM286.67 212.239H288.59C289.956 212.239 290.852 211.94 291.278 211.343C291.79 210.66 292.046 209.508 292.046 207.887V199.311C292.046 197.69 291.79 196.58 291.278 195.983C290.852 195.3 289.956 194.959 288.59 194.959H286.67V212.239ZM286.67 249.103H288.846C290.212 249.103 291.15 248.804 291.662 248.207C292.174 247.61 292.43 246.458 292.43 244.751V234.383C292.43 232.762 292.174 231.652 291.662 231.055C291.15 230.372 290.169 230.031 288.718 230.031H286.67V249.103ZM339.352 177.167C346.862 177.167 352.664 179.172 356.76 183.183C360.856 187.108 362.904 193.124 362.904 201.231V201.743C362.904 205.412 362.478 208.655 361.624 211.471C360.856 214.202 359.832 216.506 358.552 218.383C357.272 220.175 355.864 221.583 354.328 222.607C352.792 223.546 351.299 224.058 349.848 224.143V225.551C351.299 225.636 352.792 226.234 354.328 227.343C355.864 228.367 357.272 229.818 358.552 231.695C359.832 233.572 360.856 235.876 361.624 238.607C362.478 241.252 362.904 244.239 362.904 247.567V248.591C362.904 252.26 362.947 255.546 363.032 258.447C363.203 261.348 363.587 264.164 364.184 266.895H343.832C343.235 264.164 342.851 261.306 342.68 258.319C342.595 255.247 342.552 251.962 342.552 248.463V238.095C342.552 236.474 342.296 235.364 341.784 234.767C341.272 234.084 340.376 233.743 339.096 233.743H336.92V266.895H316.44V177.167H339.352ZM336.92 215.951H339.096C340.376 215.951 341.272 215.61 341.784 214.927C342.296 214.244 342.552 213.092 342.552 211.471V199.311C342.552 197.775 342.296 196.666 341.784 195.983C341.272 195.3 340.376 194.959 339.096 194.959H336.92V215.951Z" fill="#3E3E3E"/>
<path d="M36.625 22.3092L76.6293 49.5846H60.2638L70.7247 76.8603L36.625 131.412L76.6293 163.158L60.2638 209.602L76.6293 240.514L60.2638 262.297L86.4614 268.81L36.625 282.337L60.2638 240.514L36.625 209.602L60.2638 169.598L3.89408 131.412L51.172 76.8603L36.625 22.3092Z" fill="#3E3E3E" stroke="#3E3E3E" stroke-width="5"/>
<path d="M428.197 22.3092L388.193 49.5846H404.558L394.098 76.8603L428.197 131.412L388.193 163.158L404.558 209.602L388.193 240.514L404.558 262.297L378.361 268.81L428.197 282.337L404.558 240.514L428.197 209.602L404.558 169.598L460.928 131.412L413.65 76.8603L428.197 22.3092Z" fill="#3E3E3E" stroke="#3E3E3E" stroke-width="5"/>
<path d="M149.823 24.1972L143.739 16.1332H149.859L153.135 20.7052L155.943 16.1332H162.135L155.871 24.1972L163.323 33.8092H157.131L152.595 27.6532L148.527 33.8092H142.263L149.823 24.1972ZM180.165 25.7812H168.537C168.537 28.0132 169.401 30.5332 172.029 30.5332C173.685 30.5332 174.729 29.5252 175.413 28.1212L180.057 28.8772C178.833 32.4052 175.737 34.3852 172.029 34.3852C166.557 34.3852 163.209 30.4972 163.209 25.1332C163.209 19.7692 166.053 15.5572 171.777 15.5572C177.573 15.5572 180.165 19.8412 180.165 25.1692V25.7812ZM168.681 22.6492H175.413C175.161 20.8492 174.009 19.0852 172.065 19.0852C170.049 19.0852 168.933 20.8132 168.681 22.6492ZM187.544 16.1332V17.7532H187.616C188.66 16.1692 190.424 15.5572 192.224 15.5572C196.976 15.5572 198.344 18.9052 198.344 23.0092V33.8092H193.304V24.4492C193.304 22.3252 193.412 19.5892 190.568 19.5892C187.58 19.5892 187.544 22.9372 187.544 25.0612V33.8092H182.504V16.1332H187.544ZM210.01 15.5572C215.518 15.5572 219.298 19.4812 219.298 24.9892C219.298 30.4612 215.554 34.3852 210.01 34.3852C204.466 34.3852 200.722 30.4612 200.722 24.9892C200.722 19.4812 204.502 15.5572 210.01 15.5572ZM210.01 20.0212C207.418 20.0212 205.834 22.5412 205.834 24.9892C205.834 27.3652 207.418 29.9212 210.01 29.9212C212.602 29.9212 214.186 27.3652 214.186 24.9892C214.186 22.5412 212.602 20.0212 210.01 20.0212ZM226.78 24.1972L220.696 16.1332H226.816L230.092 20.7052L232.9 16.1332H239.092L232.828 24.1972L240.28 33.8092H234.088L229.552 27.6532L225.484 33.8092H219.22L226.78 24.1972ZM246.646 20.3812V33.8092H241.606V20.3812H239.914V16.1332H241.606V10.9492C241.606 6.6292 243.406 2.8492 248.266 2.8492C249.094 2.8492 249.922 3.0292 250.678 3.4252V7.9252C250.03 7.6012 249.382 7.3132 248.626 7.3132C246.394 7.3132 246.646 10.2292 246.646 11.6692V16.1332H250.678V20.3812H246.646ZM260.388 15.5572C265.896 15.5572 269.676 19.4812 269.676 24.9892C269.676 30.4612 265.932 34.3852 260.388 34.3852C254.844 34.3852 251.1 30.4612 251.1 24.9892C251.1 19.4812 254.88 15.5572 260.388 15.5572ZM260.388 20.0212C257.796 20.0212 256.212 22.5412 256.212 24.9892C256.212 27.3652 257.796 29.9212 260.388 29.9212C262.98 29.9212 264.564 27.3652 264.564 24.9892C264.564 22.5412 262.98 20.0212 260.388 20.0212ZM277.087 16.1332V17.9692H277.159C278.167 16.4212 279.679 15.5572 281.551 15.5572C282.271 15.5572 282.991 15.7372 283.639 15.9892L283.027 20.6692C282.415 20.2372 281.695 20.0212 280.939 20.0212C277.447 20.0212 277.087 23.1172 277.087 25.8532V33.8092H272.047V16.1332H277.087ZM301.898 16.1332V32.7292C301.898 38.4892 299.954 43.2412 293.33 43.2412C289.01 43.2412 284.654 40.6132 284.402 35.8972H289.73C289.982 37.7692 291.314 38.9932 293.222 38.9932C296.786 38.9932 296.858 35.8612 296.858 33.1972V32.0452H296.786C295.706 33.4852 293.834 34.3852 291.962 34.3852C286.778 34.3852 284.006 29.8492 284.006 25.0972C284.006 20.2372 286.958 15.5572 292.214 15.5572C293.978 15.5572 295.778 16.4572 296.786 17.8252H296.858V16.1332H301.898ZM293.294 29.9212C295.886 29.9212 297.47 27.3652 297.47 24.9892C297.47 22.6132 295.886 20.0212 293.294 20.0212C290.702 20.0212 289.118 22.6132 289.118 24.9892C289.118 27.3652 290.702 29.9212 293.294 29.9212ZM321.177 25.7812H309.549C309.549 28.0132 310.413 30.5332 313.041 30.5332C314.697 30.5332 315.741 29.5252 316.425 28.1212L321.069 28.8772C319.845 32.4052 316.749 34.3852 313.041 34.3852C307.569 34.3852 304.221 30.4972 304.221 25.1332C304.221 19.7692 307.065 15.5572 312.789 15.5572C318.585 15.5572 321.177 19.8412 321.177 25.1692V25.7812ZM309.693 22.6492H316.425C316.173 20.8492 315.021 19.0852 313.077 19.0852C311.061 19.0852 309.945 20.8132 309.693 22.6492Z" fill="#3E3E3E"/>
</svg>
