<svg width="690" height="155" viewBox="0 0 690 155" fill="none" xmlns="http://www.w3.org/2000/svg">
<path d="M36.022 28.0558C36.022 29.716 35.6069 32.1818 34.7769 35.4533C33.9956 38.6759 32.9946 42.4113 31.7739 46.6593C30.5532 50.9074 29.2349 55.5216 27.8188 60.5021C26.4028 65.4826 25.0845 70.5363 23.8638 75.6632C22.6431 80.7902 21.6177 85.8439 20.7876 90.8244C20.0063 95.756 19.6157 100.346 19.6157 104.594C19.6157 108.061 19.8354 111.308 20.2749 114.335C20.7632 117.314 21.4956 119.926 22.4722 122.172C23.4487 124.369 24.6694 126.103 26.1343 127.372C27.5991 128.642 29.3325 129.277 31.3345 129.277C33.3364 129.277 35.2651 128.691 37.1206 127.519C39.0249 126.347 40.856 124.736 42.6138 122.685C44.3716 120.634 46.0562 118.193 47.6675 115.361C49.2788 112.528 50.8169 109.477 52.2817 106.205C53.7954 102.885 55.2114 99.4181 56.5298 95.8048C57.8481 92.1427 59.0933 88.4562 60.2651 84.7453C64.3667 71.6593 68.0044 56.7912 71.1782 40.1408C71.7642 37.4552 72.4478 35.2091 73.229 33.4025C74.0591 31.5959 75.0356 30.1554 76.1587 29.0812C77.2817 28.007 78.5757 27.2502 80.0405 26.8107C81.5542 26.3712 83.2876 26.1515 85.2407 26.1515C87.0962 26.1515 88.6099 26.3224 89.7817 26.6642C91.0024 27.006 91.9546 27.4699 92.6382 28.0558C93.3706 28.6418 93.8833 29.3498 94.1763 30.1798C94.4692 31.0099 94.6157 31.9377 94.6157 32.963C94.6157 33.3048 94.4204 34.7453 94.0298 37.2843C93.6392 39.7746 93.1265 42.9972 92.4917 46.9523C91.9058 50.8586 91.2466 55.3019 90.5142 60.2824C89.8306 65.2628 89.1714 70.3898 88.5366 75.6632C87.9507 80.8878 87.4624 86.0636 87.0718 91.1906C86.6812 96.3175 86.4858 101.029 86.4858 105.326C86.4858 109.721 86.6323 113.7 86.9253 117.265C87.2671 120.78 87.8042 123.783 88.5366 126.274C89.3179 128.764 90.3188 130.668 91.5396 131.986C92.7603 133.305 94.2739 133.964 96.0806 133.964C99.2056 133.964 102.038 132.743 104.577 130.302C107.165 127.861 109.508 124.613 111.608 120.561C113.756 116.459 115.661 111.723 117.321 106.352C119.03 100.981 120.519 95.3654 121.789 89.506C123.107 83.6466 124.23 77.7384 125.158 71.7814C126.134 65.8244 126.94 60.2091 127.575 54.9357C128.209 49.6134 128.698 44.8527 129.04 40.6535C129.43 36.4054 129.699 33.0851 129.845 30.6925C129.992 28.2023 130.431 26.2003 131.164 24.6867C131.945 23.173 132.921 22.0011 134.093 21.1711C135.265 20.341 136.583 19.8039 138.048 19.5597C139.562 19.2668 141.1 19.1203 142.663 19.1203C143.883 19.1203 144.982 19.2668 145.958 19.5597C146.984 19.8039 147.863 20.2677 148.595 20.9513C149.328 21.5861 149.889 22.465 150.28 23.588C150.67 24.6623 150.866 26.0539 150.866 27.7628C150.866 32.4992 150.548 37.6261 149.914 43.1437C149.328 48.6125 148.571 54.1056 147.643 59.6232C146.764 65.1408 145.788 70.5119 144.713 75.7365C143.688 80.9611 142.711 85.673 141.784 89.8722C140.905 94.0714 140.148 97.6115 139.513 100.492C138.927 103.373 138.634 105.204 138.634 105.986C138.634 107.89 138.903 109.526 139.44 110.893C139.977 112.211 140.685 113.31 141.564 114.189C142.492 115.068 143.566 115.702 144.787 116.093C146.056 116.484 147.399 116.679 148.815 116.679C150.231 116.679 151.671 116.361 153.136 115.727C154.65 115.043 156.09 114.115 157.458 112.944C158.825 111.772 160.07 110.38 161.193 108.769C162.365 107.109 163.341 105.277 164.123 103.276L165.368 118.437C161.754 122.587 158.019 125.859 154.162 128.251C150.353 130.644 146.764 131.84 143.395 131.84C141.784 131.84 140.27 131.596 138.854 131.108C137.438 130.57 136.168 129.765 135.045 128.691C133.971 127.616 133.068 126.225 132.335 124.516C131.603 122.807 131.09 120.78 130.797 118.437C128.356 122.978 125.719 127.079 122.887 130.741C120.104 134.355 117.125 137.455 113.952 140.043C110.827 142.582 107.531 144.535 104.064 145.902C100.646 147.319 97.106 148.027 93.4438 148.027C88.8052 148.027 84.8501 146.806 81.5786 144.364C78.356 141.923 75.7192 138.603 73.6685 134.403C71.6665 130.204 70.2017 125.273 69.2739 119.609C68.3462 113.944 67.8823 107.914 67.8823 101.518C67.8823 99.174 68.0044 96.9767 68.2485 94.9259C68.4927 92.8752 68.688 91.0441 68.8345 89.4328C67.0767 100.566 64.855 109.892 62.1694 117.411C59.5327 124.882 56.4077 130.888 52.7944 135.429C49.23 139.97 45.1284 143.193 40.4897 145.097C35.8999 147.05 30.7974 148.027 25.1821 148.027C21.9595 148.027 18.8833 146.952 15.9536 144.804C13.0239 142.704 10.436 139.555 8.18994 135.356C5.99268 131.156 4.21045 125.907 2.84326 119.609C1.5249 113.261 0.865723 105.863 0.865723 97.4162C0.865723 92.2404 1.15869 86.9425 1.74463 81.5226C2.33057 76.0539 3.16064 70.5851 4.23486 65.1164C5.35791 59.6476 6.7251 54.2277 8.33643 48.8566C9.94775 43.4855 11.7788 38.2609 13.8296 33.1828C15.0503 30.3507 16.271 28.1535 17.4917 26.591C18.7124 24.9796 19.9575 23.8078 21.2271 23.0753C22.4966 22.2941 23.7661 21.8302 25.0356 21.6837C26.354 21.5373 27.6724 21.464 28.9907 21.464C30.0649 21.464 31.0415 21.5373 31.9204 21.6837C32.7993 21.8302 33.5317 22.1476 34.1177 22.6359C34.7524 23.0753 35.2163 23.7345 35.5093 24.6134C35.8511 25.4435 36.022 26.591 36.022 28.0558ZM182.653 140.995C178.063 140.995 174.035 140.165 170.568 138.505C167.15 136.845 164.293 134.623 161.999 131.84C159.704 129.008 157.97 125.761 156.798 122.099C155.675 118.388 155.114 114.506 155.114 110.453C155.114 107.719 155.382 104.838 155.919 101.811C156.457 98.7345 157.262 95.7316 158.336 92.8019C159.459 89.8722 160.851 87.089 162.511 84.4523C164.171 81.7668 166.1 79.423 168.297 77.4211C170.543 75.3703 173.034 73.7589 175.768 72.5871C178.551 71.3664 181.627 70.756 184.997 70.756C187.731 70.756 190.27 71.1955 192.614 72.0744C194.958 72.9533 196.984 74.1984 198.693 75.8097C200.451 77.3722 201.818 79.2765 202.794 81.5226C203.771 83.7687 204.259 86.2834 204.259 89.0666C204.259 92.0939 203.502 95.1212 201.989 98.1486C200.524 101.176 198.473 104.032 195.836 106.718C193.2 109.403 190.05 111.796 186.388 113.896C182.775 115.995 178.844 117.631 174.596 118.803C175.329 120.121 176.037 121.22 176.72 122.099C177.453 122.978 178.185 123.661 178.917 124.15C179.65 124.638 180.407 124.98 181.188 125.175C182.018 125.37 182.897 125.468 183.825 125.468C186.754 125.468 189.831 124.882 193.053 123.71C196.325 122.538 199.499 121.073 202.575 119.316C205.651 117.558 208.556 115.653 211.291 113.603C214.025 111.503 216.344 109.526 218.249 107.67L227.697 117.485C223.4 121.928 218.834 125.859 214 129.277C211.901 130.741 209.63 132.182 207.189 133.598C204.796 135.014 202.257 136.283 199.572 137.406C196.935 138.481 194.176 139.36 191.295 140.043C188.463 140.678 185.583 140.995 182.653 140.995ZM172.912 106.571C174.669 106.571 176.574 106.132 178.625 105.253C180.724 104.325 182.653 103.153 184.411 101.737C186.217 100.321 187.731 98.7834 188.952 97.1232C190.172 95.463 190.783 93.8517 190.783 92.2892C190.783 90.0919 190.368 88.2853 189.538 86.8693C188.756 85.4533 187.78 84.7453 186.608 84.7453C184.508 84.7453 182.702 85.1359 181.188 85.9171C179.723 86.6984 178.478 87.7238 177.453 88.9933C176.476 90.214 175.67 91.63 175.036 93.2414C174.45 94.8039 173.986 96.3908 173.644 98.0021C173.351 99.6134 173.156 101.176 173.058 102.69C172.96 104.203 172.912 105.497 172.912 106.571ZM231.945 140.995C229.308 140.995 226.842 139.848 224.547 137.553C222.301 135.209 220.324 132.084 218.615 128.178C216.955 124.272 215.636 119.755 214.66 114.628C213.732 109.452 213.268 104.032 213.268 98.3683C213.268 94.0226 213.585 89.3107 214.22 84.2326C214.855 79.1056 215.783 73.8322 217.003 68.4123C218.224 62.9923 219.665 57.548 221.325 52.0793C223.034 46.6105 224.938 41.3615 227.038 36.3322C229.186 31.3029 231.505 26.6154 233.996 22.2697C236.486 17.8752 239.098 14.0666 241.833 10.8439C244.567 7.57242 247.423 5.00894 250.402 3.15347C253.38 1.298 256.408 0.37027 259.484 0.37027C261.583 0.37027 263.317 0.858551 264.684 1.83511C266.051 2.76285 267.125 4.00797 267.907 5.57047C268.688 7.13297 269.225 8.91519 269.518 10.9171C269.86 12.8703 270.031 14.8722 270.031 16.923C270.031 21.5128 269.494 26.2003 268.419 30.9855C267.394 35.7218 265.978 40.507 264.171 45.341C262.414 50.1261 260.363 54.9357 258.019 59.7697C255.675 64.6037 253.234 69.4132 250.695 74.1984C248.156 78.9347 245.592 83.6222 243.004 88.2609C240.465 92.8507 238.073 97.3429 235.827 101.737C235.583 102.226 235.314 102.861 235.021 103.642C234.777 104.423 234.533 105.277 234.289 106.205C234.044 107.084 233.8 108.036 233.556 109.062C233.312 110.087 233.117 111.088 232.97 112.065V113.09C232.97 114.36 233.092 115.605 233.336 116.825C233.629 117.997 233.971 119.071 234.362 120.048C234.752 120.976 235.167 121.733 235.607 122.319C236.046 122.856 236.461 123.124 236.852 123.124C237.78 123.124 238.83 122.929 240.001 122.538C241.222 122.148 242.492 121.635 243.81 121C245.177 120.317 246.569 119.56 247.985 118.73C249.401 117.851 250.768 116.972 252.086 116.093C255.163 114.042 258.385 111.674 261.754 108.988L267.76 124.369C263.415 127.494 259.118 130.277 254.87 132.719C253.014 133.744 251.085 134.77 249.083 135.795C247.13 136.772 245.153 137.651 243.151 138.432C241.149 139.213 239.196 139.848 237.292 140.336C235.387 140.776 233.605 140.995 231.945 140.995ZM232.018 82.4015C234.215 78.4953 236.535 74.1007 238.976 69.2179C241.466 64.3351 243.81 59.3058 246.007 54.13C248.205 48.9543 250.109 43.8029 251.72 38.6759C253.332 33.5002 254.357 28.6906 254.796 24.2472C254.796 22.8312 254.748 21.6349 254.65 20.6584C254.601 19.633 254.381 19.1203 253.991 19.1203C252.575 19.1203 251.037 20.048 249.376 21.9035C247.765 23.7101 246.129 26.1759 244.469 29.3009C242.858 32.4259 241.295 36.0636 239.782 40.214C238.317 44.3644 236.999 48.7834 235.827 53.4709C234.655 58.1584 233.727 62.9923 233.043 67.9728C232.36 72.9044 232.018 77.714 232.018 82.4015ZM274.132 140.995C271.496 140.995 269.03 139.848 266.735 137.553C264.489 135.209 262.511 132.084 260.802 128.178C259.142 124.272 257.824 119.755 256.847 114.628C255.919 109.452 255.456 104.032 255.456 98.3683C255.456 94.0226 255.773 89.3107 256.408 84.2326C257.042 79.1056 257.97 73.8322 259.191 68.4123C260.412 62.9923 261.852 57.548 263.512 52.0793C265.221 46.6105 267.125 41.3615 269.225 36.3322C271.374 31.3029 273.693 26.6154 276.183 22.2697C278.673 17.8752 281.286 14.0666 284.02 10.8439C286.754 7.57242 289.611 5.00894 292.589 3.15347C295.568 1.298 298.595 0.37027 301.671 0.37027C303.771 0.37027 305.504 0.858551 306.872 1.83511C308.239 2.76285 309.313 4.00797 310.094 5.57047C310.875 7.13297 311.413 8.91519 311.706 10.9171C312.047 12.8703 312.218 14.8722 312.218 16.923C312.218 21.5128 311.681 26.2003 310.607 30.9855C309.582 35.7218 308.166 40.507 306.359 45.341C304.601 50.1261 302.55 54.9357 300.207 59.7697C297.863 64.6037 295.421 69.4132 292.882 74.1984C290.343 78.9347 287.78 83.6222 285.192 88.2609C282.653 92.8507 280.26 97.3429 278.014 101.737C277.77 102.226 277.501 102.861 277.208 103.642C276.964 104.423 276.72 105.277 276.476 106.205C276.232 107.084 275.988 108.036 275.744 109.062C275.5 110.087 275.304 111.088 275.158 112.065V113.09C275.158 114.36 275.28 115.605 275.524 116.825C275.817 117.997 276.159 119.071 276.549 120.048C276.94 120.976 277.355 121.733 277.794 122.319C278.234 122.856 278.649 123.124 279.04 123.124C279.967 123.124 281.017 122.929 282.189 122.538C283.41 122.148 284.679 121.635 285.998 121C287.365 120.317 288.756 119.56 290.172 118.73C291.588 117.851 292.956 116.972 294.274 116.093C297.35 114.042 300.573 111.674 303.942 108.988L309.948 124.369C305.602 127.494 301.305 130.277 297.057 132.719C295.202 133.744 293.273 134.77 291.271 135.795C289.318 136.772 287.34 137.651 285.338 138.432C283.336 139.213 281.383 139.848 279.479 140.336C277.575 140.776 275.792 140.995 274.132 140.995ZM274.206 82.4015C276.403 78.4953 278.722 74.1007 281.164 69.2179C283.654 64.3351 285.998 59.3058 288.195 54.13C290.392 48.9543 292.296 43.8029 293.908 38.6759C295.519 33.5002 296.544 28.6906 296.984 24.2472C296.984 22.8312 296.935 21.6349 296.837 20.6584C296.789 19.633 296.569 19.1203 296.178 19.1203C294.762 19.1203 293.224 20.048 291.564 21.9035C289.953 23.7101 288.317 26.1759 286.657 29.3009C285.045 32.4259 283.483 36.0636 281.969 40.214C280.504 44.3644 279.186 48.7834 278.014 53.4709C276.842 58.1584 275.915 62.9923 275.231 67.9728C274.547 72.9044 274.206 77.714 274.206 82.4015ZM312.072 146.269C312.218 145.634 312.414 144.804 312.658 143.778C312.902 142.802 313.17 141.728 313.463 140.556C313.805 139.384 314.147 138.163 314.489 136.894C314.879 135.575 315.246 134.281 315.587 133.012C316.417 130.082 317.296 126.957 318.224 123.637C318.517 122.611 318.981 121.708 319.616 120.927C320.299 120.146 321.081 119.511 321.959 119.023C322.887 118.486 323.888 118.095 324.962 117.851C326.037 117.607 327.135 117.485 328.258 117.485C329.625 117.485 330.993 117.68 332.36 118.07C333.727 118.412 334.948 118.949 336.022 119.682C337.145 120.414 338.048 121.318 338.732 122.392C339.416 123.417 339.757 124.613 339.757 125.981C339.757 126.957 339.586 127.909 339.245 128.837C338.903 129.765 338.439 130.766 337.853 131.84C336.925 133.305 335.9 134.892 334.777 136.601C333.703 138.261 332.604 139.921 331.481 141.581C330.407 143.29 329.333 144.902 328.258 146.415C327.233 147.978 326.33 149.32 325.548 150.444C324.376 152.055 323.083 153.202 321.667 153.886C320.25 154.618 318.883 154.985 317.565 154.985C315.954 154.985 314.562 154.447 313.39 153.373C312.218 152.348 311.632 150.883 311.632 148.979C311.632 148.197 311.779 147.294 312.072 146.269ZM369.933 95.4386C371.935 92.8019 374.181 89.9699 376.671 86.9425C379.162 83.9152 381.75 81.1076 384.435 78.5197C387.121 75.883 389.782 73.7101 392.418 72.0011C395.104 70.2433 397.619 69.3644 399.962 69.3644C400.548 69.3644 401.208 69.4865 401.94 69.7306C402.672 69.9259 403.356 70.3166 403.991 70.9025C404.674 71.4884 405.236 72.3185 405.675 73.3927C406.115 74.4181 406.334 75.7609 406.334 77.4211C406.334 80.7414 405.871 83.9884 404.943 87.1623C404.015 90.2873 402.99 93.4367 401.867 96.6105C400.792 99.7355 399.792 102.934 398.864 106.205C397.985 109.477 397.545 112.895 397.545 116.459C397.545 118.412 397.838 119.975 398.424 121.147C399.01 122.319 399.767 122.904 400.695 122.904C401.867 122.904 403.112 122.66 404.43 122.172C405.749 121.684 407.067 121.049 408.385 120.268C409.704 119.486 410.998 118.608 412.267 117.631C413.537 116.606 414.733 115.556 415.856 114.482C418.542 111.991 421.178 109.159 423.766 105.986L425.011 125.468C424.132 126.152 423.009 127.006 421.642 128.031C420.324 129.057 418.834 130.155 417.174 131.327C415.563 132.45 413.805 133.598 411.901 134.77C409.997 135.942 408.068 136.991 406.115 137.919C404.21 138.798 402.282 139.53 400.329 140.116C398.424 140.702 396.593 140.995 394.835 140.995C392.15 140.995 389.806 140.287 387.804 138.871C385.851 137.406 384.24 135.575 382.97 133.378C381.701 131.132 380.749 128.691 380.114 126.054C379.479 123.417 379.162 120.927 379.162 118.583C379.162 117.021 379.357 115.287 379.748 113.383C380.187 111.43 380.7 109.477 381.286 107.524C381.92 105.57 382.604 103.666 383.336 101.811C384.118 99.9552 384.826 98.2951 385.46 96.8302C386.144 95.3654 386.73 94.1691 387.218 93.2414C387.707 92.3136 388.024 91.7765 388.17 91.63L386.632 91.4103C385.802 91.9474 384.386 93.3146 382.384 95.5119C380.431 97.7091 378.209 100.492 375.719 103.861C373.229 107.182 370.641 110.942 367.956 115.141C365.319 119.291 362.926 123.588 360.778 128.031C359.704 130.229 358.825 132.157 358.141 133.818C357.458 135.429 356.774 136.772 356.09 137.846C355.456 138.871 354.748 139.652 353.966 140.19C353.185 140.727 352.184 140.995 350.963 140.995C349.352 140.995 348.083 140.531 347.155 139.604C346.227 138.676 345.519 137.455 345.031 135.942C344.542 134.379 344.225 132.621 344.079 130.668C343.932 128.715 343.859 126.713 343.859 124.662C343.859 121.391 343.883 117.118 343.932 111.845C344.03 106.523 344.274 100.639 344.665 94.1935C345.055 87.7482 345.617 80.9611 346.349 73.8322C347.082 66.7033 348.107 59.672 349.425 52.7384C350.792 45.756 352.477 39.1154 354.479 32.8166C356.53 26.4689 358.996 20.9025 361.876 16.1173C364.806 11.2834 368.224 7.45035 372.13 4.61832C376.037 1.78629 380.529 0.37027 385.607 0.37027C388.244 0.37027 390.392 0.760895 392.052 1.54214C393.761 2.32339 395.104 3.42203 396.081 4.83804C397.106 6.25406 397.814 7.96304 398.205 9.965C398.595 11.9181 398.791 14.1154 398.791 16.5568C398.791 20.1701 398.278 24.174 397.252 28.5685C396.227 32.963 394.86 37.5285 393.151 42.2648C391.491 47.0011 389.586 51.8107 387.438 56.6935C385.29 61.5275 383.092 66.2394 380.846 70.8293C378.6 75.3703 376.378 79.6671 374.181 83.7199C372.033 87.7726 370.128 91.3371 368.468 94.4132L369.933 95.4386ZM376.452 50.175C379.333 42.7043 381.408 36.4054 382.677 31.2785C383.996 26.1515 384.655 22.3673 384.655 19.9259C384.655 16.215 384.167 14.3595 383.19 14.3595C381.92 14.3595 380.041 16.4347 377.55 20.5851C375.06 24.7355 372.13 30.7658 368.761 38.6759C367.931 41.3615 367.15 44.1447 366.417 47.0255C365.734 49.9064 365.099 52.7873 364.513 55.6681C363.976 58.5002 363.463 61.3078 362.975 64.091C362.536 66.8253 362.145 69.4377 361.803 71.9279C360.973 77.7384 360.338 83.4269 359.899 88.9933C361.217 85.9171 362.658 82.5724 364.22 78.9591C365.783 75.3459 367.321 71.7814 368.834 68.2658C370.348 64.7013 371.764 61.3566 373.083 58.2316C374.45 55.0578 375.573 52.3722 376.452 50.175ZM444.567 140.995C439.977 140.995 435.949 140.165 432.482 138.505C429.064 136.845 426.208 134.623 423.913 131.84C421.618 129.008 419.884 125.761 418.712 122.099C417.589 118.388 417.028 114.506 417.028 110.453C417.028 107.719 417.296 104.838 417.833 101.811C418.371 98.7345 419.176 95.7316 420.25 92.8019C421.374 89.8722 422.765 87.089 424.425 84.4523C426.085 81.7668 428.014 79.423 430.211 77.4211C432.458 75.3703 434.948 73.7589 437.682 72.5871C440.465 71.3664 443.542 70.756 446.911 70.756C449.645 70.756 452.184 71.1955 454.528 72.0744C456.872 72.9533 458.898 74.1984 460.607 75.8097C462.365 77.3722 463.732 79.2765 464.708 81.5226C465.685 83.7687 466.173 86.2834 466.173 89.0666C466.173 92.0939 465.417 95.1212 463.903 98.1486C462.438 101.176 460.387 104.032 457.75 106.718C455.114 109.403 451.964 111.796 448.302 113.896C444.689 115.995 440.758 117.631 436.51 118.803C437.243 120.121 437.951 121.22 438.634 122.099C439.367 122.978 440.099 123.661 440.832 124.15C441.564 124.638 442.321 124.98 443.102 125.175C443.932 125.37 444.811 125.468 445.739 125.468C448.668 125.468 451.745 124.882 454.967 123.71C458.239 122.538 461.413 121.073 464.489 119.316C467.565 117.558 470.47 115.653 473.205 113.603C475.939 111.503 478.258 109.526 480.163 107.67L489.611 117.485C485.314 121.928 480.749 125.859 475.915 129.277C473.815 130.741 471.544 132.182 469.103 133.598C466.71 135.014 464.171 136.283 461.486 137.406C458.849 138.481 456.09 139.36 453.209 140.043C450.377 140.678 447.497 140.995 444.567 140.995ZM434.826 106.571C436.583 106.571 438.488 106.132 440.539 105.253C442.638 104.325 444.567 103.153 446.325 101.737C448.131 100.321 449.645 98.7834 450.866 97.1232C452.086 95.463 452.697 93.8517 452.697 92.2892C452.697 90.0919 452.282 88.2853 451.452 86.8693C450.67 85.4533 449.694 84.7453 448.522 84.7453C446.422 84.7453 444.616 85.1359 443.102 85.9171C441.637 86.6984 440.392 87.7238 439.367 88.9933C438.39 90.214 437.584 91.63 436.95 93.2414C436.364 94.8039 435.9 96.3908 435.558 98.0021C435.265 99.6134 435.07 101.176 434.972 102.69C434.875 104.203 434.826 105.497 434.826 106.571ZM493.859 140.995C491.222 140.995 488.756 139.848 486.461 137.553C484.215 135.209 482.238 132.084 480.529 128.178C478.869 124.272 477.55 119.755 476.574 114.628C475.646 109.452 475.182 104.032 475.182 98.3683C475.182 94.0226 475.5 89.3107 476.134 84.2326C476.769 79.1056 477.697 73.8322 478.917 68.4123C480.138 62.9923 481.579 57.548 483.239 52.0793C484.948 46.6105 486.852 41.3615 488.952 36.3322C491.1 31.3029 493.419 26.6154 495.91 22.2697C498.4 17.8752 501.012 14.0666 503.747 10.8439C506.481 7.57242 509.337 5.00894 512.316 3.15347C515.294 1.298 518.322 0.37027 521.398 0.37027C523.498 0.37027 525.231 0.858551 526.598 1.83511C527.965 2.76285 529.04 4.00797 529.821 5.57047C530.602 7.13297 531.139 8.91519 531.432 10.9171C531.774 12.8703 531.945 14.8722 531.945 16.923C531.945 21.5128 531.408 26.2003 530.333 30.9855C529.308 35.7218 527.892 40.507 526.085 45.341C524.328 50.1261 522.277 54.9357 519.933 59.7697C517.589 64.6037 515.148 69.4132 512.609 74.1984C510.07 78.9347 507.506 83.6222 504.918 88.2609C502.379 92.8507 499.987 97.3429 497.741 101.737C497.497 102.226 497.228 102.861 496.935 103.642C496.691 104.423 496.447 105.277 496.203 106.205C495.958 107.084 495.714 108.036 495.47 109.062C495.226 110.087 495.031 111.088 494.884 112.065V113.09C494.884 114.36 495.006 115.605 495.25 116.825C495.543 117.997 495.885 119.071 496.276 120.048C496.667 120.976 497.082 121.733 497.521 122.319C497.96 122.856 498.375 123.124 498.766 123.124C499.694 123.124 500.744 122.929 501.916 122.538C503.136 122.148 504.406 121.635 505.724 121C507.091 120.317 508.483 119.56 509.899 118.73C511.315 117.851 512.682 116.972 514 116.093C517.077 114.042 520.299 111.674 523.668 108.988L529.674 124.369C525.329 127.494 521.032 130.277 516.784 132.719C514.928 133.744 513 134.77 510.998 135.795C509.044 136.772 507.067 137.651 505.065 138.432C503.063 139.213 501.11 139.848 499.206 140.336C497.301 140.776 495.519 140.995 493.859 140.995ZM493.932 82.4015C496.129 78.4953 498.449 74.1007 500.89 69.2179C503.38 64.3351 505.724 59.3058 507.921 54.13C510.119 48.9543 512.023 43.8029 513.634 38.6759C515.246 33.5002 516.271 28.6906 516.71 24.2472C516.71 22.8312 516.662 21.6349 516.564 20.6584C516.515 19.633 516.295 19.1203 515.905 19.1203C514.489 19.1203 512.951 20.048 511.291 21.9035C509.679 23.7101 508.043 26.1759 506.383 29.3009C504.772 32.4259 503.209 36.0636 501.696 40.214C500.231 44.3644 498.913 48.7834 497.741 53.4709C496.569 58.1584 495.641 62.9923 494.958 67.9728C494.274 72.9044 493.932 77.714 493.932 82.4015ZM536.046 140.995C533.41 140.995 530.944 139.848 528.649 137.553C526.403 135.209 524.425 132.084 522.716 128.178C521.056 124.272 519.738 119.755 518.761 114.628C517.833 109.452 517.37 104.032 517.37 98.3683C517.37 94.0226 517.687 89.3107 518.322 84.2326C518.957 79.1056 519.884 73.8322 521.105 68.4123C522.326 62.9923 523.766 57.548 525.426 52.0793C527.135 46.6105 529.04 41.3615 531.139 36.3322C533.288 31.3029 535.607 26.6154 538.097 22.2697C540.587 17.8752 543.2 14.0666 545.934 10.8439C548.668 7.57242 551.525 5.00894 554.503 3.15347C557.482 1.298 560.509 0.37027 563.585 0.37027C565.685 0.37027 567.418 0.858551 568.786 1.83511C570.153 2.76285 571.227 4.00797 572.008 5.57047C572.79 7.13297 573.327 8.91519 573.62 10.9171C573.961 12.8703 574.132 14.8722 574.132 16.923C574.132 21.5128 573.595 26.2003 572.521 30.9855C571.496 35.7218 570.08 40.507 568.273 45.341C566.515 50.1261 564.464 54.9357 562.121 59.7697C559.777 64.6037 557.335 69.4132 554.796 74.1984C552.257 78.9347 549.694 83.6222 547.106 88.2609C544.567 92.8507 542.174 97.3429 539.928 101.737C539.684 102.226 539.416 102.861 539.123 103.642C538.878 104.423 538.634 105.277 538.39 106.205C538.146 107.084 537.902 108.036 537.658 109.062C537.414 110.087 537.218 111.088 537.072 112.065V113.09C537.072 114.36 537.194 115.605 537.438 116.825C537.731 117.997 538.073 119.071 538.463 120.048C538.854 120.976 539.269 121.733 539.708 122.319C540.148 122.856 540.563 123.124 540.954 123.124C541.881 123.124 542.931 122.929 544.103 122.538C545.324 122.148 546.593 121.635 547.912 121C549.279 120.317 550.67 119.56 552.086 118.73C553.502 117.851 554.87 116.972 556.188 116.093C559.264 114.042 562.487 111.674 565.856 108.988L571.862 124.369C567.516 127.494 563.219 130.277 558.971 132.719C557.116 133.744 555.187 134.77 553.185 135.795C551.232 136.772 549.254 137.651 547.252 138.432C545.25 139.213 543.297 139.848 541.393 140.336C539.489 140.776 537.707 140.995 536.046 140.995ZM536.12 82.4015C538.317 78.4953 540.636 74.1007 543.078 69.2179C545.568 64.3351 547.912 59.3058 550.109 54.13C552.306 48.9543 554.21 43.8029 555.822 38.6759C557.433 33.5002 558.458 28.6906 558.898 24.2472C558.898 22.8312 558.849 21.6349 558.751 20.6584C558.703 19.633 558.483 19.1203 558.092 19.1203C556.676 19.1203 555.138 20.048 553.478 21.9035C551.867 23.7101 550.231 26.1759 548.571 29.3009C546.959 32.4259 545.397 36.0636 543.883 40.214C542.418 44.3644 541.1 48.7834 539.928 53.4709C538.756 58.1584 537.829 62.9923 537.145 67.9728C536.461 72.9044 536.12 77.714 536.12 82.4015ZM606.872 86.1369C608.288 88.9689 609.337 91.9718 610.021 95.1457C610.753 98.2707 611.12 101.274 611.12 104.154C611.12 107.035 610.802 109.941 610.167 112.87C609.533 115.8 608.605 118.632 607.384 121.366C606.212 124.101 604.748 126.664 602.99 129.057C601.281 131.449 599.303 133.525 597.057 135.282C594.86 137.04 592.443 138.432 589.806 139.457C587.169 140.483 584.362 140.995 581.383 140.995C577.086 140.995 573.4 140.068 570.324 138.212C567.296 136.308 564.806 133.842 562.853 130.815C560.9 127.787 559.459 124.369 558.532 120.561C557.653 116.752 557.213 112.895 557.213 108.988C557.213 103.617 558.019 98.6125 559.63 93.9738C561.242 89.2863 563.537 85.2336 566.515 81.8156C569.542 78.3488 573.229 75.6388 577.575 73.6857C581.92 71.6837 586.803 70.6828 592.223 70.6828C596.862 70.6828 601.208 71.4152 605.26 72.88C609.313 74.2961 613.097 76.2248 616.613 78.6662C620.177 81.0587 623.473 83.8175 626.5 86.9425C629.577 90.0675 632.433 93.2902 635.07 96.6105L633.678 106.938C632.36 105.18 630.578 103.276 628.332 101.225C626.085 99.174 623.693 97.172 621.154 95.2189C618.664 93.2658 616.198 91.4347 613.756 89.7257C611.315 87.9679 609.215 86.5031 607.458 85.3312L606.872 86.1369ZM584.24 126.933C585.9 126.933 587.511 126.103 589.074 124.443C590.636 122.734 592.003 120.61 593.175 118.07C594.347 115.483 595.275 112.651 595.958 109.574C596.691 106.449 597.057 103.471 597.057 100.639C597.057 98.3927 596.886 96.3175 596.544 94.4132C596.203 92.4601 595.69 90.7755 595.006 89.3595C594.323 87.9435 593.444 86.8205 592.37 85.9904C591.295 85.1603 590.001 84.7453 588.488 84.7453C586.486 84.7453 584.582 85.5998 582.775 87.3087C580.968 89.0177 579.381 91.215 578.014 93.9005C576.647 96.5373 575.573 99.4669 574.792 102.69C574.01 105.912 573.62 109.013 573.62 111.991C573.62 114.042 573.815 115.971 574.206 117.777C574.596 119.584 575.207 121.171 576.037 122.538C576.867 123.857 577.965 124.931 579.333 125.761C580.7 126.542 582.335 126.933 584.24 126.933ZM647.008 103.495C647.497 98.466 648.229 93.2902 649.206 87.9679C650.182 82.5968 651.305 77.2502 652.575 71.9279C653.844 66.5568 655.187 61.2589 656.603 56.0343C658.068 50.8097 659.508 45.8048 660.924 41.0197C662.34 36.2345 663.683 31.7423 664.953 27.5431C666.271 23.3439 667.418 19.5597 668.395 16.1906C669.03 13.8468 669.933 11.9669 671.105 10.5509C672.326 9.08609 673.668 7.96304 675.133 7.18179C676.598 6.35172 678.136 5.79019 679.748 5.49722C681.408 5.20425 682.995 5.05777 684.508 5.05777C685.29 5.05777 686.022 5.15543 686.706 5.35074C687.389 5.54605 687.975 5.91226 688.463 6.44937C688.952 6.93765 689.318 7.64566 689.562 8.57339C689.855 9.4523 690.001 10.5998 690.001 12.0158C690.001 12.9923 689.928 14.0666 689.782 15.2384C689.684 16.3615 689.489 17.6554 689.196 19.1203C687.975 24.8332 686.388 30.5705 684.435 36.3322C682.482 42.0451 680.138 48.1974 677.404 54.7892C674.669 61.381 671.544 68.632 668.029 76.5421C664.562 84.4035 660.68 93.3878 656.383 103.495C656.286 104.032 656.017 104.545 655.578 105.033C655.187 105.473 654.699 105.863 654.113 106.205C653.527 106.498 652.892 106.742 652.208 106.938C651.525 107.084 650.866 107.157 650.231 107.157C649.303 107.157 648.498 106.962 647.814 106.571C647.179 106.181 646.862 105.522 646.862 104.594C646.862 104.35 646.911 103.984 647.008 103.495ZM659.752 127.445C659.655 127.641 659.557 128.105 659.459 128.837C659.411 129.569 659.24 130.448 658.947 131.474C658.703 132.499 658.336 133.573 657.848 134.696C657.36 135.819 656.627 136.869 655.651 137.846C654.723 138.774 653.527 139.555 652.062 140.19C650.597 140.824 648.766 141.142 646.569 141.142C644.762 141.142 643.126 140.922 641.662 140.483C640.197 139.994 638.927 139.262 637.853 138.285C636.828 137.309 636.022 136.064 635.436 134.55C634.85 133.036 634.557 131.23 634.557 129.13C634.557 127.372 634.801 125.663 635.29 124.003C635.827 122.294 636.632 120.78 637.707 119.462C638.781 118.144 640.172 117.094 641.881 116.313C643.59 115.531 645.617 115.141 647.96 115.141C651.769 115.141 654.699 116.166 656.75 118.217C658.8 120.268 659.826 123.197 659.826 127.006C659.826 127.201 659.801 127.348 659.752 127.445Z" fill="black"/>
</svg>
