<svg width="342" height="27" viewBox="0 0 342 27" fill="none" xmlns="http://www.w3.org/2000/svg">
<path d="M18 25.6531L16.632 21.2251H7.992L6.624 25.6531H0.684L9.396 0.453074H15.408L24.12 25.6531H18ZM15.084 16.3291L12.276 7.29307L9.468 16.3291H15.084ZM37.0243 16.8691H33.6763V25.6531H28.0603V0.453074H36.9163C42.6403 0.453074 46.1323 3.18908 46.1323 8.04908V9.30908C46.1323 14.1691 42.3163 16.8691 37.0243 16.8691ZM36.4843 5.34908H33.6763V11.9731H36.4843C39.1123 11.9731 40.3723 10.8211 40.3723 9.05708V8.30108C40.3723 6.50108 39.1123 5.34908 36.4843 5.34908ZM59.454 16.8691H56.106V25.6531H50.49V0.453074H59.346C65.07 0.453074 68.562 3.18908 68.562 8.04908V9.30908C68.562 14.1691 64.746 16.8691 59.454 16.8691ZM58.914 5.34908H56.106V11.9731H58.914C61.542 11.9731 62.802 10.8211 62.802 9.05708V8.30108C62.802 6.50108 61.542 5.34908 58.914 5.34908ZM82.8338 25.6531V0.453074H92.4098C98.5658 0.453074 102.346 3.76507 102.346 9.56108V16.5811C102.346 22.4131 98.2418 25.6531 92.5538 25.6531H82.8338ZM91.9778 5.34908H88.4498V20.7571H91.9418C95.1098 20.7571 96.5858 19.0291 96.5858 16.3291V9.81308C96.5858 7.07708 95.1098 5.34908 91.9778 5.34908ZM107.865 25.6531V0.453074H124.605V5.34908H113.481V10.2091H122.805V15.1051H113.481V20.7571H124.605V25.6531H107.865ZM141.502 25.6531H135.274L127.03 0.453074H133.222L138.55 18.4891L143.806 0.453074H149.746L141.502 25.6531ZM153.428 25.6531V0.453074H170.168V5.34908H159.044V10.2091H168.367V15.1051H159.044V20.7571H170.168V25.6531H153.428ZM175.4 25.6531V0.453074H181.016V20.7571H191.42V25.6531H175.4ZM204.518 26.0131C198.254 26.0131 194.186 22.5571 194.186 16.2931V9.84908C194.186 3.58507 198.254 0.0930748 204.518 0.0930748C210.818 0.0930748 214.886 3.58507 214.886 9.84908V16.2931C214.886 22.5571 210.818 26.0131 204.518 26.0131ZM204.518 4.98908C201.422 4.98908 199.946 7.00508 199.946 10.1011V16.0411C199.946 19.1011 201.422 21.1171 204.518 21.1171C207.65 21.1171 209.126 19.1011 209.126 16.0411V10.1011C209.126 7.00508 207.65 4.98908 204.518 4.98908ZM229.364 16.8691H226.016V25.6531H220.4V0.453074H229.256C234.98 0.453074 238.472 3.18908 238.472 8.04908V9.30908C238.472 14.1691 234.656 16.8691 229.364 16.8691ZM228.824 5.34908H226.016V11.9731H228.824C231.452 11.9731 232.712 10.8211 232.712 9.05708V8.30108C232.712 6.50108 231.452 5.34908 228.824 5.34908ZM253.774 22.1971L248.266 9.95708V25.6531H242.83V0.453074H249.886L256.438 15.8611L263.278 0.453074H269.614V25.6531H264.178V9.95708L258.67 22.1971H253.774ZM276.088 25.6531V0.453074H292.828V5.34908H281.704V10.2091H291.028V15.1051H281.704V20.7571H292.828V25.6531H276.088ZM310.804 25.6531L303.496 8.94908V25.6531H298.06V0.453074H304.756L312.064 17.1571V0.453074H317.5V25.6531H310.804ZM341.07 5.34908H334.122V25.6531H328.506V5.34908H321.522V0.453074H341.07V5.34908Z" fill="#050505"/>
</svg>
