<svg width="299" height="27" viewBox="0 0 299 27" fill="none" xmlns="http://www.w3.org/2000/svg">
<path d="M0.24 25.6531V0.453074H9.816C15.972 0.453074 19.752 3.76507 19.752 9.56108V16.5811C19.752 22.4131 15.648 25.6531 9.96 25.6531H0.24ZM9.384 5.34908H5.856V20.7571H9.348C12.516 20.7571 13.992 19.0291 13.992 16.3291V9.81308C13.992 7.07708 12.516 5.34908 9.384 5.34908ZM25.2713 25.6531V0.453074H42.0113V5.34908H30.8873V10.2091H40.2112V15.1051H30.8873V20.7571H42.0113V25.6531H25.2713ZM54.6959 4.98908C52.7159 4.98908 51.9959 5.81708 51.9959 7.07708C51.9959 8.51708 52.7519 8.98508 54.8759 9.81308L57.4679 10.8211C62.5439 12.8011 64.0199 14.6371 64.0199 18.5251C64.0199 23.3491 61.2479 26.0131 55.1999 26.0131C49.7639 26.0131 46.2719 23.7811 45.6239 18.1651H51.1679C51.6719 20.3611 52.5719 21.1171 55.1639 21.1171C57.4319 21.1171 58.2599 20.3971 58.2599 18.8131C58.2599 17.0851 57.5039 16.5811 54.9119 15.6091L52.5719 14.7451C47.9999 13.0531 46.2359 11.2171 46.2359 7.25707C46.2359 3.08107 48.9719 0.0930748 54.6959 0.0930748C60.4199 0.0930748 63.2999 3.15308 63.4799 7.94108H57.9359C57.7199 5.99708 56.9279 4.98908 54.6959 4.98908ZM69.1111 25.6531V0.453074H74.7271V25.6531H69.1111ZM90.0968 26.0131C84.3008 26.0131 80.2328 22.5571 80.2328 16.2931V9.84908C80.2328 3.58507 84.3008 0.0930748 90.5648 0.0930748C96.0008 0.0930748 99.2408 3.15308 99.4928 7.61707H93.9488C93.6248 5.88908 92.5448 4.98908 90.1688 4.98908C87.4688 4.98908 85.9928 7.00508 85.9928 10.1011V16.0411C85.9928 19.1011 87.4688 21.1171 90.4208 21.1171C92.9048 21.1171 94.1648 19.6411 94.1648 17.4451V16.7611H89.7368V11.9371H99.4928V16.6891C99.4928 23.2411 96.5048 26.0131 90.0968 26.0131ZM117.785 25.6531L110.477 8.94908V25.6531H105.041V0.453074H111.737L119.045 17.1571V0.453074H124.481V25.6531H117.785ZM148.317 4.98908C146.337 4.98908 145.617 5.81708 145.617 7.07708C145.617 8.51708 146.373 8.98508 148.497 9.81308L151.089 10.8211C156.165 12.8011 157.641 14.6371 157.641 18.5251C157.641 23.3491 154.869 26.0131 148.821 26.0131C143.385 26.0131 139.893 23.7811 139.245 18.1651H144.789C145.293 20.3611 146.193 21.1171 148.785 21.1171C151.053 21.1171 151.881 20.3971 151.881 18.8131C151.881 17.0851 151.125 16.5811 148.533 15.6091L146.193 14.7451C141.621 13.0531 139.857 11.2171 139.857 7.25707C139.857 3.08107 142.593 0.0930748 148.317 0.0930748C154.041 0.0930748 156.921 3.15308 157.101 7.94108H151.557C151.341 5.99708 150.549 4.98908 148.317 4.98908ZM172.73 25.6531H167.114V16.1851L158.582 0.453074H164.918L170.102 10.9291L175.214 0.453074H181.298L172.73 16.2571V25.6531ZM192.157 4.98908C190.177 4.98908 189.457 5.81708 189.457 7.07708C189.457 8.51708 190.213 8.98508 192.337 9.81308L194.929 10.8211C200.005 12.8011 201.481 14.6371 201.481 18.5251C201.481 23.3491 198.709 26.0131 192.661 26.0131C187.225 26.0131 183.733 23.7811 183.085 18.1651H188.629C189.133 20.3611 190.033 21.1171 192.625 21.1171C194.893 21.1171 195.721 20.3971 195.721 18.8131C195.721 17.0851 194.965 16.5811 192.373 15.6091L190.033 14.7451C185.461 13.0531 183.697 11.2171 183.697 7.25707C183.697 3.08107 186.433 0.0930748 192.157 0.0930748C197.881 0.0930748 200.761 3.15308 200.941 7.94108H195.397C195.181 5.99708 194.389 4.98908 192.157 4.98908ZM222.863 5.34908H215.915V25.6531H210.299V5.34908H203.315V0.453074H222.863V5.34908ZM226.892 25.6531V0.453074H243.632V5.34908H232.508V10.2091H241.832V15.1051H232.508V20.7571H243.632V25.6531H226.892ZM259.809 22.1971L254.301 9.95708V25.6531H248.865V0.453074H255.921L262.473 15.8611L269.313 0.453074H275.649V25.6531H270.213V9.95708L264.705 22.1971H259.809ZM289.575 4.98908C287.595 4.98908 286.875 5.81708 286.875 7.07708C286.875 8.51708 287.631 8.98508 289.755 9.81308L292.347 10.8211C297.423 12.8011 298.899 14.6371 298.899 18.5251C298.899 23.3491 296.127 26.0131 290.079 26.0131C284.643 26.0131 281.151 23.7811 280.503 18.1651H286.047C286.551 20.3611 287.451 21.1171 290.043 21.1171C292.311 21.1171 293.139 20.3971 293.139 18.8131C293.139 17.0851 292.383 16.5811 289.791 15.6091L287.451 14.7451C282.879 13.0531 281.115 11.2171 281.115 7.25707C281.115 3.08107 283.851 0.0930748 289.575 0.0930748C295.299 0.0930748 298.179 3.15308 298.359 7.94108H292.815C292.599 5.99708 291.807 4.98908 289.575 4.98908Z" fill="#050505"/>
</svg>
