<svg width="247" height="27" viewBox="0 0 247 27" fill="none" xmlns="http://www.w3.org/2000/svg">
<path d="M0.24 25.6531V0.453074H16.98V5.34908H5.856V10.2091H15.18V15.1051H5.856V20.7571H16.98V25.6531H0.24ZM33.1567 22.1971L27.6487 9.95708V25.6531H22.2127V0.453074H29.2687L35.8207 15.8611L42.6607 0.453074H48.9967V25.6531H43.5607V9.95708L38.0527 22.1971H33.1567ZM70.2305 25.6531L68.8625 21.2251H60.2225L58.8545 25.6531H52.9145L61.6265 0.453074H67.6385L76.3505 25.6531H70.2305ZM67.3145 16.3291L64.5065 7.29307L61.6985 16.3291H67.3145ZM80.2908 25.6531V0.453074H85.9068V25.6531H80.2908ZM92.3845 25.6531V0.453074H98.0005V20.7571H108.405V25.6531H92.3845ZM122.056 25.6531V0.453074H131.632C137.788 0.453074 141.568 3.76507 141.568 9.56108V16.5811C141.568 22.4131 137.464 25.6531 131.776 25.6531H122.056ZM131.2 5.34908H127.672V20.7571H131.164C134.332 20.7571 135.808 19.0291 135.808 16.3291V9.81308C135.808 7.07708 134.332 5.34908 131.2 5.34908ZM147.088 25.6531V0.453074H163.828V5.34908H152.704V10.2091H162.028V15.1051H152.704V20.7571H163.828V25.6531H147.088ZM176.512 4.98908C174.532 4.98908 173.812 5.81708 173.812 7.07708C173.812 8.51708 174.568 8.98508 176.692 9.81308L179.284 10.8211C184.36 12.8011 185.836 14.6371 185.836 18.5251C185.836 23.3491 183.064 26.0131 177.016 26.0131C171.58 26.0131 168.088 23.7811 167.44 18.1651H172.984C173.488 20.3611 174.388 21.1171 176.98 21.1171C179.248 21.1171 180.076 20.3971 180.076 18.8131C180.076 17.0851 179.32 16.5811 176.728 15.6091L174.388 14.7451C169.816 13.0531 168.052 11.2171 168.052 7.25707C168.052 3.08107 170.788 0.0930748 176.512 0.0930748C182.236 0.0930748 185.116 3.15308 185.296 7.94108H179.752C179.536 5.99708 178.744 4.98908 176.512 4.98908ZM190.928 25.6531V0.453074H196.544V25.6531H190.928ZM211.913 26.0131C206.117 26.0131 202.049 22.5571 202.049 16.2931V9.84908C202.049 3.58507 206.117 0.0930748 212.381 0.0930748C217.817 0.0930748 221.057 3.15308 221.309 7.61707H215.765C215.441 5.88908 214.361 4.98908 211.985 4.98908C209.285 4.98908 207.809 7.00508 207.809 10.1011V16.0411C207.809 19.1011 209.285 21.1171 212.237 21.1171C214.721 21.1171 215.981 19.6411 215.981 17.4451V16.7611H211.553V11.9371H221.309V16.6891C221.309 23.2411 218.321 26.0131 211.913 26.0131ZM239.601 25.6531L232.293 8.94908V25.6531H226.857V0.453074H233.553L240.861 17.1571V0.453074H246.297V25.6531H239.601Z" fill="#050505"/>
</svg>
