<svg width="90" height="27" viewBox="0 0 90 27" fill="none" xmlns="http://www.w3.org/2000/svg">
<path d="M9.692 4.98908C7.712 4.98908 6.992 5.81708 6.992 7.07708C6.992 8.51708 7.748 8.98508 9.872 9.81308L12.464 10.8211C17.54 12.8011 19.016 14.6371 19.016 18.5251C19.016 23.3491 16.244 26.0131 10.196 26.0131C4.76 26.0131 1.268 23.7811 0.62 18.1651H6.164C6.668 20.3611 7.568 21.1171 10.16 21.1171C12.428 21.1171 13.256 20.3971 13.256 18.8131C13.256 17.0851 12.5 16.5811 9.908 15.6091L7.568 14.7451C2.996 13.0531 1.232 11.2171 1.232 7.25707C1.232 3.08107 3.968 0.0930748 9.692 0.0930748C15.416 0.0930748 18.296 3.15308 18.476 7.94108H12.932C12.716 5.99708 11.924 4.98908 9.692 4.98908ZM38.3398 25.6531L36.9718 21.2251H28.3318L26.9638 25.6531H21.0238L29.7358 0.453074H35.7478L44.4598 25.6531H38.3398ZM35.4238 16.3291L32.6158 7.29307L29.8078 16.3291H35.4238ZM63.1602 25.6531L61.7922 21.2251H53.1522L51.7842 25.6531H45.8442L54.5562 0.453074H60.5682L69.2802 25.6531H63.1602ZM60.2442 16.3291L57.4362 7.29307L54.6282 16.3291H60.2442ZM79.9693 4.98908C77.9893 4.98908 77.2693 5.81708 77.2693 7.07708C77.2693 8.51708 78.0253 8.98508 80.1493 9.81308L82.7413 10.8211C87.8173 12.8011 89.2933 14.6371 89.2933 18.5251C89.2933 23.3491 86.5213 26.0131 80.4733 26.0131C75.0373 26.0131 71.5453 23.7811 70.8973 18.1651H76.4413C76.9453 20.3611 77.8453 21.1171 80.4373 21.1171C82.7053 21.1171 83.5333 20.3971 83.5333 18.8131C83.5333 17.0851 82.7773 16.5811 80.1853 15.6091L77.8453 14.7451C73.2733 13.0531 71.5093 11.2171 71.5093 7.25707C71.5093 3.08107 74.2453 0.0930748 79.9693 0.0930748C85.6933 0.0930748 88.5733 3.15308 88.7533 7.94108H83.2093C82.9933 5.99708 82.2013 4.98908 79.9693 4.98908Z" fill="#050505"/>
</svg>
