<svg width="179" height="27" viewBox="0 0 179 27" fill="none" xmlns="http://www.w3.org/2000/svg">
<path d="M22.212 25.6531L17.676 6.71708L13.104 25.6531H6.876L0.432 0.453074H6.624L10.368 18.3091L14.688 0.453074H21.42L25.452 18.3091L29.484 0.453074H35.424L28.98 25.6531H22.212ZM39.0994 25.6531V0.453074H55.8394V5.34908H44.7154V10.2091H54.0394V15.1051H44.7154V20.7571H55.8394V25.6531H39.0994ZM61.072 25.6531V0.453074H70.036C75.4 0.453074 78.64 2.90108 78.64 7.32908V8.22908C78.64 9.99308 77.848 11.3611 76.48 12.3331C78.568 13.3771 79.72 15.1411 79.72 17.5171V18.4171C79.72 23.0971 76.156 25.6531 71.224 25.6531H61.072ZM69.604 5.34908H66.688V10.4971H69.604C71.8 10.4971 72.88 9.56108 72.88 8.15708V7.58107C72.88 6.21308 71.8 5.34908 69.604 5.34908ZM70.684 15.0331H66.688V20.7571H70.684C72.88 20.7571 73.96 19.7131 73.96 18.1651V17.5891C73.96 16.0051 72.88 15.0331 70.684 15.0331ZM92.2897 4.98908C90.3097 4.98908 89.5897 5.81708 89.5897 7.07708C89.5897 8.51708 90.3457 8.98508 92.4697 9.81308L95.0617 10.8211C100.138 12.8011 101.614 14.6371 101.614 18.5251C101.614 23.3491 98.8417 26.0131 92.7937 26.0131C87.3577 26.0131 83.8657 23.7811 83.2177 18.1651H88.7617C89.2657 20.3611 90.1657 21.1171 92.7577 21.1171C95.0257 21.1171 95.8537 20.3971 95.8537 18.8131C95.8537 17.0851 95.0977 16.5811 92.5057 15.6091L90.1657 14.7451C85.5937 13.0531 83.8297 11.2171 83.8297 7.25707C83.8297 3.08107 86.5657 0.0930748 92.2897 0.0930748C98.0137 0.0930748 100.894 3.15308 101.074 7.94108H95.5297C95.3137 5.99708 94.5217 4.98908 92.2897 4.98908ZM106.705 25.6531V0.453074H112.321V25.6531H106.705ZM135.899 5.34908H128.951V25.6531H123.335V5.34908H116.351V0.453074H135.899V5.34908ZM139.928 25.6531V0.453074H156.668V5.34908H145.544V10.2091H154.867V15.1051H145.544V20.7571H156.668V25.6531H139.928ZM169.352 4.98908C167.372 4.98908 166.652 5.81708 166.652 7.07708C166.652 8.51708 167.408 8.98508 169.532 9.81308L172.124 10.8211C177.2 12.8011 178.676 14.6371 178.676 18.5251C178.676 23.3491 175.904 26.0131 169.856 26.0131C164.42 26.0131 160.928 23.7811 160.28 18.1651H165.824C166.328 20.3611 167.228 21.1171 169.82 21.1171C172.088 21.1171 172.916 20.3971 172.916 18.8131C172.916 17.0851 172.16 16.5811 169.568 15.6091L167.228 14.7451C162.656 13.0531 160.892 11.2171 160.892 7.25707C160.892 3.08107 163.628 0.0930748 169.352 0.0930748C175.076 0.0930748 177.956 3.15308 178.136 7.94108H172.592C172.376 5.99708 171.584 4.98908 169.352 4.98908Z" fill="#050505"/>
</svg>
