<svg width="237" height="27" viewBox="0 0 237 27" fill="none" xmlns="http://www.w3.org/2000/svg">
<path d="M22.212 25.6531L17.676 6.71708L13.104 25.6531H6.876L0.432 0.453074H6.624L10.368 18.3091L14.688 0.453074H21.42L25.452 18.3091L29.484 0.453074H35.424L28.98 25.6531H22.212ZM39.0994 25.6531V0.453074H44.7154V25.6531H39.0994ZM56.8091 16.8691V25.6531H51.1931V0.453074H60.0491C65.7731 0.453074 69.2651 3.18908 69.2651 8.04908V9.30908C69.2651 12.4771 67.6451 14.7091 65.0531 15.8971L70.3811 25.6531H64.0091L59.6531 16.8691H56.8091ZM59.6171 5.34908H56.8091V11.9731H59.6171C62.2451 11.9731 63.5051 10.8211 63.5051 9.05708V8.30108C63.5051 6.50108 62.2451 5.34908 59.6171 5.34908ZM74.3259 25.6531V0.453074H91.0659V5.34908H79.9419V10.2091H89.2659V15.1051H79.9419V20.7571H91.0659V25.6531H74.3259ZM110.519 15.8251H101.915V25.6531H96.2986V0.453074H112.319V5.34908H101.915V10.9291H110.519V15.8251ZM121.883 16.8691V25.6531H116.267V0.453074H125.123C130.847 0.453074 134.339 3.18908 134.339 8.04908V9.30908C134.339 12.4771 132.719 14.7091 130.127 15.8971L135.455 25.6531H129.083L124.727 16.8691H121.883ZM124.691 5.34908H121.883V11.9731H124.691C127.319 11.9731 128.579 10.8211 128.579 9.05708V8.30108C128.579 6.50108 127.319 5.34908 124.691 5.34908ZM154.16 25.6531L152.792 21.2251H144.152L142.784 25.6531H136.844L145.556 0.453074H151.568L160.28 25.6531H154.16ZM151.244 16.3291L148.436 7.29307L145.628 16.3291H151.244ZM175.164 22.1971L169.656 9.95708V25.6531H164.22V0.453074H171.276L177.828 15.8611L184.668 0.453074H191.004V25.6531H185.568V9.95708L180.06 22.1971H175.164ZM197.478 25.6531V0.453074H214.218V5.34908H203.094V10.2091H212.418V15.1051H203.094V20.7571H214.218V25.6531H197.478ZM226.903 4.98908C224.923 4.98908 224.203 5.81708 224.203 7.07708C224.203 8.51708 224.959 8.98508 227.083 9.81308L229.675 10.8211C234.751 12.8011 236.227 14.6371 236.227 18.5251C236.227 23.3491 233.455 26.0131 227.407 26.0131C221.971 26.0131 218.479 23.7811 217.831 18.1651H223.375C223.879 20.3611 224.779 21.1171 227.371 21.1171C229.639 21.1171 230.467 20.3971 230.467 18.8131C230.467 17.0851 229.711 16.5811 227.119 15.6091L224.779 14.7451C220.207 13.0531 218.443 11.2171 218.443 7.25707C218.443 3.08107 221.179 0.0930748 226.903 0.0930748C232.627 0.0930748 235.507 3.15308 235.687 7.94108H230.143C229.927 5.99708 229.135 4.98908 226.903 4.98908Z" fill="#050505"/>
</svg>
